{
date = "2015-06-05 10:51:01 +0000";
designer = "Nestor Vera";
designerURL = "http://nestorvera.com/";
familyName = "Neon Neue";
fontMaster = (
{
ascender = 820;
capHeight = 700;
descender = "-200";
id = "6FC19134-58B3-4B2A-889D-9A5D8CFAFAD6";
visible = 1;
xHeight = 500;
}
);
glyphs = (
{
glyphname = A;
lastChange = "2015-06-05 10:05:11 +0000";
layers = (
{
layerId = "6FC19134-58B3-4B2A-889D-9A5D8CFAFAD6";
name = Regular;
paths = (
{
closed = 1;
nodes = (
"379 821 OFFCURVE",
"369 811 OFFCURVE",
"366 802 CURVE SMOOTH",
"59 25 LINE SMOOTH",
"58 22 OFFCURVE",
"56 18 OFFCURVE",
"51 18 CURVE SMOOTH",
"50 18 OFFCURVE",
"48 18 OFFCURVE",
"46 19 CURVE SMOOTH",
"39 22 OFFCURVE",
"39 28 OFFCURVE",
"41 32 CURVE SMOOTH",
"346 806 LINE SMOOTH",
"348 811 OFFCURVE",
"345 817 OFFCURVE",
"340 819 CURVE SMOOTH",
"339 820 OFFCURVE",
"338 820 OFFCURVE",
"336 820 CURVE SMOOTH",
"332 820 OFFCURVE",
"329 817 OFFCURVE",
"327 813 CURVE SMOOTH",
"22 39 LINE SMOOTH",
"18 28 OFFCURVE",
"19 8 OFFCURVE",
"39 0 CURVE SMOOTH",
"43 -1 OFFCURVE",
"47 -2 OFFCURVE",
"51 -2 CURVE SMOOTH",
"65 -2 OFFCURVE",
"74 8 OFFCURVE",
"78 17 CURVE SMOOTH",
"384 795 LINE SMOOTH",
"385 797 OFFCURVE",
"387 801 OFFCURVE",
"393 801 CURVE SMOOTH",
"394 801 OFFCURVE",
"395 801 OFFCURVE",
"397 800 CURVE SMOOTH",
"405 797 OFFCURVE",
"404 792 OFFCURVE",
"403 787 CURVE SMOOTH",
"108 39 LINE SMOOTH",
"104 28 OFFCURVE",
"105 8 OFFCURVE",
"125 0 CURVE SMOOTH",
"129 -1 OFFCURVE",
"133 -2 OFFCURVE",
"137 -2 CURVE SMOOTH",
"151 -2 OFFCURVE",
"160 8 OFFCURVE",
"164 17 CURVE SMOOTH",
"473 801 LINE",
"775 32 LINE SMOOTH",
"777 28 OFFCURVE",
"777 22 OFFCURVE",
"770 19 CURVE SMOOTH",
"768 18 OFFCURVE",
"767 18 OFFCURVE",
"765 18 CURVE SMOOTH",
"761 18 OFFCURVE",
"758 21 OFFCURVE",
"757 25 CURVE SMOOTH",
"497 684 LINE SMOOTH",
"494 693 OFFCURVE",
"484 703 OFFCURVE",
"470 703 CURVE SMOOTH",
"466 703 OFFCURVE",
"462 703 OFFCURVE",
"458 701 CURVE SMOOTH",
"447 696 OFFCURVE",
"440 688 OFFCURVE",
"439 677 CURVE SMOOTH",
"439 669 OFFCURVE",
"441 663 OFFCURVE",
"441 662 CURVE SMOOTH",
"689 32 LINE SMOOTH",
"691 28 OFFCURVE",
"691 22 OFFCURVE",
"684 19 CURVE SMOOTH",
"682 18 OFFCURVE",
"681 18 OFFCURVE",
"679 18 CURVE SMOOTH",
"675 18 OFFCURVE",
"672 21 OFFCURVE",
"671 25 CURVE SMOOTH",
"619 157 LINE SMOOTH",
"616 165 OFFCURVE",
"608 170 OFFCURVE",
"600 170 CURVE SMOOTH",
"280 170 LINE SMOOTH",
"276 170 OFFCURVE",
"270 172 OFFCURVE",
"270 180 CURVE SMOOTH",
"270 188 OFFCURVE",
"276 190 OFFCURVE",
"280 190 CURVE SMOOTH",
"563 190 LINE SMOOTH",
"575 190 OFFCURVE",
"593 198 OFFCURVE",
"593 220 CURVE SMOOTH",
"593 242 OFFCURVE",
"575 250 OFFCURVE",
"563 250 CURVE SMOOTH",
"312 250 LINE SMOOTH",
"307 250 OFFCURVE",
"302 252 OFFCURVE",
"302 260 CURVE SMOOTH",
"302 268 OFFCURVE",
"307 270 OFFCURVE",
"312 270 CURVE SMOOTH",
"545 270 LINE SMOOTH",
"552 270 OFFCURVE",
"558 273 OFFCURVE",
"561 278 CURVE SMOOTH",
"565 284 OFFCURVE",
"566 291 OFFCURVE",
"563 297 CURVE SMOOTH",
"439 613 LINE SMOOTH",
"437 617 OFFCURVE",
"434 620 OFFCURVE",
"430 620 CURVE SMOOTH",
"428 620 OFFCURVE",
"427 620 OFFCURVE",
"426 619 CURVE SMOOTH",
"421 617 OFFCURVE",
"418 611 OFFCURVE",
"420 606 CURVE SMOOTH",
"545 290 LINE",
"312 290 LINE SMOOTH",
"300 290 OFFCURVE",
"282 282 OFFCURVE",
"282 260 CURVE SMOOTH",
"282 238 OFFCURVE",
"300 230 OFFCURVE",
"312 230 CURVE SMOOTH",
"563 230 LINE SMOOTH",
"568 230 OFFCURVE",
"573 228 OFFCURVE",
"573 220 CURVE SMOOTH",
"573 212 OFFCURVE",
"568 210 OFFCURVE",
"563 210 CURVE SMOOTH",
"280 210 LINE SMOOTH",
"268 210 OFFCURVE",
"250 202 OFFCURVE",
"250 180 CURVE SMOOTH",
"250 158 OFFCURVE",
"268 150 OFFCURVE",
"280 150 CURVE SMOOTH",
"600 150 LINE",
"652 17 LINE SMOOTH",
"656 8 OFFCURVE",
"665 -2 OFFCURVE",
"679 -2 CURVE SMOOTH",
"683 -2 OFFCURVE",
"687 -1 OFFCURVE",
"691 0 CURVE SMOOTH",
"712 8 OFFCURVE",
"712 28 OFFCURVE",
"708 39 CURVE SMOOTH",
"460 669 LINE SMOOTH",
"460 669 OFFCURVE",
"459 672 OFFCURVE",
"459 675 CURVE SMOOTH",
"459 677 OFFCURVE",
"460 680 OFFCURVE",
"465 682 CURVE SMOOTH",
"467 683 OFFCURVE",
"469 683 OFFCURVE",
"470 683 CURVE SMOOTH",
"475 683 OFFCURVE",
"477 680 OFFCURVE",
"478 677 CURVE SMOOTH",
"738 17 LINE SMOOTH",
"742 8 OFFCURVE",
"751 -2 OFFCURVE",
"765 -2 CURVE SMOOTH",
"769 -2 OFFCURVE",
"773 -1 OFFCURVE",
"777 0 CURVE SMOOTH",
"798 8 OFFCURVE",
"798 28 OFFCURVE",
"794 39 CURVE SMOOTH",
"491 808 LINE SMOOTH",
"488 816 OFFCURVE",
"481 821 OFFCURVE",
"473 821 CURVE SMOOTH",
"464 821 OFFCURVE",
"457 816 OFFCURVE",
"454 808 CURVE SMOOTH",
"145 25 LINE SMOOTH",
"144 22 OFFCURVE",
"142 18 OFFCURVE",
"137 18 CURVE SMOOTH",
"136 18 OFFCURVE",
"134 18 OFFCURVE",
"132 19 CURVE SMOOTH",
"125 22 OFFCURVE",
"125 28 OFFCURVE",
"127 32 CURVE SMOOTH",
"421 780 LINE SMOOTH",
"426 791 OFFCURVE",
"425 811 OFFCURVE",
"405 819 CURVE SMOOTH",
"400 821 OFFCURVE",
"396 821 OFFCURVE",
"393 821 CURVE SMOOTH"
);
}
);
width = 816;
}
);
leftKerningGroup = A;
rightKerningGroup = A;
unicode = 0041;
},
{
glyphname = B;
lastChange = "2015-06-05 10:52:29 +0000";
layers = (
{
layerId = "6FC19134-58B3-4B2A-889D-9A5D8CFAFAD6";
name = Regular;
paths = (
{
closed = 1;
nodes = (
"240 0 LINE SMOOTH",
"231 0 OFFCURVE",
"223 4 OFFCURVE",
"217 10 CURVE SMOOTH",
"211 17 OFFCURVE",
"209 26 OFFCURVE",
"210 35 CURVE SMOOTH",
"213 49 OFFCURVE",
"226 60 OFFCURVE",
"241 60 CURVE SMOOTH",
"245 60 LINE SMOOTH",
"302 60 OFFCURVE",
"359 84 OFFCURVE",
"400 125 CURVE SMOOTH",
"439 166 OFFCURVE",
"461 218 OFFCURVE",
"460 273 CURVE SMOOTH",
"459 332 OFFCURVE",
"434 387 OFFCURVE",
"390 426 CURVE SMOOTH",
"388 428 OFFCURVE",
"387 431 OFFCURVE",
"387 433 CURVE SMOOTH",
"387 436 OFFCURVE",
"387 439 OFFCURVE",
"389 441 CURVE SMOOTH",
"424 477 OFFCURVE",
"442 526 OFFCURVE",
"440 576 CURVE SMOOTH",
"436 677 OFFCURVE",
"349 760 OFFCURVE",
"245 760 CURVE SMOOTH",
"240 760 LINE SMOOTH",
"237 760 OFFCURVE",
"234 758 OFFCURVE",
"232 756 CURVE SMOOTH",
"230 754 OFFCURVE",
"230 751 OFFCURVE",
"230 748 CURVE SMOOTH",
"231 743 OFFCURVE",
"236 740 OFFCURVE",
"241 740 CURVE SMOOTH",
"246 740 LINE SMOOTH",
"292 740 OFFCURVE",
"338 720 OFFCURVE",
"371 687 CURVE SMOOTH",
"403 654 OFFCURVE",
"421 612 OFFCURVE",
"420 567 CURVE SMOOTH",
"419 513 OFFCURVE",
"392 463 OFFCURVE",
"349 432 CURVE",
"406 397 OFFCURVE",
"441 334 OFFCURVE",
"440 267 CURVE SMOOTH",
"439 164 OFFCURVE",
"351 80 OFFCURVE",
"245 80 CURVE SMOOTH",
"240 80 LINE SMOOTH",
"231 80 OFFCURVE",
"223 84 OFFCURVE",
"217 90 CURVE SMOOTH",
"211 97 OFFCURVE",
"209 106 OFFCURVE",
"210 115 CURVE SMOOTH",
"213 129 OFFCURVE",
"226 140 OFFCURVE",
"241 140 CURVE SMOOTH",
"250 140 LINE SMOOTH",
"286 140 OFFCURVE",
"319 154 OFFCURVE",
"344 180 CURVE SMOOTH",
"369 206 OFFCURVE",
"382 240 OFFCURVE",
"380 276 CURVE SMOOTH",
"377 345 OFFCURVE",
"318 400 OFFCURVE",
"246 400 CURVE SMOOTH",
"240 400 LINE SMOOTH",
"231 400 OFFCURVE",
"223 404 OFFCURVE",
"217 410 CURVE SMOOTH",
"211 417 OFFCURVE",
"209 426 OFFCURVE",
"210 435 CURVE SMOOTH",
"213 449 OFFCURVE",
"226 460 OFFCURVE",
"241 460 CURVE SMOOTH",
"250 460 LINE SMOOTH",
"280 460 OFFCURVE",
"308 471 OFFCURVE",
"328 493 CURVE SMOOTH",
"349 514 OFFCURVE",
"361 542 OFFCURVE",
"360 572 CURVE SMOOTH",
"359 631 OFFCURVE",
"308 680 OFFCURVE",
"246 680 CURVE SMOOTH",
"220 680 LINE SMOOTH",
"214 680 OFFCURVE",
"210 684 OFFCURVE",
"210 690 CURVE SMOOTH",
"210 695 OFFCURVE",
"214 700 OFFCURVE",
"220 700 CURVE SMOOTH",
"246 700 LINE SMOOTH",
"319 700 OFFCURVE",
"379 642 OFFCURVE",
"380 572 CURVE SMOOTH",
"381 537 OFFCURVE",
"367 504 OFFCURVE",
"343 479 CURVE SMOOTH",
"318 454 OFFCURVE",
"285 440 OFFCURVE",
"250 440 CURVE SMOOTH",
"241 440 LINE SMOOTH",
"236 440 OFFCURVE",
"231 436 OFFCURVE",
"230 431 CURVE SMOOTH",
"230 428 OFFCURVE",
"230 426 OFFCURVE",
"232 423 CURVE SMOOTH",
"234 421 OFFCURVE",
"237 420 OFFCURVE",
"240 420 CURVE SMOOTH",
"246 420 LINE SMOOTH",
"329 420 OFFCURVE",
"396 357 OFFCURVE",
"400 277 CURVE SMOOTH",
"402 235 OFFCURVE",
"387 196 OFFCURVE",
"359 166 CURVE SMOOTH",
"330 136 OFFCURVE",
"291 120 OFFCURVE",
"250 120 CURVE SMOOTH",
"241 120 LINE SMOOTH",
"236 120 OFFCURVE",
"231 116 OFFCURVE",
"230 111 CURVE SMOOTH",
"230 108 OFFCURVE",
"230 106 OFFCURVE",
"232 103 CURVE SMOOTH",
"234 101 OFFCURVE",
"237 100 OFFCURVE",
"240 100 CURVE SMOOTH",
"245 100 LINE SMOOTH",
"340 100 OFFCURVE",
"419 175 OFFCURVE",
"420 268 CURVE SMOOTH",
"421 333 OFFCURVE",
"384 393 OFFCURVE",
"325 422 CURVE SMOOTH",
"322 424 OFFCURVE",
"320 427 OFFCURVE",
"320 431 CURVE SMOOTH",
"320 434 OFFCURVE",
"322 438 OFFCURVE",
"325 440 CURVE SMOOTH",
"370 466 OFFCURVE",
"399 515 OFFCURVE",
"400 567 CURVE SMOOTH",
"401 606 OFFCURVE",
"385 644 OFFCURVE",
"357 673 CURVE SMOOTH",
"328 703 OFFCURVE",
"287 720 OFFCURVE",
"246 720 CURVE SMOOTH",
"241 720 LINE SMOOTH",
"226 720 OFFCURVE",
"213 730 OFFCURVE",
"210 745 CURVE SMOOTH",
"209 754 OFFCURVE",
"211 762 OFFCURVE",
"217 769 CURVE SMOOTH",
"223 776 OFFCURVE",
"231 780 OFFCURVE",
"240 780 CURVE SMOOTH",
"245 780 LINE SMOOTH",
"360 780 OFFCURVE",
"456 689 OFFCURVE",
"460 577 CURVE SMOOTH",
"462 524 OFFCURVE",
"444 474 OFFCURVE",
"411 434 CURVE",
"454 392 OFFCURVE",
"479 334 OFFCURVE",
"480 274 CURVE SMOOTH",
"481 213 OFFCURVE",
"458 155 OFFCURVE",
"414 111 CURVE SMOOTH",
"369 66 OFFCURVE",
"308 40 OFFCURVE",
"245 40 CURVE SMOOTH",
"241 40 LINE SMOOTH",
"236 40 OFFCURVE",
"231 36 OFFCURVE",
"230 31 CURVE SMOOTH",
"230 28 OFFCURVE",
"230 26 OFFCURVE",
"232 23 CURVE SMOOTH",
"234 21 OFFCURVE",
"237 20 OFFCURVE",
"240 20 CURVE SMOOTH",
"244 20 LINE SMOOTH",
"384 20 OFFCURVE",
"499 131 OFFCURVE",
"500 267 CURVE SMOOTH",
"501 327 OFFCURVE",
"480 384 OFFCURVE",
"442 430 CURVE SMOOTH",
"439 433 OFFCURVE",
"439 438 OFFCURVE",
"441 442 CURVE SMOOTH",
"468 482 OFFCURVE",
"481 528 OFFCURVE",
"480 576 CURVE SMOOTH",
"477 699 OFFCURVE",
"371 800 OFFCURVE",
"245 800 CURVE SMOOTH",
"200 800 LINE SMOOTH",
"194 800 OFFCURVE",
"190 795 OFFCURVE",
"190 790 CURVE SMOOTH",
"190 30 LINE SMOOTH",
"190 18 OFFCURVE",
"182 0 OFFCURVE",
"160 0 CURVE SMOOTH",
"138 0 OFFCURVE",
"130 18 OFFCURVE",
"130 30 CURVE SMOOTH",
"130 790 LINE",
"130 794 OFFCURVE",
"128 800 OFFCURVE",
"120 800 CURVE SMOOTH",
"112 800 OFFCURVE",
"110 794 OFFCURVE",
"110 790 CURVE SMOOTH",
"110 30 LINE SMOOTH",
"110 18 OFFCURVE",
"102 0 OFFCURVE",
"80 0 CURVE SMOOTH",
"58 0 OFFCURVE",
"50 18 OFFCURVE",
"50 30 CURVE SMOOTH",
"50 810 LINE SMOOTH",
"50 815 OFFCURVE",
"54 820 OFFCURVE",
"60 820 CURVE SMOOTH",
"66 820 OFFCURVE",
"70 815 OFFCURVE",
"70 810 CURVE SMOOTH",
"70 30 LINE SMOOTH",
"70 25 OFFCURVE",
"72 20 OFFCURVE",
"80 20 CURVE SMOOTH",
"88 20 OFFCURVE",
"90 25 OFFCURVE",
"90 30 CURVE SMOOTH",
"90 790 LINE SMOOTH",
"90 802 OFFCURVE",
"98 820 OFFCURVE",
"120 820 CURVE SMOOTH",
"142 820 OFFCURVE",
"150 802 OFFCURVE",
"150 790 CURVE SMOOTH",
"150 30 LINE SMOOTH",
"150 25 OFFCURVE",
"152 20 OFFCURVE",
"160 20 CURVE SMOOTH",
"168 20 OFFCURVE",
"170 25 OFFCURVE",
"170 30 CURVE SMOOTH",
"170 790 LINE SMOOTH",
"170 806 OFFCURVE",
"183 820 OFFCURVE",
"200 820 CURVE SMOOTH",
"245 820 LINE SMOOTH",
"382 820 OFFCURVE",
"496 711 OFFCURVE",
"500 576 CURVE SMOOTH",
"501 527 OFFCURVE",
"488 479 OFFCURVE",
"462 437 CURVE",
"500 389 OFFCURVE",
"521 329 OFFCURVE",
"520 267 CURVE SMOOTH",
"518 120 OFFCURVE",
"394 0 OFFCURVE",
"244 0 CURVE SMOOTH"
);
}
);
width = 565;
}
);
leftKerningGroup = H;
leftMetricsKey = H;
rightKerningGroup = B;
rightMetricsKey = "=H-5";
unicode = 0042;
},
{
glyphname = C;
lastChange = "2015-06-05 10:52:29 +0000";
layers = (
{
layerId = "6FC19134-58B3-4B2A-889D-9A5D8CFAFAD6";
name = Regular;
paths = (
{
closed = 1;
nodes = (
"344 -10 OFFCURVE",
"232 39 OFFCURVE",
"153 124 CURVE SMOOTH",
"73 210 OFFCURVE",
"33 322 OFFCURVE",
"41 440 CURVE SMOOTH",
"56 645 OFFCURVE",
"221 812 OFFCURVE",
"425 829 CURVE SMOOTH",
"454 831 OFFCURVE",
"483 830 OFFCURVE",
"511 827 CURVE SMOOTH",
"517 826 OFFCURVE",
"521 821 OFFCURVE",
"520 816 CURVE SMOOTH",
"519 810 OFFCURVE",
"514 806 OFFCURVE",
"509 807 CURVE SMOOTH",
"482 810 OFFCURVE",
"454 811 OFFCURVE",
"427 809 CURVE SMOOTH",
"232 793 OFFCURVE",
"75 634 OFFCURVE",
"61 439 CURVE SMOOTH",
"53 326 OFFCURVE",
"91 219 OFFCURVE",
"168 137 CURVE SMOOTH",
"243 56 OFFCURVE",
"350 10 OFFCURVE",
"460 10 CURVE SMOOTH",
"470 10 OFFCURVE",
"481 10 OFFCURVE",
"491 11 CURVE SMOOTH",
"496 12 OFFCURVE",
"500 16 OFFCURVE",
"500 21 CURVE SMOOTH",
"500 24 OFFCURVE",
"499 27 OFFCURVE",
"497 29 CURVE SMOOTH",
"495 30 OFFCURVE",
"492 31 OFFCURVE",
"490 31 CURVE SMOOTH",
"471 30 OFFCURVE",
"452 30 OFFCURVE",
"432 31 CURVE SMOOTH",
"245 44 OFFCURVE",
"94 196 OFFCURVE",
"81 383 CURVE SMOOTH",
"74 490 OFFCURVE",
"110 591 OFFCURVE",
"182 669 CURVE SMOOTH",
"254 746 OFFCURVE",
"355 790 OFFCURVE",
"460 790 CURVE SMOOTH",
"471 790 OFFCURVE",
"482 790 OFFCURVE",
"493 789 CURVE SMOOTH",
"508 787 OFFCURVE",
"520 775 OFFCURVE",
"520 759 CURVE SMOOTH",
"520 750 OFFCURVE",
"517 742 OFFCURVE",
"511 737 CURVE SMOOTH",
"504 731 OFFCURVE",
"496 728 OFFCURVE",
"488 729 CURVE SMOOTH",
"472 730 OFFCURVE",
"456 730 OFFCURVE",
"441 729 CURVE SMOOTH",
"281 720 OFFCURVE",
"152 592 OFFCURVE",
"141 433 CURVE SMOOTH",
"135 343 OFFCURVE",
"165 257 OFFCURVE",
"226 192 CURVE SMOOTH",
"287 127 OFFCURVE",
"372 90 OFFCURVE",
"460 90 CURVE SMOOTH",
"471 90 OFFCURVE",
"481 91 OFFCURVE",
"491 92 CURVE SMOOTH",
"497 92 OFFCURVE",
"500 96 OFFCURVE",
"500 101 CURVE SMOOTH",
"500 105 OFFCURVE",
"499 107 OFFCURVE",
"497 109 CURVE SMOOTH",
"495 111 OFFCURVE",
"492 112 OFFCURVE",
"490 111 CURVE SMOOTH",
"478 110 OFFCURVE",
"466 110 OFFCURVE",
"454 110 CURVE SMOOTH",
"299 113 OFFCURVE",
"170 236 OFFCURVE",
"161 391 CURVE SMOOTH",
"156 475 OFFCURVE",
"184 554 OFFCURVE",
"242 615 CURVE SMOOTH",
"298 676 OFFCURVE",
"378 710 OFFCURVE",
"460 710 CURVE SMOOTH",
"478 710 OFFCURVE",
"495 709 OFFCURVE",
"512 706 CURVE SMOOTH",
"517 705 OFFCURVE",
"521 699 OFFCURVE",
"520 694 CURVE SMOOTH",
"519 689 OFFCURVE",
"514 685 OFFCURVE",
"508 686 CURVE SMOOTH",
"493 689 OFFCURVE",
"476 690 OFFCURVE",
"460 690 CURVE SMOOTH",
"382 690 OFFCURVE",
"310 659 OFFCURVE",
"256 602 CURVE SMOOTH",
"203 545 OFFCURVE",
"176 470 OFFCURVE",
"181 392 CURVE SMOOTH",
"190 248 OFFCURVE",
"310 133 OFFCURVE",
"455 130 CURVE SMOOTH",
"465 130 OFFCURVE",
"477 130 OFFCURVE",
"488 131 CURVE SMOOTH",
"496 132 OFFCURVE",
"504 129 OFFCURVE",
"511 124 CURVE SMOOTH",
"517 118 OFFCURVE",
"520 110 OFFCURVE",
"520 102 CURVE SMOOTH",
"520 86 OFFCURVE",
"509 73 OFFCURVE",
"493 72 CURVE SMOOTH",
"482 71 OFFCURVE",
"471 70 OFFCURVE",
"460 70 CURVE SMOOTH",
"366 70 OFFCURVE",
"276 109 OFFCURVE",
"212 178 CURVE SMOOTH",
"147 248 OFFCURVE",
"114 339 OFFCURVE",
"121 434 CURVE SMOOTH",
"133 604 OFFCURVE",
"270 739 OFFCURVE",
"440 749 CURVE SMOOTH",
"456 750 OFFCURVE",
"473 750 OFFCURVE",
"490 749 CURVE SMOOTH",
"492 748 OFFCURVE",
"495 749 OFFCURVE",
"497 751 CURVE SMOOTH",
"499 753 OFFCURVE",
"500 756 OFFCURVE",
"500 758 CURVE SMOOTH",
"500 764 OFFCURVE",
"496 768 OFFCURVE",
"491 769 CURVE SMOOTH",
"481 770 OFFCURVE",
"470 770 OFFCURVE",
"460 770 CURVE SMOOTH",
"361 770 OFFCURVE",
"265 728 OFFCURVE",
"197 656 CURVE SMOOTH",
"128 582 OFFCURVE",
"94 486 OFFCURVE",
"101 384 CURVE SMOOTH",
"113 207 OFFCURVE",
"256 64 OFFCURVE",
"434 51 CURVE SMOOTH",
"452 50 OFFCURVE",
"470 50 OFFCURVE",
"488 51 CURVE SMOOTH",
"496 52 OFFCURVE",
"505 49 OFFCURVE",
"511 43 CURVE SMOOTH",
"517 38 OFFCURVE",
"520 30 OFFCURVE",
"520 21 CURVE SMOOTH",
"520 5 OFFCURVE",
"508 -8 OFFCURVE",
"492 -9 CURVE SMOOTH",
"482 -10 OFFCURVE",
"471 -10 OFFCURVE",
"460 -10 CURVE SMOOTH"
);
}
);
width = 560;
}
);
leftKerningGroup = O;
leftMetricsKey = O;
rightKerningGroup = C;
rightMetricsKey = "=H-10";
unicode = 0043;
},
{
glyphname = D;
lastChange = "2015-06-05 10:52:29 +0000";
layers = (
{
layerId = "6FC19134-58B3-4B2A-889D-9A5D8CFAFAD6";
name = Regular;
paths = (
{
closed = 1;
nodes = (
"138 0 OFFCURVE",
"130 18 OFFCURVE",
"130 30 CURVE SMOOTH",
"130 790 LINE",
"130 794 OFFCURVE",
"128 800 OFFCURVE",
"120 800 CURVE SMOOTH",
"112 800 OFFCURVE",
"110 794 OFFCURVE",
"110 790 CURVE SMOOTH",
"110 30 LINE SMOOTH",
"110 18 OFFCURVE",
"102 0 OFFCURVE",
"80 0 CURVE SMOOTH",
"58 0 OFFCURVE",
"50 18 OFFCURVE",
"50 30 CURVE SMOOTH",
"50 810 LINE SMOOTH",
"50 815 OFFCURVE",
"54 820 OFFCURVE",
"60 820 CURVE SMOOTH",
"66 820 OFFCURVE",
"70 815 OFFCURVE",
"70 810 CURVE SMOOTH",
"70 30 LINE SMOOTH",
"70 25 OFFCURVE",
"72 20 OFFCURVE",
"80 20 CURVE SMOOTH",
"88 20 OFFCURVE",
"90 25 OFFCURVE",
"90 30 CURVE SMOOTH",
"90 790 LINE SMOOTH",
"90 802 OFFCURVE",
"98 820 OFFCURVE",
"120 820 CURVE SMOOTH",
"142 820 OFFCURVE",
"150 802 OFFCURVE",
"150 790 CURVE SMOOTH",
"150 30 LINE SMOOTH",
"150 25 OFFCURVE",
"152 20 OFFCURVE",
"160 20 CURVE SMOOTH",
"168 20 OFFCURVE",
"170 25 OFFCURVE",
"170 30 CURVE SMOOTH",
"170 790 LINE SMOOTH",
"170 806 OFFCURVE",
"183 820 OFFCURVE",
"200 820 CURVE SMOOTH",
"432 820 OFFCURVE",
"620 636 OFFCURVE",
"620 410 CURVE SMOOTH",
"620 198 OFFCURVE",
"458 23 OFFCURVE",
"243 2 CURVE SMOOTH",
"234 1 OFFCURVE",
"226 4 OFFCURVE",
"220 9 CURVE SMOOTH",
"214 15 OFFCURVE",
"210 23 OFFCURVE",
"210 32 CURVE SMOOTH",
"210 47 OFFCURVE",
"221 60 OFFCURVE",
"237 61 CURVE SMOOTH",
"421 80 OFFCURVE",
"560 229 OFFCURVE",
"560 410 CURVE SMOOTH",
"560 588 OFFCURVE",
"423 737 OFFCURVE",
"241 757 CURVE SMOOTH",
"238 758 OFFCURVE",
"235 757 OFFCURVE",
"233 755 CURVE SMOOTH",
"231 753 OFFCURVE",
"230 751 OFFCURVE",
"230 748 CURVE SMOOTH",
"230 742 OFFCURVE",
"234 738 OFFCURVE",
"239 738 CURVE SMOOTH",
"410 719 OFFCURVE",
"540 578 OFFCURVE",
"540 410 CURVE SMOOTH",
"540 244 OFFCURVE",
"413 103 OFFCURVE",
"243 82 CURVE SMOOTH",
"235 81 OFFCURVE",
"226 84 OFFCURVE",
"220 90 CURVE SMOOTH",
"214 95 OFFCURVE",
"210 103 OFFCURVE",
"210 112 CURVE SMOOTH",
"210 127 OFFCURVE",
"221 140 OFFCURVE",
"236 142 CURVE SMOOTH",
"375 159 OFFCURVE",
"480 274 OFFCURVE",
"480 410 CURVE SMOOTH",
"480 551 OFFCURVE",
"366 669 OFFCURVE",
"219 679 CURVE SMOOTH",
"214 679 OFFCURVE",
"210 684 OFFCURVE",
"210 690 CURVE SMOOTH",
"210 695 OFFCURVE",
"215 699 OFFCURVE",
"221 699 CURVE SMOOTH",
"377 689 OFFCURVE",
"500 562 OFFCURVE",
"500 410 CURVE SMOOTH",
"500 264 OFFCURVE",
"388 140 OFFCURVE",
"238 122 CURVE SMOOTH",
"234 121 OFFCURVE",
"230 117 OFFCURVE",
"230 112 CURVE SMOOTH",
"230 109 OFFCURVE",
"231 107 OFFCURVE",
"233 105 CURVE SMOOTH",
"235 103 OFFCURVE",
"238 102 OFFCURVE",
"241 102 CURVE SMOOTH",
"400 122 OFFCURVE",
"520 254 OFFCURVE",
"520 410 CURVE SMOOTH",
"520 568 OFFCURVE",
"398 700 OFFCURVE",
"236 718 CURVE SMOOTH",
"221 719 OFFCURVE",
"210 732 OFFCURVE",
"210 747 CURVE SMOOTH",
"210 756 OFFCURVE",
"214 764 OFFCURVE",
"220 770 CURVE SMOOTH",
"226 776 OFFCURVE",
"235 778 OFFCURVE",
"243 777 CURVE SMOOTH",
"435 756 OFFCURVE",
"580 598 OFFCURVE",
"580 410 CURVE SMOOTH",
"580 219 OFFCURVE",
"433 61 OFFCURVE",
"238 42 CURVE SMOOTH",
"234 41 OFFCURVE",
"230 37 OFFCURVE",
"230 32 CURVE SMOOTH",
"230 29 OFFCURVE",
"231 26 OFFCURVE",
"233 24 CURVE SMOOTH",
"235 22 OFFCURVE",
"238 21 OFFCURVE",
"241 22 CURVE SMOOTH",
"446 42 OFFCURVE",
"600 209 OFFCURVE",
"600 410 CURVE SMOOTH",
"600 625 OFFCURVE",
"421 800 OFFCURVE",
"200 800 CURVE SMOOTH",
"194 800 OFFCURVE",
"190 795 OFFCURVE",
"190 790 CURVE SMOOTH",
"190 30 LINE SMOOTH",
"190 18 OFFCURVE",
"182 0 OFFCURVE",
"160 0 CURVE SMOOTH"
);
}
);
width = 660;
}
);
leftKerningGroup = H;
leftMetricsKey = H;
rightKerningGroup = O;
rightMetricsKey = O;
unicode = 0044;
},
{
glyphname = E;
lastChange = "2015-06-05 09:59:34 +0000";
layers = (
{
layerId = "6FC19134-58B3-4B2A-889D-9A5D8CFAFAD6";
name = Regular;
paths = (
{
closed = 1;
nodes = (
"180 820 LINE SMOOTH",
"174 820 OFFCURVE",
"170 816 OFFCURVE",
"170 810 CURVE SMOOTH",
"170 804 OFFCURVE",
"174 800 OFFCURVE",
"180 800 CURVE SMOOTH",
"500 800 LINE SMOOTH",
"504 800 OFFCURVE",
"510 798 OFFCURVE",
"510 790 CURVE SMOOTH",
"510 782 OFFCURVE",
"504 780 OFFCURVE",
"500 780 CURVE SMOOTH",
"200 780 LINE SMOOTH",
"188 780 OFFCURVE",
"170 772 OFFCURVE",
"170 750 CURVE SMOOTH",
"170 728 OFFCURVE",
"188 720 OFFCURVE",
"200 720 CURVE SMOOTH",
"500 720 LINE SMOOTH",
"504 720 OFFCURVE",
"510 718 OFFCURVE",
"510 710 CURVE SMOOTH",
"510 702 OFFCURVE",
"504 700 OFFCURVE",
"500 700 CURVE SMOOTH",
"200 700 LINE SMOOTH",
"183 700 OFFCURVE",
"170 687 OFFCURVE",
"170 670 CURVE SMOOTH",
"170 490 LINE SMOOTH",
"170 473 OFFCURVE",
"183 460 OFFCURVE",
"200 460 CURVE SMOOTH",
"420 460 LINE SMOOTH",
"424 460 OFFCURVE",
"430 458 OFFCURVE",
"430 450 CURVE SMOOTH",
"430 442 OFFCURVE",
"424 440 OFFCURVE",
"420 440 CURVE SMOOTH",
"200 440 LINE SMOOTH",
"188 440 OFFCURVE",
"170 432 OFFCURVE",
"170 410 CURVE SMOOTH",
"170 388 OFFCURVE",
"188 380 OFFCURVE",
"200 380 CURVE SMOOTH",
"420 380 LINE SMOOTH",
"424 380 OFFCURVE",
"430 378 OFFCURVE",
"430 370 CURVE SMOOTH",
"430 362 OFFCURVE",
"424 360 OFFCURVE",
"420 360 CURVE SMOOTH",
"200 360 LINE SMOOTH",
"183 360 OFFCURVE",
"170 347 OFFCURVE",
"170 330 CURVE SMOOTH",
"170 150 LINE SMOOTH",
"170 133 OFFCURVE",
"183 120 OFFCURVE",
"200 120 CURVE SMOOTH",
"500 120 LINE SMOOTH",
"504 120 OFFCURVE",
"510 118 OFFCURVE",
"510 110 CURVE SMOOTH",
"510 102 OFFCURVE",
"504 100 OFFCURVE",
"500 100 CURVE SMOOTH",
"200 100 LINE SMOOTH",
"188 100 OFFCURVE",
"170 92 OFFCURVE",
"170 70 CURVE SMOOTH",
"170 48 OFFCURVE",
"188 40 OFFCURVE",
"200 40 CURVE SMOOTH",
"500 40 LINE SMOOTH",
"504 40 OFFCURVE",
"510 38 OFFCURVE",
"510 30 CURVE SMOOTH",
"510 22 OFFCURVE",
"504 20 OFFCURVE",
"500 20 CURVE SMOOTH",
"160 20 LINE SMOOTH",
"152 20 OFFCURVE",
"150 25 OFFCURVE",
"150 30 CURVE",
"150 790 LINE SMOOTH",
"150 802 OFFCURVE",
"142 820 OFFCURVE",
"120 820 CURVE SMOOTH",
"98 820 OFFCURVE",
"90 802 OFFCURVE",
"90 790 CURVE SMOOTH",
"90 30 LINE SMOOTH",
"90 25 OFFCURVE",
"88 20 OFFCURVE",
"80 20 CURVE SMOOTH",
"72 20 OFFCURVE",
"70 25 OFFCURVE",
"70 30 CURVE",
"70 810 LINE SMOOTH",
"70 816 OFFCURVE",
"66 820 OFFCURVE",
"60 820 CURVE SMOOTH",
"54 820 OFFCURVE",
"50 816 OFFCURVE",
"50 810 CURVE SMOOTH",
"50 30 LINE SMOOTH",
"50 18 OFFCURVE",
"58 0 OFFCURVE",
"80 0 CURVE SMOOTH",
"102 0 OFFCURVE",
"110 18 OFFCURVE",
"110 30 CURVE SMOOTH",
"110 790 LINE SMOOTH",
"110 794 OFFCURVE",
"112 800 OFFCURVE",
"120 800 CURVE SMOOTH",
"128 800 OFFCURVE",
"130 794 OFFCURVE",
"130 790 CURVE SMOOTH",
"130 30 LINE SMOOTH",
"130 18 OFFCURVE",
"138 0 OFFCURVE",
"160 0 CURVE SMOOTH",
"500 0 LINE SMOOTH",
"512 0 OFFCURVE",
"530 8 OFFCURVE",
"530 30 CURVE SMOOTH",
"530 52 OFFCURVE",
"512 60 OFFCURVE",
"500 60 CURVE SMOOTH",
"200 60 LINE SMOOTH",
"196 60 OFFCURVE",
"190 62 OFFCURVE",
"190 70 CURVE SMOOTH",
"190 78 OFFCURVE",
"196 80 OFFCURVE",
"200 80 CURVE SMOOTH",
"500 80 LINE SMOOTH",
"512 80 OFFCURVE",
"530 88 OFFCURVE",
"530 110 CURVE SMOOTH",
"530 132 OFFCURVE",
"512 140 OFFCURVE",
"500 140 CURVE SMOOTH",
"200 140 LINE SMOOTH",
"194 140 OFFCURVE",
"190 144 OFFCURVE",
"190 150 CURVE SMOOTH",
"190 330 LINE SMOOTH",
"190 336 OFFCURVE",
"194 340 OFFCURVE",
"200 340 CURVE SMOOTH",
"420 340 LINE SMOOTH",
"432 340 OFFCURVE",
"450 348 OFFCURVE",
"450 370 CURVE SMOOTH",
"450 392 OFFCURVE",
"432 400 OFFCURVE",
"420 400 CURVE SMOOTH",
"200 400 LINE SMOOTH",
"196 400 OFFCURVE",
"190 402 OFFCURVE",
"190 410 CURVE SMOOTH",
"190 418 OFFCURVE",
"196 420 OFFCURVE",
"200 420 CURVE SMOOTH",
"420 420 LINE SMOOTH",
"432 420 OFFCURVE",
"450 428 OFFCURVE",
"450 450 CURVE SMOOTH",
"450 472 OFFCURVE",
"432 480 OFFCURVE",
"420 480 CURVE SMOOTH",
"200 480 LINE SMOOTH",
"194 480 OFFCURVE",
"190 484 OFFCURVE",
"190 490 CURVE SMOOTH",
"190 670 LINE SMOOTH",
"190 676 OFFCURVE",
"194 680 OFFCURVE",
"200 680 CURVE SMOOTH",
"500 680 LINE SMOOTH",
"512 680 OFFCURVE",
"530 688 OFFCURVE",
"530 710 CURVE SMOOTH",
"530 732 OFFCURVE",
"512 740 OFFCURVE",
"500 740 CURVE SMOOTH",
"200 740 LINE SMOOTH",
"196 740 OFFCURVE",
"190 742 OFFCURVE",
"190 750 CURVE SMOOTH",
"190 758 OFFCURVE",
"196 760 OFFCURVE",
"200 760 CURVE SMOOTH",
"500 760 LINE SMOOTH",
"512 760 OFFCURVE",
"530 768 OFFCURVE",
"530 790 CURVE SMOOTH",
"530 812 OFFCURVE",
"512 820 OFFCURVE",
"500 820 CURVE SMOOTH"
);
}
);
width = 580;
}
);
leftKerningGroup = H;
leftMetricsKey = H;
rightKerningGroup = E;
rightMetricsKey = H;
unicode = 0045;
},
{
glyphname = F;
lastChange = "2015-06-05 10:52:21 +0000";
layers = (
{
layerId = "6FC19134-58B3-4B2A-889D-9A5D8CFAFAD6";
name = Regular;
paths = (
{
closed = 1;
nodes = (
"180 820 LINE SMOOTH",
"174 820 OFFCURVE",
"170 816 OFFCURVE",
"170 810 CURVE SMOOTH",
"170 804 OFFCURVE",
"174 800 OFFCURVE",
"180 800 CURVE SMOOTH",
"500 800 LINE SMOOTH",
"504 800 OFFCURVE",
"510 798 OFFCURVE",
"510 790 CURVE SMOOTH",
"510 782 OFFCURVE",
"504 780 OFFCURVE",
"500 780 CURVE SMOOTH",
"200 780 LINE SMOOTH",
"188 780 OFFCURVE",
"170 772 OFFCURVE",
"170 750 CURVE SMOOTH",
"170 728 OFFCURVE",
"188 720 OFFCURVE",
"200 720 CURVE SMOOTH",
"500 720 LINE SMOOTH",
"504 720 OFFCURVE",
"510 718 OFFCURVE",
"510 710 CURVE SMOOTH",
"510 702 OFFCURVE",
"504 700 OFFCURVE",
"500 700 CURVE SMOOTH",
"200 700 LINE SMOOTH",
"183 700 OFFCURVE",
"170 687 OFFCURVE",
"170 670 CURVE SMOOTH",
"170 490 LINE SMOOTH",
"170 473 OFFCURVE",
"183 460 OFFCURVE",
"200 460 CURVE SMOOTH",
"420 460 LINE SMOOTH",
"424 460 OFFCURVE",
"430 458 OFFCURVE",
"430 450 CURVE SMOOTH",
"430 442 OFFCURVE",
"424 440 OFFCURVE",
"420 440 CURVE SMOOTH",
"200 440 LINE SMOOTH",
"188 440 OFFCURVE",
"170 432 OFFCURVE",
"170 410 CURVE SMOOTH",
"170 388 OFFCURVE",
"188 380 OFFCURVE",
"200 380 CURVE SMOOTH",
"420 380 LINE SMOOTH",
"424 380 OFFCURVE",
"430 378 OFFCURVE",
"430 370 CURVE SMOOTH",
"430 362 OFFCURVE",
"424 360 OFFCURVE",
"420 360 CURVE SMOOTH",
"200 360 LINE SMOOTH",
"183 360 OFFCURVE",
"170 347 OFFCURVE",
"170 330 CURVE SMOOTH",
"170 30 LINE SMOOTH",
"170 25 OFFCURVE",
"168 20 OFFCURVE",
"160 20 CURVE SMOOTH",
"152 20 OFFCURVE",
"150 25 OFFCURVE",
"150 30 CURVE",
"150 790 LINE SMOOTH",
"150 802 OFFCURVE",
"142 820 OFFCURVE",
"120 820 CURVE SMOOTH",
"98 820 OFFCURVE",
"90 802 OFFCURVE",
"90 790 CURVE SMOOTH",
"90 30 LINE SMOOTH",
"90 25 OFFCURVE",
"88 20 OFFCURVE",
"80 20 CURVE SMOOTH",
"72 20 OFFCURVE",
"70 25 OFFCURVE",
"70 30 CURVE",
"70 810 LINE SMOOTH",
"70 816 OFFCURVE",
"66 820 OFFCURVE",
"60 820 CURVE SMOOTH",
"54 820 OFFCURVE",
"50 816 OFFCURVE",
"50 810 CURVE SMOOTH",
"50 30 LINE SMOOTH",
"50 18 OFFCURVE",
"58 0 OFFCURVE",
"80 0 CURVE SMOOTH",
"102 0 OFFCURVE",
"110 18 OFFCURVE",
"110 30 CURVE SMOOTH",
"110 790 LINE SMOOTH",
"110 794 OFFCURVE",
"112 800 OFFCURVE",
"120 800 CURVE SMOOTH",
"128 800 OFFCURVE",
"130 794 OFFCURVE",
"130 790 CURVE SMOOTH",
"130 30 LINE SMOOTH",
"130 18 OFFCURVE",
"138 0 OFFCURVE",
"160 0 CURVE SMOOTH",
"182 0 OFFCURVE",
"190 18 OFFCURVE",
"190 30 CURVE SMOOTH",
"190 330 LINE SMOOTH",
"190 336 OFFCURVE",
"194 340 OFFCURVE",
"200 340 CURVE SMOOTH",
"420 340 LINE SMOOTH",
"432 340 OFFCURVE",
"450 348 OFFCURVE",
"450 370 CURVE SMOOTH",
"450 392 OFFCURVE",
"432 400 OFFCURVE",
"420 400 CURVE SMOOTH",
"200 400 LINE SMOOTH",
"196 400 OFFCURVE",
"190 402 OFFCURVE",
"190 410 CURVE SMOOTH",
"190 418 OFFCURVE",
"196 420 OFFCURVE",
"200 420 CURVE SMOOTH",
"420 420 LINE SMOOTH",
"432 420 OFFCURVE",
"450 428 OFFCURVE",
"450 450 CURVE SMOOTH",
"450 472 OFFCURVE",
"432 480 OFFCURVE",
"420 480 CURVE SMOOTH",
"200 480 LINE SMOOTH",
"194 480 OFFCURVE",
"190 484 OFFCURVE",
"190 490 CURVE SMOOTH",
"190 670 LINE SMOOTH",
"190 676 OFFCURVE",
"194 680 OFFCURVE",
"200 680 CURVE SMOOTH",
"500 680 LINE SMOOTH",
"512 680 OFFCURVE",
"530 688 OFFCURVE",
"530 710 CURVE SMOOTH",
"530 732 OFFCURVE",
"512 740 OFFCURVE",
"500 740 CURVE SMOOTH",
"200 740 LINE SMOOTH",
"196 740 OFFCURVE",
"190 742 OFFCURVE",
"190 750 CURVE SMOOTH",
"190 758 OFFCURVE",
"196 760 OFFCURVE",
"200 760 CURVE SMOOTH",
"500 760 LINE SMOOTH",
"512 760 OFFCURVE",
"530 768 OFFCURVE",
"530 790 CURVE SMOOTH",
"530 812 OFFCURVE",
"512 820 OFFCURVE",
"500 820 CURVE SMOOTH"
);
}
);
width = 580;
}
);
leftKerningGroup = H;
leftMetricsKey = H;
rightKerningGroup = F;
rightMetricsKey = E;
unicode = 0046;
},
{
glyphname = G;
lastChange = "2015-06-05 07:50:43 +0000";
layers = (
{
layerId = "6FC19134-58B3-4B2A-889D-9A5D8CFAFAD6";
name = Regular;
paths = (
{
closed = 1;
nodes = (
"349 -10 OFFCURVE",
"244 33 OFFCURVE",
"164 112 CURVE SMOOTH",
"84 192 OFFCURVE",
"40 298 OFFCURVE",
"40 410 CURVE SMOOTH",
"40 641 OFFCURVE",
"228 830 OFFCURVE",
"460 830 CURVE SMOOTH",
"539 830 OFFCURVE",
"616 808 OFFCURVE",
"683 766 CURVE SMOOTH",
"690 761 OFFCURVE",
"695 754 OFFCURVE",
"697 746 CURVE SMOOTH",
"698 738 OFFCURVE",
"696 730 OFFCURVE",
"692 723 CURVE SMOOTH",
"682 710 OFFCURVE",
"665 706 OFFCURVE",
"651 715 CURVE SMOOTH",
"586 756 OFFCURVE",
"511 774 OFFCURVE",
"434 769 CURVE SMOOTH",
"256 756 OFFCURVE",
"113 613 OFFCURVE",
"101 435 CURVE SMOOTH",
"94 334 OFFCURVE",
"128 238 OFFCURVE",
"197 164 CURVE SMOOTH",
"265 91 OFFCURVE",
"361 50 OFFCURVE",
"460 50 CURVE SMOOTH",
"526 50 OFFCURVE",
"590 67 OFFCURVE",
"645 101 CURVE SMOOTH",
"648 103 OFFCURVE",
"650 106 OFFCURVE",
"650 110 CURVE SMOOTH",
"650 360 LINE",
"650 364 OFFCURVE",
"648 370 OFFCURVE",
"640 370 CURVE SMOOTH",
"632 370 OFFCURVE",
"630 364 OFFCURVE",
"630 360 CURVE SMOOTH",
"630 133 LINE SMOOTH",
"630 122 OFFCURVE",
"624 112 OFFCURVE",
"614 106 CURVE SMOOTH",
"558 78 OFFCURVE",
"494 66 OFFCURVE",
"430 71 CURVE SMOOTH",
"265 85 OFFCURVE",
"132 220 OFFCURVE",
"121 386 CURVE SMOOTH",
"114 481 OFFCURVE",
"146 572 OFFCURVE",
"211 642 CURVE SMOOTH",
"276 710 OFFCURVE",
"366 750 OFFCURVE",
"460 750 CURVE SMOOTH",
"523 750 OFFCURVE",
"584 733 OFFCURVE",
"637 700 CURVE SMOOTH",
"644 696 OFFCURVE",
"649 689 OFFCURVE",
"651 681 CURVE SMOOTH",
"652 673 OFFCURVE",
"650 664 OFFCURVE",
"646 658 CURVE SMOOTH",
"637 644 OFFCURVE",
"619 641 OFFCURVE",
"606 649 CURVE SMOOTH",
"559 677 OFFCURVE",
"506 691 OFFCURVE",
"451 690 CURVE SMOOTH",
"308 685 OFFCURVE",
"189 570 OFFCURVE",
"181 428 CURVE SMOOTH",
"176 349 OFFCURVE",
"202 275 OFFCURVE",
"256 218 CURVE SMOOTH",
"309 161 OFFCURVE",
"382 130 OFFCURVE",
"460 130 CURVE SMOOTH",
"496 130 OFFCURVE",
"531 136 OFFCURVE",
"564 150 CURVE SMOOTH",
"568 151 OFFCURVE",
"570 155 OFFCURVE",
"570 159 CURVE",
"570 380 LINE",
"570 385 OFFCURVE",
"574 390 OFFCURVE",
"580 390 CURVE SMOOTH",
"586 390 OFFCURVE",
"590 385 OFFCURVE",
"590 380 CURVE SMOOTH",
"590 159 LINE SMOOTH",
"590 147 OFFCURVE",
"583 136 OFFCURVE",
"572 131 CURVE SMOOTH",
"536 117 OFFCURVE",
"499 110 OFFCURVE",
"460 110 CURVE SMOOTH",
"378 110 OFFCURVE",
"298 144 OFFCURVE",
"241 204 CURVE SMOOTH",
"184 265 OFFCURVE",
"155 345 OFFCURVE",
"161 429 CURVE SMOOTH",
"170 582 OFFCURVE",
"297 705 OFFCURVE",
"451 710 CURVE SMOOTH",
"509 711 OFFCURVE",
"566 696 OFFCURVE",
"616 666 CURVE SMOOTH",
"620 663 OFFCURVE",
"626 664 OFFCURVE",
"629 669 CURVE SMOOTH",
"631 671 OFFCURVE",
"632 674 OFFCURVE",
"631 677 CURVE SMOOTH",
"630 679 OFFCURVE",
"629 682 OFFCURVE",
"627 683 CURVE SMOOTH",
"576 714 OFFCURVE",
"519 730 OFFCURVE",
"460 730 CURVE SMOOTH",
"372 730 OFFCURVE",
"286 693 OFFCURVE",
"226 628 CURVE SMOOTH",
"165 562 OFFCURVE",
"135 477 OFFCURVE",
"141 387 CURVE SMOOTH",
"152 231 OFFCURVE",
"277 104 OFFCURVE",
"432 91 CURVE SMOOTH",
"492 86 OFFCURVE",
"552 97 OFFCURVE",
"605 124 CURVE SMOOTH",
"608 126 OFFCURVE",
"610 129 OFFCURVE",
"610 133 CURVE SMOOTH",
"610 360 LINE SMOOTH",
"610 372 OFFCURVE",
"618 390 OFFCURVE",
"640 390 CURVE SMOOTH",
"662 390 OFFCURVE",
"670 372 OFFCURVE",
"670 360 CURVE SMOOTH",
"670 110 LINE SMOOTH",
"670 99 OFFCURVE",
"665 89 OFFCURVE",
"656 84 CURVE SMOOTH",
"597 48 OFFCURVE",
"529 30 OFFCURVE",
"460 30 CURVE SMOOTH",
"355 30 OFFCURVE",
"254 74 OFFCURVE",
"182 151 CURVE SMOOTH",
"110 228 OFFCURVE",
"74 330 OFFCURVE",
"81 437 CURVE SMOOTH",
"94 624 OFFCURVE",
"245 775 OFFCURVE",
"432 789 CURVE SMOOTH",
"514 795 OFFCURVE",
"593 775 OFFCURVE",
"662 732 CURVE SMOOTH",
"666 729 OFFCURVE",
"672 730 OFFCURVE",
"675 734 CURVE SMOOTH",
"677 737 OFFCURVE",
"677 740 OFFCURVE",
"677 742 CURVE SMOOTH",
"676 745 OFFCURVE",
"675 747 OFFCURVE",
"673 749 CURVE SMOOTH",
"609 789 OFFCURVE",
"535 810 OFFCURVE",
"460 810 CURVE SMOOTH",
"239 810 OFFCURVE",
"60 630 OFFCURVE",
"60 410 CURVE SMOOTH",
"60 303 OFFCURVE",
"102 202 OFFCURVE",
"178 126 CURVE SMOOTH",
"254 51 OFFCURVE",
"355 10 OFFCURVE",
"462 10 CURVE SMOOTH",
"542 10 OFFCURVE",
"620 34 OFFCURVE",
"686 79 CURVE SMOOTH",
"688 81 OFFCURVE",
"690 84 OFFCURVE",
"690 88 CURVE SMOOTH",
"690 380 LINE SMOOTH",
"690 385 OFFCURVE",
"694 390 OFFCURVE",
"700 390 CURVE SMOOTH",
"706 390 OFFCURVE",
"710 385 OFFCURVE",
"710 380 CURVE SMOOTH",
"710 88 LINE SMOOTH",
"710 78 OFFCURVE",
"705 69 OFFCURVE",
"697 63 CURVE SMOOTH",
"628 15 OFFCURVE",
"547 -10 OFFCURVE",
"462 -10 CURVE SMOOTH",
"461 -10 OFFCURVE",
"461 -10 OFFCURVE",
"460 -10 CURVE SMOOTH"
);
}
);
width = 755;
}
);
leftKerningGroup = O;
leftMetricsKey = O;
rightKerningGroup = G;
rightMetricsKey = "=H-5";
unicode = 0047;
},
{
glyphname = H;
lastChange = "2015-06-05 00:34:22 +0000";
layers = (
{
layerId = "6FC19134-58B3-4B2A-889D-9A5D8CFAFAD6";
name = Regular;
paths = (
{
closed = 1;
nodes = (
"694 820 OFFCURVE",
"690 816 OFFCURVE",
"690 810 CURVE SMOOTH",
"690 30 LINE SMOOTH",
"690 25 OFFCURVE",
"688 20 OFFCURVE",
"680 20 CURVE SMOOTH",
"672 20 OFFCURVE",
"670 25 OFFCURVE",
"670 30 CURVE",
"670 790 LINE SMOOTH",
"670 802 OFFCURVE",
"662 820 OFFCURVE",
"640 820 CURVE SMOOTH",
"618 820 OFFCURVE",
"610 802 OFFCURVE",
"610 790 CURVE SMOOTH",
"610 30 LINE SMOOTH",
"610 25 OFFCURVE",
"608 20 OFFCURVE",
"600 20 CURVE SMOOTH",
"592 20 OFFCURVE",
"590 25 OFFCURVE",
"590 30 CURVE",
"590 330 LINE SMOOTH",
"590 347 OFFCURVE",
"577 360 OFFCURVE",
"560 360 CURVE SMOOTH",
"240 360 LINE SMOOTH",
"236 360 OFFCURVE",
"230 362 OFFCURVE",
"230 370 CURVE SMOOTH",
"230 378 OFFCURVE",
"236 380 OFFCURVE",
"240 380 CURVE SMOOTH",
"560 380 LINE SMOOTH",
"572 380 OFFCURVE",
"590 388 OFFCURVE",
"590 410 CURVE SMOOTH",
"590 432 OFFCURVE",
"572 440 OFFCURVE",
"560 440 CURVE SMOOTH",
"240 440 LINE SMOOTH",
"236 440 OFFCURVE",
"230 442 OFFCURVE",
"230 450 CURVE SMOOTH",
"230 458 OFFCURVE",
"236 460 OFFCURVE",
"240 460 CURVE SMOOTH",
"560 460 LINE SMOOTH",
"577 460 OFFCURVE",
"590 473 OFFCURVE",
"590 490 CURVE SMOOTH",
"590 810 LINE SMOOTH",
"590 816 OFFCURVE",
"586 820 OFFCURVE",
"580 820 CURVE SMOOTH",
"574 820 OFFCURVE",
"570 816 OFFCURVE",
"570 810 CURVE SMOOTH",
"570 490 LINE SMOOTH",
"570 484 OFFCURVE",
"566 480 OFFCURVE",
"560 480 CURVE SMOOTH",
"240 480 LINE SMOOTH",
"228 480 OFFCURVE",
"210 472 OFFCURVE",
"210 450 CURVE SMOOTH",
"210 428 OFFCURVE",
"228 420 OFFCURVE",
"240 420 CURVE SMOOTH",
"560 420 LINE SMOOTH",
"564 420 OFFCURVE",
"570 418 OFFCURVE",
"570 410 CURVE SMOOTH",
"570 402 OFFCURVE",
"564 400 OFFCURVE",
"560 400 CURVE SMOOTH",
"240 400 LINE SMOOTH",
"228 400 OFFCURVE",
"210 392 OFFCURVE",
"210 370 CURVE SMOOTH",
"210 348 OFFCURVE",
"228 340 OFFCURVE",
"240 340 CURVE SMOOTH",
"560 340 LINE SMOOTH",
"566 340 OFFCURVE",
"570 336 OFFCURVE",
"570 330 CURVE SMOOTH",
"570 30 LINE SMOOTH",
"570 18 OFFCURVE",
"578 0 OFFCURVE",
"600 0 CURVE SMOOTH",
"622 0 OFFCURVE",
"630 18 OFFCURVE",
"630 30 CURVE SMOOTH",
"630 790 LINE SMOOTH",
"630 794 OFFCURVE",
"632 800 OFFCURVE",
"640 800 CURVE SMOOTH",
"648 800 OFFCURVE",
"650 794 OFFCURVE",
"650 790 CURVE SMOOTH",
"650 30 LINE SMOOTH",
"650 18 OFFCURVE",
"658 0 OFFCURVE",
"680 0 CURVE SMOOTH",
"702 0 OFFCURVE",
"710 18 OFFCURVE",
"710 30 CURVE SMOOTH",
"710 810 LINE SMOOTH",
"710 816 OFFCURVE",
"706 820 OFFCURVE",
"700 820 CURVE SMOOTH"
);
},
{
closed = 1;
nodes = (
"174 820 OFFCURVE",
"170 816 OFFCURVE",
"170 810 CURVE SMOOTH",
"170 30 LINE SMOOTH",
"170 25 OFFCURVE",
"168 20 OFFCURVE",
"160 20 CURVE SMOOTH",
"152 20 OFFCURVE",
"150 25 OFFCURVE",
"150 30 CURVE",
"150 790 LINE SMOOTH",
"150 802 OFFCURVE",
"142 820 OFFCURVE",
"120 820 CURVE SMOOTH",
"98 820 OFFCURVE",
"90 802 OFFCURVE",
"90 790 CURVE SMOOTH",
"90 30 LINE SMOOTH",
"90 25 OFFCURVE",
"88 20 OFFCURVE",
"80 20 CURVE SMOOTH",
"72 20 OFFCURVE",
"70 25 OFFCURVE",
"70 30 CURVE",
"70 810 LINE SMOOTH",
"70 816 OFFCURVE",
"66 820 OFFCURVE",
"60 820 CURVE SMOOTH",
"54 820 OFFCURVE",
"50 816 OFFCURVE",
"50 810 CURVE SMOOTH",
"50 30 LINE SMOOTH",
"50 18 OFFCURVE",
"58 0 OFFCURVE",
"80 0 CURVE SMOOTH",
"102 0 OFFCURVE",
"110 18 OFFCURVE",
"110 30 CURVE SMOOTH",
"110 790 LINE SMOOTH",
"110 794 OFFCURVE",
"112 800 OFFCURVE",
"120 800 CURVE SMOOTH",
"128 800 OFFCURVE",
"130 794 OFFCURVE",
"130 790 CURVE SMOOTH",
"130 30 LINE SMOOTH",
"130 18 OFFCURVE",
"138 0 OFFCURVE",
"160 0 CURVE SMOOTH",
"182 0 OFFCURVE",
"190 18 OFFCURVE",
"190 30 CURVE SMOOTH",
"190 810 LINE SMOOTH",
"190 816 OFFCURVE",
"186 820 OFFCURVE",
"180 820 CURVE SMOOTH"
);
}
);
width = 760;
}
);
leftKerningGroup = H;
rightKerningGroup = H;
unicode = 0048;
},
{
glyphname = I;
lastChange = "2015-06-05 10:52:29 +0000";
layers = (
{
layerId = "6FC19134-58B3-4B2A-889D-9A5D8CFAFAD6";
name = Regular;
paths = (
{
closed = 1;
nodes = (
"174 820 OFFCURVE",
"170 816 OFFCURVE",
"170 810 CURVE SMOOTH",
"170 30 LINE SMOOTH",
"170 25 OFFCURVE",
"168 20 OFFCURVE",
"160 20 CURVE SMOOTH",
"152 20 OFFCURVE",
"150 25 OFFCURVE",
"150 30 CURVE",
"150 790 LINE SMOOTH",
"150 802 OFFCURVE",
"142 820 OFFCURVE",
"120 820 CURVE SMOOTH",
"98 820 OFFCURVE",
"90 802 OFFCURVE",
"90 790 CURVE SMOOTH",
"90 30 LINE SMOOTH",
"90 25 OFFCURVE",
"88 20 OFFCURVE",
"80 20 CURVE SMOOTH",
"72 20 OFFCURVE",
"70 25 OFFCURVE",
"70 30 CURVE",
"70 810 LINE SMOOTH",
"70 816 OFFCURVE",
"66 820 OFFCURVE",
"60 820 CURVE SMOOTH",
"54 820 OFFCURVE",
"50 816 OFFCURVE",
"50 810 CURVE SMOOTH",
"50 30 LINE SMOOTH",
"50 18 OFFCURVE",
"58 0 OFFCURVE",
"80 0 CURVE SMOOTH",
"102 0 OFFCURVE",
"110 18 OFFCURVE",
"110 30 CURVE SMOOTH",
"110 790 LINE SMOOTH",
"110 794 OFFCURVE",
"112 800 OFFCURVE",
"120 800 CURVE SMOOTH",
"128 800 OFFCURVE",
"130 794 OFFCURVE",
"130 790 CURVE SMOOTH",
"130 30 LINE SMOOTH",
"130 18 OFFCURVE",
"138 0 OFFCURVE",
"160 0 CURVE SMOOTH",
"182 0 OFFCURVE",
"190 18 OFFCURVE",
"190 30 CURVE SMOOTH",
"190 810 LINE SMOOTH",
"190 816 OFFCURVE",
"186 820 OFFCURVE",
"180 820 CURVE SMOOTH"
);
}
);
width = 240;
}
);
leftKerningGroup = H;
leftMetricsKey = H;
rightKerningGroup = H;
rightMetricsKey = H;
unicode = 0049;
},
{
glyphname = J;
lastChange = "2015-06-05 07:51:55 +0000";
layers = (
{
layerId = "6FC19134-58B3-4B2A-889D-9A5D8CFAFAD6";
name = Regular;
paths = (
{
closed = 1;
nodes = (
"30 0 LINE SMOOTH",
"18 0 OFFCURVE",
"0 8 OFFCURVE",
"0 30 CURVE SMOOTH",
"0 52 OFFCURVE",
"18 60 OFFCURVE",
"30 60 CURVE SMOOTH",
"150 60 LINE SMOOTH",
"227 60 OFFCURVE",
"290 123 OFFCURVE",
"290 200 CURVE SMOOTH",
"290 790 LINE",
"290 794 OFFCURVE",
"288 800 OFFCURVE",
"280 800 CURVE SMOOTH",
"272 800 OFFCURVE",
"270 794 OFFCURVE",
"270 790 CURVE SMOOTH",
"270 200 LINE SMOOTH",
"270 134 OFFCURVE",
"216 80 OFFCURVE",
"150 80 CURVE SMOOTH",
"30 80 LINE SMOOTH",
"18 80 OFFCURVE",
"0 88 OFFCURVE",
"0 110 CURVE SMOOTH",
"0 132 OFFCURVE",
"18 140 OFFCURVE",
"30 140 CURVE SMOOTH",
"150 140 LINE SMOOTH",
"183 140 OFFCURVE",
"210 167 OFFCURVE",
"210 200 CURVE SMOOTH",
"210 810 LINE SMOOTH",
"210 816 OFFCURVE",
"214 820 OFFCURVE",
"220 820 CURVE SMOOTH",
"226 820 OFFCURVE",
"230 816 OFFCURVE",
"230 810 CURVE SMOOTH",
"230 200 LINE SMOOTH",
"230 156 OFFCURVE",
"194 120 OFFCURVE",
"150 120 CURVE SMOOTH",
"30 120 LINE SMOOTH",
"26 120 OFFCURVE",
"20 118 OFFCURVE",
"20 110 CURVE SMOOTH",
"20 102 OFFCURVE",
"26 100 OFFCURVE",
"30 100 CURVE SMOOTH",
"150 100 LINE SMOOTH",
"205 100 OFFCURVE",
"250 145 OFFCURVE",
"250 200 CURVE SMOOTH",
"250 790 LINE SMOOTH",
"250 802 OFFCURVE",
"258 820 OFFCURVE",
"280 820 CURVE SMOOTH",
"302 820 OFFCURVE",
"310 802 OFFCURVE",
"310 790 CURVE SMOOTH",
"310 200 LINE SMOOTH",
"310 112 OFFCURVE",
"238 40 OFFCURVE",
"150 40 CURVE SMOOTH",
"30 40 LINE SMOOTH",
"26 40 OFFCURVE",
"20 38 OFFCURVE",
"20 30 CURVE SMOOTH",
"20 22 OFFCURVE",
"26 20 OFFCURVE",
"30 20 CURVE SMOOTH",
"150 20 LINE SMOOTH",
"249 20 OFFCURVE",
"330 101 OFFCURVE",
"330 200 CURVE SMOOTH",
"330 810 LINE SMOOTH",
"330 816 OFFCURVE",
"334 820 OFFCURVE",
"340 820 CURVE SMOOTH",
"346 820 OFFCURVE",
"350 816 OFFCURVE",
"350 810 CURVE SMOOTH",
"350 200 LINE SMOOTH",
"350 90 OFFCURVE",
"260 0 OFFCURVE",
"150 0 CURVE SMOOTH"
);
}
);
width = 400;
}
);
leftKerningGroup = J;
rightKerningGroup = J;
rightMetricsKey = H;
unicode = 004A;
},
{
glyphname = K;
lastChange = "2015-06-05 10:52:29 +0000";
layers = (
{
layerId = "6FC19134-58B3-4B2A-889D-9A5D8CFAFAD6";
name = Regular;
paths = (
{
closed = 1;
nodes = (
"593 824 OFFCURVE",
"584 818 OFFCURVE",
"579 811 CURVE SMOOTH",
"327 464 LINE SMOOTH",
"325 462 OFFCURVE",
"323 459 OFFCURVE",
"319 459 CURVE SMOOTH",
"317 459 OFFCURVE",
"315 460 OFFCURVE",
"313 462 CURVE SMOOTH",
"306 467 OFFCURVE",
"308 472 OFFCURVE",
"311 476 CURVE SMOOTH",
"529 776 LINE SMOOTH",
"536 786 OFFCURVE",
"540 805 OFFCURVE",
"522 818 CURVE SMOOTH",
"516 822 OFFCURVE",
"510 824 OFFCURVE",
"505 824 CURVE SMOOTH",
"494 824 OFFCURVE",
"485 818 OFFCURVE",
"480 811 CURVE SMOOTH",
"208 437 LINE SMOOTH",
"206 433 OFFCURVE",
"203 432 OFFCURVE",
"200 432 CURVE SMOOTH",
"199 432 OFFCURVE",
"198 433 OFFCURVE",
"197 433 CURVE SMOOTH",
"195 433 OFFCURVE",
"190 436 OFFCURVE",
"190 442 CURVE SMOOTH",
"190 810 LINE SMOOTH",
"190 815 OFFCURVE",
"186 820 OFFCURVE",
"180 820 CURVE SMOOTH",
"174 820 OFFCURVE",
"170 815 OFFCURVE",
"170 810 CURVE SMOOTH",
"170 442 LINE SMOOTH",
"170 429 OFFCURVE",
"178 418 OFFCURVE",
"191 414 CURVE SMOOTH",
"194 413 OFFCURVE",
"197 412 OFFCURVE",
"200 412 CURVE SMOOTH",
"210 412 OFFCURVE",
"218 417 OFFCURVE",
"224 425 CURVE SMOOTH",
"497 800 LINE SMOOTH",
"498 801 OFFCURVE",
"500 804 OFFCURVE",
"504 804 CURVE SMOOTH",
"506 804 OFFCURVE",
"508 803 OFFCURVE",
"511 802 CURVE SMOOTH",
"517 797 OFFCURVE",
"515 792 OFFCURVE",
"513 788 CURVE SMOOTH",
"295 488 LINE SMOOTH",
"294 487 OFFCURVE",
"290 481 OFFCURVE",
"289 474 CURVE SMOOTH",
"287 463 OFFCURVE",
"291 453 OFFCURVE",
"301 446 CURVE SMOOTH",
"307 441 OFFCURVE",
"313 439 OFFCURVE",
"319 439 CURVE SMOOTH",
"323 439 OFFCURVE",
"328 440 OFFCURVE",
"332 443 CURVE SMOOTH",
"338 446 OFFCURVE",
"342 451 OFFCURVE",
"343 452 CURVE SMOOTH",
"595 800 LINE SMOOTH",
"597 801 OFFCURVE",
"599 804 OFFCURVE",
"603 804 CURVE SMOOTH",
"605 804 OFFCURVE",
"607 803 OFFCURVE",
"609 802 CURVE SMOOTH",
"616 797 OFFCURVE",
"614 792 OFFCURVE",
"612 788 CURVE SMOOTH",
"345 421 LINE SMOOTH",
"338 411 OFFCURVE",
"338 396 OFFCURVE",
"346 386 CURVE SMOOTH",
"612 32 LINE SMOOTH",
"615 28 OFFCURVE",
"617 23 OFFCURVE",
"610 18 CURVE SMOOTH",
"608 16 OFFCURVE",
"606 15 OFFCURVE",
"604 15 CURVE SMOOTH",
"601 15 OFFCURVE",
"598 18 OFFCURVE",
"596 20 CURVE SMOOTH",
"294 422 LINE SMOOTH",
"293 423 OFFCURVE",
"289 428 OFFCURVE",
"282 431 CURVE SMOOTH",
"278 433 OFFCURVE",
"274 434 OFFCURVE",
"270 434 CURVE SMOOTH",
"264 434 OFFCURVE",
"257 432 OFFCURVE",
"252 428 CURVE SMOOTH",
"234 414 OFFCURVE",
"238 395 OFFCURVE",
"246 386 CURVE SMOOTH",
"512 32 LINE SMOOTH",
"515 28 OFFCURVE",
"517 23 OFFCURVE",
"510 18 CURVE SMOOTH",
"508 16 OFFCURVE",
"506 15 OFFCURVE",
"504 15 CURVE SMOOTH",
"501 15 OFFCURVE",
"498 18 OFFCURVE",
"496 20 CURVE SMOOTH",
"224 381 LINE SMOOTH",
"218 389 OFFCURVE",
"209 393 OFFCURVE",
"200 393 CURVE SMOOTH",
"197 393 OFFCURVE",
"194 393 OFFCURVE",
"190 392 CURVE SMOOTH",
"178 387 OFFCURVE",
"170 376 OFFCURVE",
"170 363 CURVE SMOOTH",
"170 30 LINE SMOOTH",
"170 25 OFFCURVE",
"168 20 OFFCURVE",
"160 20 CURVE SMOOTH",
"152 20 OFFCURVE",
"150 25 OFFCURVE",
"150 30 CURVE",
"150 790 LINE SMOOTH",
"150 802 OFFCURVE",
"142 820 OFFCURVE",
"120 820 CURVE SMOOTH",
"98 820 OFFCURVE",
"90 802 OFFCURVE",
"90 790 CURVE SMOOTH",
"90 30 LINE SMOOTH",
"90 25 OFFCURVE",
"88 20 OFFCURVE",
"80 20 CURVE SMOOTH",
"72 20 OFFCURVE",
"70 25 OFFCURVE",
"70 30 CURVE",
"70 810 LINE SMOOTH",
"70 815 OFFCURVE",
"66 820 OFFCURVE",
"60 820 CURVE SMOOTH",
"54 820 OFFCURVE",
"50 815 OFFCURVE",
"50 810 CURVE SMOOTH",
"50 30 LINE SMOOTH",
"50 18 OFFCURVE",
"58 0 OFFCURVE",
"80 0 CURVE SMOOTH",
"102 0 OFFCURVE",
"110 18 OFFCURVE",
"110 30 CURVE SMOOTH",
"110 790 LINE SMOOTH",
"110 794 OFFCURVE",
"112 800 OFFCURVE",
"120 800 CURVE SMOOTH",
"128 800 OFFCURVE",
"130 794 OFFCURVE",
"130 790 CURVE SMOOTH",
"130 30 LINE SMOOTH",
"130 18 OFFCURVE",
"138 0 OFFCURVE",
"160 0 CURVE SMOOTH",
"182 0 OFFCURVE",
"190 18 OFFCURVE",
"190 30 CURVE SMOOTH",
"190 363 LINE SMOOTH",
"190 370 OFFCURVE",
"195 372 OFFCURVE",
"197 373 CURVE SMOOTH",
"197 373 OFFCURVE",
"199 373 OFFCURVE",
"200 373 CURVE SMOOTH",
"203 373 OFFCURVE",
"206 372 OFFCURVE",
"208 369 CURVE SMOOTH",
"480 8 LINE SMOOTH",
"485 2 OFFCURVE",
"494 -5 OFFCURVE",
"504 -5 CURVE SMOOTH",
"510 -5 OFFCURVE",
"516 -3 OFFCURVE",
"522 2 CURVE SMOOTH",
"532 9 OFFCURVE",
"536 19 OFFCURVE",
"534 30 CURVE SMOOTH",
"533 38 OFFCURVE",
"529 43 OFFCURVE",
"528 44 CURVE SMOOTH",
"262 398 LINE SMOOTH",
"259 401 OFFCURVE",
"257 407 OFFCURVE",
"264 412 CURVE SMOOTH",
"266 413 OFFCURVE",
"268 414 OFFCURVE",
"270 414 CURVE SMOOTH",
"273 414 OFFCURVE",
"276 412 OFFCURVE",
"278 410 CURVE SMOOTH",
"581 8 LINE SMOOTH",
"585 2 OFFCURVE",
"594 -5 OFFCURVE",
"604 -5 CURVE SMOOTH",
"610 -5 OFFCURVE",
"616 -3 OFFCURVE",
"623 2 CURVE SMOOTH",
"640 15 OFFCURVE",
"636 34 OFFCURVE",
"628 44 CURVE SMOOTH",
"362 398 LINE SMOOTH",
"359 401 OFFCURVE",
"359 406 OFFCURVE",
"362 410 CURVE SMOOTH",
"628 776 LINE SMOOTH",
"635 786 OFFCURVE",
"639 805 OFFCURVE",
"621 818 CURVE SMOOTH",
"615 822 OFFCURVE",
"609 824 OFFCURVE",
"603 824 CURVE SMOOTH"
);
}
);
width = 675;
}
);
leftKerningGroup = H;
leftMetricsKey = H;
rightKerningGroup = K;
rightMetricsKey = "=H-10";
unicode = 004B;
},
{
glyphname = L;
lastChange = "2015-06-05 10:52:29 +0000";
layers = (
{
layerId = "6FC19134-58B3-4B2A-889D-9A5D8CFAFAD6";
name = Regular;
paths = (
{
closed = 1;
nodes = (
"174 820 OFFCURVE",
"170 816 OFFCURVE",
"170 810 CURVE SMOOTH",
"170 150 LINE SMOOTH",
"170 128 OFFCURVE",
"188 120 OFFCURVE",
"200 120 CURVE SMOOTH",
"500 120 LINE SMOOTH",
"504 120 OFFCURVE",
"510 118 OFFCURVE",
"510 110 CURVE SMOOTH",
"510 102 OFFCURVE",
"504 100 OFFCURVE",
"500 100 CURVE SMOOTH",
"200 100 LINE SMOOTH",
"188 100 OFFCURVE",
"170 92 OFFCURVE",
"170 70 CURVE SMOOTH",
"170 48 OFFCURVE",
"188 40 OFFCURVE",
"200 40 CURVE SMOOTH",
"500 40 LINE SMOOTH",
"504 40 OFFCURVE",
"510 38 OFFCURVE",
"510 30 CURVE SMOOTH",
"510 22 OFFCURVE",
"504 20 OFFCURVE",
"500 20 CURVE SMOOTH",
"160 20 LINE SMOOTH",
"152 20 OFFCURVE",
"150 25 OFFCURVE",
"150 30 CURVE",
"150 790 LINE SMOOTH",
"150 802 OFFCURVE",
"142 820 OFFCURVE",
"120 820 CURVE SMOOTH",
"98 820 OFFCURVE",
"90 802 OFFCURVE",
"90 790 CURVE SMOOTH",
"90 30 LINE SMOOTH",
"90 25 OFFCURVE",
"88 20 OFFCURVE",
"80 20 CURVE SMOOTH",
"72 20 OFFCURVE",
"70 25 OFFCURVE",
"70 30 CURVE",
"70 810 LINE SMOOTH",
"70 816 OFFCURVE",
"66 820 OFFCURVE",
"60 820 CURVE SMOOTH",
"54 820 OFFCURVE",
"50 816 OFFCURVE",
"50 810 CURVE SMOOTH",
"50 30 LINE SMOOTH",
"50 18 OFFCURVE",
"58 0 OFFCURVE",
"80 0 CURVE SMOOTH",
"102 0 OFFCURVE",
"110 18 OFFCURVE",
"110 30 CURVE SMOOTH",
"110 790 LINE SMOOTH",
"110 794 OFFCURVE",
"112 800 OFFCURVE",
"120 800 CURVE SMOOTH",
"128 800 OFFCURVE",
"130 794 OFFCURVE",
"130 790 CURVE SMOOTH",
"130 30 LINE SMOOTH",
"130 18 OFFCURVE",
"138 0 OFFCURVE",
"160 0 CURVE SMOOTH",
"500 0 LINE SMOOTH",
"512 0 OFFCURVE",
"530 8 OFFCURVE",
"530 30 CURVE SMOOTH",
"530 52 OFFCURVE",
"512 60 OFFCURVE",
"500 60 CURVE SMOOTH",
"200 60 LINE SMOOTH",
"196 60 OFFCURVE",
"190 62 OFFCURVE",
"190 70 CURVE SMOOTH",
"190 78 OFFCURVE",
"196 80 OFFCURVE",
"200 80 CURVE SMOOTH",
"500 80 LINE SMOOTH",
"512 80 OFFCURVE",
"530 88 OFFCURVE",
"530 110 CURVE SMOOTH",
"530 132 OFFCURVE",
"512 140 OFFCURVE",
"500 140 CURVE SMOOTH",
"200 140 LINE SMOOTH",
"196 140 OFFCURVE",
"190 142 OFFCURVE",
"190 150 CURVE SMOOTH",
"190 810 LINE SMOOTH",
"190 816 OFFCURVE",
"186 820 OFFCURVE",
"180 820 CURVE SMOOTH"
);
}
);
width = 560;
}
);
leftKerningGroup = H;
leftMetricsKey = H;
rightKerningGroup = L;
unicode = 004C;
},
{
glyphname = M;
lastChange = "2015-06-05 10:52:29 +0000";
layers = (
{
layerId = "6FC19134-58B3-4B2A-889D-9A5D8CFAFAD6";
name = Regular;
paths = (
{
closed = 1;
nodes = (
"1191 1 OFFCURVE",
"1194 1 OFFCURVE",
"1197 2 CURVE SMOOTH",
"1219 8 OFFCURVE",
"1221 27 OFFCURVE",
"1218 39 CURVE SMOOTH",
"996 814 LINE SMOOTH",
"994 819 OFFCURVE",
"990 821 OFFCURVE",
"986 821 CURVE SMOOTH",
"985 821 OFFCURVE",
"984 821 OFFCURVE",
"983 821 CURVE SMOOTH",
"978 820 OFFCURVE",
"975 814 OFFCURVE",
"976 809 CURVE SMOOTH",
"1199 33 LINE SMOOTH",
"1200 29 OFFCURVE",
"1200 23 OFFCURVE",
"1192 21 CURVE SMOOTH",
"1191 21 OFFCURVE",
"1189 21 OFFCURVE",
"1188 21 CURVE SMOOTH",
"1183 21 OFFCURVE",
"1181 24 OFFCURVE",
"1179 28 CURVE SMOOTH",
"958 801 LINE SMOOTH",
"955 810 OFFCURVE",
"946 823 OFFCURVE",
"930 823 CURVE SMOOTH",
"927 823 OFFCURVE",
"924 822 OFFCURVE",
"921 821 CURVE SMOOTH",
"900 815 OFFCURVE",
"897 796 OFFCURVE",
"900 784 CURVE SMOOTH",
"1116 33 LINE SMOOTH",
"1117 29 OFFCURVE",
"1116 23 OFFCURVE",
"1109 21 CURVE SMOOTH",
"1107 21 OFFCURVE",
"1106 21 OFFCURVE",
"1105 21 CURVE SMOOTH",
"1100 21 OFFCURVE",
"1097 24 OFFCURVE",
"1096 28 CURVE SMOOTH",
"873 807 LINE SMOOTH",
"871 815 OFFCURVE",
"863 821 OFFCURVE",
"854 821 CURVE SMOOTH",
"854 821 OFFCURVE",
"854 821 OFFCURVE",
"854 821 CURVE SMOOTH",
"845 821 OFFCURVE",
"838 816 OFFCURVE",
"835 808 CURVE SMOOTH",
"630 245 LINE SMOOTH",
"626 234 OFFCURVE",
"627 214 OFFCURVE",
"648 207 CURVE SMOOTH",
"652 205 OFFCURVE",
"656 205 OFFCURVE",
"659 205 CURVE SMOOTH",
"666 205 OFFCURVE",
"673 207 OFFCURVE",
"678 212 CURVE SMOOTH",
"684 218 OFFCURVE",
"686 224 OFFCURVE",
"686 225 CURVE SMOOTH",
"843 656 LINE SMOOTH",
"845 660 OFFCURVE",
"847 663 OFFCURVE",
"852 663 CURVE SMOOTH",
"853 663 OFFCURVE",
"855 663 OFFCURVE",
"856 662 CURVE SMOOTH",
"864 659 OFFCURVE",
"864 654 OFFCURVE",
"862 649 CURVE SMOOTH",
"673 128 LINE SMOOTH",
"668 117 OFFCURVE",
"670 97 OFFCURVE",
"691 90 CURVE SMOOTH",
"694 88 OFFCURVE",
"698 88 OFFCURVE",
"702 88 CURVE SMOOTH",
"709 88 OFFCURVE",
"715 90 OFFCURVE",
"721 95 CURVE SMOOTH",
"726 101 OFFCURVE",
"729 107 OFFCURVE",
"729 108 CURVE SMOOTH",
"897 570 LINE SMOOTH",
"899 575 OFFCURVE",
"896 581 OFFCURVE",
"891 583 CURVE SMOOTH",
"890 583 OFFCURVE",
"889 583 OFFCURVE",
"888 583 CURVE SMOOTH",
"884 583 OFFCURVE",
"880 581 OFFCURVE",
"878 577 CURVE SMOOTH",
"710 115 LINE SMOOTH",
"709 111 OFFCURVE",
"706 108 OFFCURVE",
"702 108 CURVE SMOOTH",
"700 108 OFFCURVE",
"699 108 OFFCURVE",
"697 109 CURVE SMOOTH",
"690 111 OFFCURVE",
"690 117 OFFCURVE",
"691 122 CURVE SMOOTH",
"881 643 LINE SMOOTH",
"885 654 OFFCURVE",
"884 673 OFFCURVE",
"863 681 CURVE SMOOTH",
"859 682 OFFCURVE",
"855 683 OFFCURVE",
"852 683 CURVE SMOOTH",
"845 683 OFFCURVE",
"838 681 OFFCURVE",
"833 675 CURVE SMOOTH",
"827 670 OFFCURVE",
"825 664 OFFCURVE",
"825 663 CURVE SMOOTH",
"668 232 LINE SMOOTH",
"666 228 OFFCURVE",
"664 225 OFFCURVE",
"659 225 CURVE SMOOTH",
"658 225 OFFCURVE",
"656 225 OFFCURVE",
"655 226 CURVE SMOOTH",
"647 228 OFFCURVE",
"647 234 OFFCURVE",
"649 238 CURVE SMOOTH",
"854 801 LINE",
"1077 22 LINE SMOOTH",
"1080 13 OFFCURVE",
"1089 1 OFFCURVE",
"1105 1 CURVE SMOOTH",
"1108 1 OFFCURVE",
"1111 1 OFFCURVE",
"1114 2 CURVE SMOOTH",
"1135 8 OFFCURVE",
"1138 27 OFFCURVE",
"1135 39 CURVE SMOOTH",
"920 790 LINE SMOOTH",
"918 794 OFFCURVE",
"919 800 OFFCURVE",
"926 802 CURVE SMOOTH",
"928 802 OFFCURVE",
"929 802 OFFCURVE",
"930 802 CURVE SMOOTH",
"936 802 OFFCURVE",
"938 797 OFFCURVE",
"939 795 CURVE SMOOTH",
"1160 22 LINE SMOOTH",
"1163 13 OFFCURVE",
"1172 1 OFFCURVE",
"1188 1 CURVE SMOOTH"
);
},
{
closed = 1;
nodes = (
"658 0 OFFCURVE",
"661 1 OFFCURVE",
"665 2 CURVE SMOOTH",
"677 6 OFFCURVE",
"684 15 OFFCURVE",
"685 26 CURVE SMOOTH",
"686 33 OFFCURVE",
"684 39 OFFCURVE",
"683 41 CURVE SMOOTH",
"404 808 LINE SMOOTH",
"401 816 OFFCURVE",
"394 821 OFFCURVE",
"385 821 CURVE SMOOTH",
"385 821 OFFCURVE",
"385 821 OFFCURVE",
"384 821 CURVE SMOOTH",
"376 821 OFFCURVE",
"368 815 OFFCURVE",
"366 807 CURVE SMOOTH",
"143 28 LINE SMOOTH",
"142 24 OFFCURVE",
"139 21 OFFCURVE",
"134 21 CURVE SMOOTH",
"133 21 OFFCURVE",
"132 21 OFFCURVE",
"130 21 CURVE SMOOTH",
"123 23 OFFCURVE",
"122 29 OFFCURVE",
"123 34 CURVE SMOOTH",
"339 784 LINE SMOOTH",
"339 785 OFFCURVE",
"341 791 OFFCURVE",
"339 799 CURVE SMOOTH",
"337 810 OFFCURVE",
"330 818 OFFCURVE",
"318 821 CURVE SMOOTH",
"315 822 OFFCURVE",
"312 823 OFFCURVE",
"309 823 CURVE SMOOTH",
"293 823 OFFCURVE",
"284 810 OFFCURVE",
"281 801 CURVE SMOOTH",
"59 28 LINE SMOOTH",
"58 24 OFFCURVE",
"56 21 OFFCURVE",
"51 21 CURVE SMOOTH",
"50 21 OFFCURVE",
"48 21 OFFCURVE",
"47 21 CURVE SMOOTH",
"39 23 OFFCURVE",
"39 29 OFFCURVE",
"40 34 CURVE SMOOTH",
"262 809 LINE SMOOTH",
"264 814 OFFCURVE",
"261 820 OFFCURVE",
"256 821 CURVE SMOOTH",
"255 821 OFFCURVE",
"254 822 OFFCURVE",
"253 822 CURVE SMOOTH",
"249 822 OFFCURVE",
"245 819 OFFCURVE",
"243 814 CURVE SMOOTH",
"21 39 LINE SMOOTH",
"21 38 OFFCURVE",
"19 32 OFFCURVE",
"20 24 CURVE SMOOTH",
"22 13 OFFCURVE",
"30 5 OFFCURVE",
"42 2 CURVE SMOOTH",
"45 1 OFFCURVE",
"48 1 OFFCURVE",
"51 1 CURVE SMOOTH",
"66 1 OFFCURVE",
"76 13 OFFCURVE",
"79 22 CURVE SMOOTH",
"300 795 LINE SMOOTH",
"301 799 OFFCURVE",
"304 802 OFFCURVE",
"309 802 CURVE SMOOTH",
"310 802 OFFCURVE",
"311 802 OFFCURVE",
"313 802 CURVE SMOOTH",
"318 800 OFFCURVE",
"319 798 OFFCURVE",
"320 795 CURVE SMOOTH",
"320 792 OFFCURVE",
"319 790 OFFCURVE",
"319 790 CURVE",
"104 39 LINE SMOOTH",
"104 38 OFFCURVE",
"102 32 OFFCURVE",
"104 24 CURVE SMOOTH",
"106 13 OFFCURVE",
"113 5 OFFCURVE",
"125 2 CURVE SMOOTH",
"128 1 OFFCURVE",
"131 1 OFFCURVE",
"134 1 CURVE SMOOTH",
"142 1 OFFCURVE",
"149 4 OFFCURVE",
"154 10 CURVE SMOOTH",
"160 15 OFFCURVE",
"162 21 OFFCURVE",
"162 22 CURVE SMOOTH",
"385 801 LINE",
"665 34 LINE SMOOTH",
"666 29 OFFCURVE",
"666 24 OFFCURVE",
"659 21 CURVE SMOOTH",
"657 20 OFFCURVE",
"656 20 OFFCURVE",
"654 20 CURVE SMOOTH",
"649 20 OFFCURVE",
"647 25 OFFCURVE",
"646 27 CURVE SMOOTH",
"414 663 LINE SMOOTH",
"414 664 OFFCURVE",
"411 670 OFFCURVE",
"406 675 CURVE SMOOTH",
"401 681 OFFCURVE",
"394 683 OFFCURVE",
"387 683 CURVE SMOOTH",
"383 683 OFFCURVE",
"380 682 OFFCURVE",
"376 681 CURVE SMOOTH",
"364 677 OFFCURVE",
"358 668 OFFCURVE",
"356 657 CURVE SMOOTH",
"355 650 OFFCURVE",
"357 644 OFFCURVE",
"358 643 CURVE SMOOTH",
"579 34 LINE SMOOTH",
"581 29 OFFCURVE",
"581 24 OFFCURVE",
"573 21 CURVE SMOOTH",
"572 20 OFFCURVE",
"570 20 OFFCURVE",
"569 20 CURVE SMOOTH",
"564 20 OFFCURVE",
"561 25 OFFCURVE",
"561 27 CURVE SMOOTH",
"360 577 LINE SMOOTH",
"359 581 OFFCURVE",
"355 583 OFFCURVE",
"351 583 CURVE SMOOTH",
"350 583 OFFCURVE",
"349 583 OFFCURVE",
"348 583 CURVE SMOOTH",
"342 581 OFFCURVE",
"340 575 OFFCURVE",
"342 570 CURVE SMOOTH",
"542 20 LINE SMOOTH",
"545 11 OFFCURVE",
"555 0 OFFCURVE",
"569 0 CURVE SMOOTH",
"573 0 OFFCURVE",
"576 1 OFFCURVE",
"580 2 CURVE SMOOTH",
"592 6 OFFCURVE",
"599 15 OFFCURVE",
"600 26 CURVE SMOOTH",
"601 33 OFFCURVE",
"599 39 OFFCURVE",
"598 41 CURVE SMOOTH",
"377 649 LINE SMOOTH",
"375 654 OFFCURVE",
"375 659 OFFCURVE",
"383 662 CURVE SMOOTH",
"384 663 OFFCURVE",
"386 663 OFFCURVE",
"387 663 CURVE SMOOTH",
"392 663 OFFCURVE",
"394 660 OFFCURVE",
"395 656 CURVE SMOOTH",
"627 20 LINE SMOOTH",
"630 11 OFFCURVE",
"640 0 OFFCURVE",
"654 0 CURVE SMOOTH"
);
}
);
width = 1239;
}
);
leftMetricsKey = A;
rightMetricsKey = A;
unicode = 004D;
},
{
glyphname = N;
lastChange = "2015-06-05 10:52:29 +0000";
layers = (
{
layerId = "6FC19134-58B3-4B2A-889D-9A5D8CFAFAD6";
name = Regular;
paths = (
{
closed = 1;
nodes = (
"593 -3 OFFCURVE",
"588 -2 OFFCURVE",
"584 1 CURVE SMOOTH",
"577 5 OFFCURVE",
"574 11 OFFCURVE",
"573 12 CURVE SMOOTH",
"126 787 LINE SMOOTH",
"117 802 OFFCURVE",
"103 804 OFFCURVE",
"92 801 CURVE SMOOTH",
"82 798 OFFCURVE",
"70 789 OFFCURVE",
"70 772 CURVE SMOOTH",
"70 30 LINE SMOOTH",
"70 25 OFFCURVE",
"72 20 OFFCURVE",
"80 20 CURVE SMOOTH",
"88 20 OFFCURVE",
"90 25 OFFCURVE",
"90 30 CURVE SMOOTH",
"90 703 LINE SMOOTH",
"90 715 OFFCURVE",
"98 733 OFFCURVE",
"120 733 CURVE SMOOTH",
"142 733 OFFCURVE",
"150 715 OFFCURVE",
"150 703 CURVE SMOOTH",
"150 30 LINE SMOOTH",
"150 25 OFFCURVE",
"152 20 OFFCURVE",
"160 20 CURVE SMOOTH",
"168 20 OFFCURVE",
"170 25 OFFCURVE",
"170 30 CURVE SMOOTH",
"170 633 LINE SMOOTH",
"170 638 OFFCURVE",
"173 642 OFFCURVE",
"177 643 CURVE SMOOTH",
"182 644 OFFCURVE",
"186 642 OFFCURVE",
"189 638 CURVE SMOOTH",
"549 15 LINE SMOOTH",
"551 10 OFFCURVE",
"550 4 OFFCURVE",
"545 1 CURVE SMOOTH",
"540 -2 OFFCURVE",
"534 0 OFFCURVE",
"531 5 CURVE SMOOTH",
"190 596 LINE",
"190 30 LINE SMOOTH",
"190 18 OFFCURVE",
"182 0 OFFCURVE",
"160 0 CURVE SMOOTH",
"138 0 OFFCURVE",
"130 18 OFFCURVE",
"130 30 CURVE SMOOTH",
"130 703 LINE",
"130 707 OFFCURVE",
"128 713 OFFCURVE",
"120 713 CURVE SMOOTH",
"112 713 OFFCURVE",
"110 707 OFFCURVE",
"110 702 CURVE SMOOTH",
"110 30 LINE SMOOTH",
"110 18 OFFCURVE",
"102 0 OFFCURVE",
"80 0 CURVE SMOOTH",
"58 0 OFFCURVE",
"50 18 OFFCURVE",
"50 30 CURVE SMOOTH",
"50 772 LINE SMOOTH",
"50 795 OFFCURVE",
"65 814 OFFCURVE",
"87 820 CURVE SMOOTH",
"110 826 OFFCURVE",
"132 817 OFFCURVE",
"143 797 CURVE SMOOTH",
"591 22 LINE SMOOTH",
"593 18 OFFCURVE",
"597 14 OFFCURVE",
"604 18 CURVE SMOOTH",
"609 21 OFFCURVE",
"610 24 OFFCURVE",
"609 27 CURVE SMOOTH",
"609 29 OFFCURVE",
"608 32 OFFCURVE",
"608 32 CURVE",
"178 776 LINE SMOOTH",
"172 787 OFFCURVE",
"170 806 OFFCURVE",
"189 817 CURVE SMOOTH",
"208 828 OFFCURVE",
"224 817 OFFCURVE",
"230 806 CURVE SMOOTH",
"570 218 LINE",
"570 790 LINE SMOOTH",
"570 802 OFFCURVE",
"578 820 OFFCURVE",
"600 820 CURVE SMOOTH",
"622 820 OFFCURVE",
"630 802 OFFCURVE",
"630 790 CURVE SMOOTH",
"630 111 LINE SMOOTH",
"630 107 OFFCURVE",
"632 101 OFFCURVE",
"640 101 CURVE SMOOTH",
"648 101 OFFCURVE",
"650 107 OFFCURVE",
"650 111 CURVE SMOOTH",
"650 790 LINE SMOOTH",
"650 802 OFFCURVE",
"658 820 OFFCURVE",
"680 820 CURVE SMOOTH",
"702 820 OFFCURVE",
"710 802 OFFCURVE",
"710 790 CURVE SMOOTH",
"710 10 LINE SMOOTH",
"710 4 OFFCURVE",
"706 0 OFFCURVE",
"700 0 CURVE SMOOTH",
"694 0 OFFCURVE",
"690 4 OFFCURVE",
"690 10 CURVE SMOOTH",
"690 790 LINE",
"690 794 OFFCURVE",
"688 800 OFFCURVE",
"680 800 CURVE SMOOTH",
"672 800 OFFCURVE",
"670 794 OFFCURVE",
"670 790 CURVE SMOOTH",
"670 111 LINE SMOOTH",
"670 99 OFFCURVE",
"662 81 OFFCURVE",
"640 81 CURVE SMOOTH",
"618 81 OFFCURVE",
"610 99 OFFCURVE",
"610 111 CURVE SMOOTH",
"610 790 LINE",
"610 794 OFFCURVE",
"608 800 OFFCURVE",
"600 800 CURVE SMOOTH",
"592 800 OFFCURVE",
"590 794 OFFCURVE",
"590 790 CURVE SMOOTH",
"590 180 LINE SMOOTH",
"590 176 OFFCURVE",
"587 172 OFFCURVE",
"583 171 CURVE SMOOTH",
"578 170 OFFCURVE",
"574 172 OFFCURVE",
"571 175 CURVE SMOOTH",
"213 796 LINE SMOOTH",
"211 800 OFFCURVE",
"206 804 OFFCURVE",
"199 800 CURVE SMOOTH",
"192 796 OFFCURVE",
"193 790 OFFCURVE",
"196 786 CURVE SMOOTH",
"625 42 LINE SMOOTH",
"626 41 OFFCURVE",
"629 35 OFFCURVE",
"629 28 CURVE SMOOTH",
"630 17 OFFCURVE",
"625 7 OFFCURVE",
"614 1 CURVE SMOOTH",
"609 -2 OFFCURVE",
"604 -3 OFFCURVE",
"599 -3 CURVE SMOOTH"
);
}
);
width = 760;
}
);
leftKerningGroup = H;
leftMetricsKey = H;
rightKerningGroup = H;
rightMetricsKey = H;
unicode = 004E;
},
{
glyphname = O;
lastChange = "2015-06-05 09:54:32 +0000";
layers = (
{
layerId = "6FC19134-58B3-4B2A-889D-9A5D8CFAFAD6";
name = Regular;
paths = (
{
closed = 1;
nodes = (
"228 -10 OFFCURVE",
"40 178 OFFCURVE",
"40 410 CURVE SMOOTH",
"40 642 OFFCURVE",
"228 830 OFFCURVE",
"460 830 CURVE SMOOTH",
"692 830 OFFCURVE",
"880 642 OFFCURVE",
"880 410 CURVE SMOOTH",
"880 178 OFFCURVE",
"692 -10 OFFCURVE",
"460 -10 CURVE SMOOTH"
);
},
{
closed = 1;
nodes = (
"239 810 OFFCURVE",
"60 631 OFFCURVE",
"60 410 CURVE SMOOTH",
"60 189 OFFCURVE",
"239 10 OFFCURVE",
"460 10 CURVE SMOOTH",
"681 10 OFFCURVE",
"860 189 OFFCURVE",
"860 410 CURVE SMOOTH",
"860 631 OFFCURVE",
"681 810 OFFCURVE",
"460 810 CURVE SMOOTH"
);
},
{
closed = 1;
nodes = (
"250 30 OFFCURVE",
"80 200 OFFCURVE",
"80 410 CURVE SMOOTH",
"80 620 OFFCURVE",
"250 790 OFFCURVE",
"460 790 CURVE SMOOTH",
"670 790 OFFCURVE",
"840 620 OFFCURVE",
"840 410 CURVE SMOOTH",
"840 200 OFFCURVE",
"670 30 OFFCURVE",
"460 30 CURVE SMOOTH"
);
},
{
closed = 1;
nodes = (
"261 770 OFFCURVE",
"100 609 OFFCURVE",
"100 410 CURVE SMOOTH",
"100 211 OFFCURVE",
"261 50 OFFCURVE",
"460 50 CURVE SMOOTH",
"659 50 OFFCURVE",
"820 211 OFFCURVE",
"820 410 CURVE SMOOTH",
"820 609 OFFCURVE",
"659 770 OFFCURVE",
"460 770 CURVE SMOOTH"
);
},
{
closed = 1;
nodes = (
"273 70 OFFCURVE",
"120 223 OFFCURVE",
"120 410 CURVE SMOOTH",
"120 597 OFFCURVE",
"273 750 OFFCURVE",
"460 750 CURVE SMOOTH",
"647 750 OFFCURVE",
"800 597 OFFCURVE",
"800 410 CURVE SMOOTH",
"800 223 OFFCURVE",
"647 70 OFFCURVE",
"460 70 CURVE SMOOTH"
);
},
{
closed = 1;
nodes = (
"284 730 OFFCURVE",
"140 586 OFFCURVE",
"140 410 CURVE SMOOTH",
"140 234 OFFCURVE",
"284 90 OFFCURVE",
"460 90 CURVE SMOOTH",
"636 90 OFFCURVE",
"780 234 OFFCURVE",
"780 410 CURVE SMOOTH",
"780 586 OFFCURVE",
"636 730 OFFCURVE",
"460 730 CURVE SMOOTH"
);
},
{
closed = 1;
nodes = (
"295 110 OFFCURVE",
"160 245 OFFCURVE",
"160 410 CURVE SMOOTH",
"160 575 OFFCURVE",
"295 710 OFFCURVE",
"460 710 CURVE SMOOTH",
"625 710 OFFCURVE",
"760 575 OFFCURVE",
"760 410 CURVE SMOOTH",
"760 245 OFFCURVE",
"625 110 OFFCURVE",
"460 110 CURVE SMOOTH"
);
},
{
closed = 1;
nodes = (
"306 690 OFFCURVE",
"180 564 OFFCURVE",
"180 410 CURVE SMOOTH",
"180 256 OFFCURVE",
"306 130 OFFCURVE",
"460 130 CURVE SMOOTH",
"614 130 OFFCURVE",
"740 256 OFFCURVE",
"740 410 CURVE SMOOTH",
"740 564 OFFCURVE",
"614 690 OFFCURVE",
"460 690 CURVE SMOOTH"
);
}
);
width = 920;
}
);
leftKerningGroup = O;
rightKerningGroup = O;
unicode = 004F;
},
{
glyphname = P;
lastChange = "2015-06-05 10:52:29 +0000";
layers = (
{
layerId = "6FC19134-58B3-4B2A-889D-9A5D8CFAFAD6";
name = Regular;
paths = (
{
closed = 1;
nodes = (
"138 0 OFFCURVE",
"130 18 OFFCURVE",
"130 30 CURVE SMOOTH",
"130 790 LINE",
"130 795 OFFCURVE",
"128 800 OFFCURVE",
"120 800 CURVE SMOOTH",
"112 800 OFFCURVE",
"110 795 OFFCURVE",
"110 790 CURVE SMOOTH",
"110 30 LINE SMOOTH",
"110 18 OFFCURVE",
"102 0 OFFCURVE",
"80 0 CURVE SMOOTH",
"58 0 OFFCURVE",
"50 18 OFFCURVE",
"50 30 CURVE SMOOTH",
"50 810 LINE SMOOTH",
"50 816 OFFCURVE",
"54 820 OFFCURVE",
"60 820 CURVE SMOOTH",
"66 820 OFFCURVE",
"70 816 OFFCURVE",
"70 810 CURVE SMOOTH",
"70 30 LINE SMOOTH",
"70 25 OFFCURVE",
"72 20 OFFCURVE",
"80 20 CURVE SMOOTH",
"88 20 OFFCURVE",
"90 25 OFFCURVE",
"90 30 CURVE SMOOTH",
"90 790 LINE SMOOTH",
"90 802 OFFCURVE",
"98 820 OFFCURVE",
"120 820 CURVE SMOOTH",
"142 820 OFFCURVE",
"150 802 OFFCURVE",
"150 790 CURVE SMOOTH",
"150 30 LINE SMOOTH",
"150 25 OFFCURVE",
"152 20 OFFCURVE",
"160 20 CURVE SMOOTH",
"168 20 OFFCURVE",
"170 25 OFFCURVE",
"170 30 CURVE SMOOTH",
"170 790 LINE SMOOTH",
"170 807 OFFCURVE",
"183 820 OFFCURVE",
"200 820 CURVE SMOOTH",
"275 820 LINE SMOOTH",
"343 820 OFFCURVE",
"410 792 OFFCURVE",
"458 742 CURVE SMOOTH",
"506 694 OFFCURVE",
"531 631 OFFCURVE",
"530 565 CURVE SMOOTH",
"527 430 OFFCURVE",
"415 320 OFFCURVE",
"280 320 CURVE SMOOTH",
"240 320 LINE SMOOTH",
"223 320 OFFCURVE",
"210 333 OFFCURVE",
"210 350 CURVE SMOOTH",
"210 367 OFFCURVE",
"223 380 OFFCURVE",
"240 380 CURVE SMOOTH",
"275 380 LINE SMOOTH",
"379 380 OFFCURVE",
"466 462 OFFCURVE",
"470 563 CURVE SMOOTH",
"472 615 OFFCURVE",
"453 664 OFFCURVE",
"417 702 CURVE SMOOTH",
"381 739 OFFCURVE",
"332 760 OFFCURVE",
"280 760 CURVE SMOOTH",
"240 760 LINE SMOOTH",
"234 760 OFFCURVE",
"230 756 OFFCURVE",
"230 750 CURVE SMOOTH",
"230 744 OFFCURVE",
"234 740 OFFCURVE",
"240 740 CURVE SMOOTH",
"275 740 LINE SMOOTH",
"369 740 OFFCURVE",
"446 669 OFFCURVE",
"450 578 CURVE SMOOTH",
"452 531 OFFCURVE",
"435 487 OFFCURVE",
"403 453 CURVE SMOOTH",
"371 419 OFFCURVE",
"327 400 OFFCURVE",
"280 400 CURVE SMOOTH",
"240 400 LINE SMOOTH",
"223 400 OFFCURVE",
"210 413 OFFCURVE",
"210 430 CURVE SMOOTH",
"210 447 OFFCURVE",
"223 460 OFFCURVE",
"240 460 CURVE SMOOTH",
"276 460 LINE SMOOTH",
"338 460 OFFCURVE",
"389 508 OFFCURVE",
"390 568 CURVE SMOOTH",
"391 598 OFFCURVE",
"379 626 OFFCURVE",
"358 647 CURVE SMOOTH",
"338 668 OFFCURVE",
"310 680 OFFCURVE",
"280 680 CURVE SMOOTH",
"220 680 LINE SMOOTH",
"214 680 OFFCURVE",
"210 684 OFFCURVE",
"210 690 CURVE SMOOTH",
"210 696 OFFCURVE",
"214 700 OFFCURVE",
"220 700 CURVE SMOOTH",
"280 700 LINE SMOOTH",
"315 700 OFFCURVE",
"348 686 OFFCURVE",
"373 661 CURVE SMOOTH",
"397 636 OFFCURVE",
"411 603 OFFCURVE",
"410 568 CURVE SMOOTH",
"409 497 OFFCURVE",
"349 440 OFFCURVE",
"276 440 CURVE SMOOTH",
"240 440 LINE SMOOTH",
"234 440 OFFCURVE",
"230 436 OFFCURVE",
"230 430 CURVE SMOOTH",
"230 424 OFFCURVE",
"234 420 OFFCURVE",
"240 420 CURVE SMOOTH",
"280 420 LINE SMOOTH",
"321 420 OFFCURVE",
"360 437 OFFCURVE",
"389 466 CURVE SMOOTH",
"417 496 OFFCURVE",
"432 536 OFFCURVE",
"430 577 CURVE SMOOTH",
"426 657 OFFCURVE",
"358 720 OFFCURVE",
"275 720 CURVE SMOOTH",
"240 720 LINE SMOOTH",
"223 720 OFFCURVE",
"210 733 OFFCURVE",
"210 750 CURVE SMOOTH",
"210 767 OFFCURVE",
"223 780 OFFCURVE",
"240 780 CURVE SMOOTH",
"280 780 LINE SMOOTH",
"338 780 OFFCURVE",
"391 757 OFFCURVE",
"431 716 CURVE SMOOTH",
"471 674 OFFCURVE",
"492 620 OFFCURVE",
"490 562 CURVE SMOOTH",
"486 451 OFFCURVE",
"390 360 OFFCURVE",
"275 360 CURVE SMOOTH",
"240 360 LINE SMOOTH",
"234 360 OFFCURVE",
"230 356 OFFCURVE",
"230 350 CURVE SMOOTH",
"230 344 OFFCURVE",
"234 340 OFFCURVE",
"240 340 CURVE SMOOTH",
"280 340 LINE SMOOTH",
"404 340 OFFCURVE",
"508 441 OFFCURVE",
"510 566 CURVE SMOOTH",
"511 626 OFFCURVE",
"488 684 OFFCURVE",
"444 728 CURVE SMOOTH",
"400 774 OFFCURVE",
"338 800 OFFCURVE",
"275 800 CURVE SMOOTH",
"200 800 LINE SMOOTH",
"194 800 OFFCURVE",
"190 796 OFFCURVE",
"190 790 CURVE SMOOTH",
"190 30 LINE SMOOTH",
"190 18 OFFCURVE",
"182 0 OFFCURVE",
"160 0 CURVE SMOOTH"
);
}
);
width = 530;
}
);
leftKerningGroup = H;
leftMetricsKey = H;
rightKerningGroup = P;
unicode = 0050;
},
{
glyphname = Q;
lastChange = "2015-06-05 10:52:29 +0000";
layers = (
{
layerId = "6FC19134-58B3-4B2A-889D-9A5D8CFAFAD6";
name = Regular;
paths = (
{
closed = 1;
nodes = (
"453 -10 OFFCURVE",
"446 -10 OFFCURVE",
"439 -10 CURVE SMOOTH",
"227 1 OFFCURVE",
"52 176 OFFCURVE",
"41 388 CURVE SMOOTH",
"35 507 OFFCURVE",
"80 623 OFFCURVE",
"163 707 CURVE SMOOTH",
"247 791 OFFCURVE",
"364 835 OFFCURVE",
"482 829 CURVE SMOOTH",
"695 818 OFFCURVE",
"869 644 OFFCURVE",
"880 431 CURVE SMOOTH",
"884 342 OFFCURVE",
"861 255 OFFCURVE",
"813 181 CURVE SMOOTH",
"810 176 OFFCURVE",
"804 175 OFFCURVE",
"799 178 CURVE SMOOTH",
"794 181 OFFCURVE",
"793 187 OFFCURVE",
"796 192 CURVE SMOOTH",
"842 263 OFFCURVE",
"864 345 OFFCURVE",
"860 430 CURVE SMOOTH",
"850 633 OFFCURVE",
"683 799 OFFCURVE",
"481 809 CURVE SMOOTH",
"368 815 OFFCURVE",
"257 772 OFFCURVE",
"178 693 CURVE SMOOTH",
"98 613 OFFCURVE",
"55 502 OFFCURVE",
"61 389 CURVE SMOOTH",
"71 187 OFFCURVE",
"238 20 OFFCURVE",
"440 10 CURVE SMOOTH",
"506 7 OFFCURVE",
"572 20 OFFCURVE",
"632 48 CURVE SMOOTH",
"634 49 OFFCURVE",
"636 52 OFFCURVE",
"637 54 CURVE SMOOTH",
"637 57 OFFCURVE",
"637 60 OFFCURVE",
"635 62 CURVE SMOOTH",
"633 64 LINE SMOOTH",
"631 67 OFFCURVE",
"626 68 OFFCURVE",
"622 66 CURVE SMOOTH",
"565 39 OFFCURVE",
"502 27 OFFCURVE",
"438 30 CURVE SMOOTH",
"242 42 OFFCURVE",
"85 204 OFFCURVE",
"81 401 CURVE SMOOTH",
"78 507 OFFCURVE",
"121 611 OFFCURVE",
"198 684 CURVE SMOOTH",
"275 759 OFFCURVE",
"378 796 OFFCURVE",
"486 789 CURVE SMOOTH",
"675 777 OFFCURVE",
"827 625 OFFCURVE",
"840 436 CURVE SMOOTH",
"844 368 OFFCURVE",
"831 300 OFFCURVE",
"801 240 CURVE SMOOTH",
"796 231 OFFCURVE",
"788 225 OFFCURVE",
"778 224 CURVE SMOOTH",
"768 223 OFFCURVE",
"758 227 OFFCURVE",
"751 234 CURVE SMOOTH",
"743 244 OFFCURVE",
"742 257 OFFCURVE",
"747 268 CURVE SMOOTH",
"771 316 OFFCURVE",
"783 370 OFFCURVE",
"780 425 CURVE SMOOTH",
"773 592 OFFCURVE",
"635 726 OFFCURVE",
"468 730 CURVE SMOOTH",
"378 732 OFFCURVE",
"291 696 OFFCURVE",
"229 631 CURVE SMOOTH",
"167 566 OFFCURVE",
"135 480 OFFCURVE",
"141 389 CURVE SMOOTH",
"151 230 OFFCURVE",
"278 102 OFFCURVE",
"437 91 CURVE SMOOTH",
"485 87 OFFCURVE",
"532 94 OFFCURVE",
"577 111 CURVE SMOOTH",
"580 113 OFFCURVE",
"582 115 OFFCURVE",
"582 118 CURVE SMOOTH",
"583 121 OFFCURVE",
"582 124 OFFCURVE",
"580 127 CURVE SMOOTH",
"577 130 OFFCURVE",
"573 132 OFFCURVE",
"569 130 CURVE SMOOTH",
"526 113 OFFCURVE",
"481 107 OFFCURVE",
"434 111 CURVE SMOOTH",
"290 123 OFFCURVE",
"173 241 OFFCURVE",
"161 385 CURVE SMOOTH",
"155 471 OFFCURVE",
"185 555 OFFCURVE",
"243 617 CURVE SMOOTH",
"302 679 OFFCURVE",
"385 712 OFFCURVE",
"471 710 CURVE SMOOTH",
"622 705 OFFCURVE",
"749 582 OFFCURVE",
"760 431 CURVE SMOOTH",
"763 379 OFFCURVE",
"753 327 OFFCURVE",
"731 280 CURVE SMOOTH",
"729 276 LINE SMOOTH",
"720 258 OFFCURVE",
"723 237 OFFCURVE",
"735 223 CURVE SMOOTH",
"843 93 LINE SMOOTH",
"851 84 OFFCURVE",
"857 65 OFFCURVE",
"840 51 CURVE SMOOTH",
"830 43 OFFCURVE",
"820 42 OFFCURVE",
"809 46 CURVE SMOOTH",
"802 49 OFFCURVE",
"798 54 OFFCURVE",
"797 55 CURVE SMOOTH",
"682 193 LINE SMOOTH",
"680 195 OFFCURVE",
"677 196 OFFCURVE",
"675 196 CURVE SMOOTH",
"672 196 OFFCURVE",
"669 195 OFFCURVE",
"667 194 CURVE SMOOTH",
"663 190 OFFCURVE",
"663 184 OFFCURVE",
"666 180 CURVE SMOOTH",
"782 42 LINE SMOOTH",
"783 41 OFFCURVE",
"787 36 OFFCURVE",
"789 29 CURVE SMOOTH",
"791 18 OFFCURVE",
"788 8 OFFCURVE",
"778 0 CURVE SMOOTH",
"762 -14 OFFCURVE",
"744 -6 OFFCURVE",
"736 3 CURVE SMOOTH",
"607 157 LINE SMOOTH",
"603 162 OFFCURVE",
"604 168 OFFCURVE",
"608 172 CURVE SMOOTH",
"612 175 OFFCURVE",
"619 175 OFFCURVE",
"622 170 CURVE SMOOTH",
"751 16 LINE SMOOTH",
"754 13 OFFCURVE",
"759 10 OFFCURVE",
"766 15 CURVE SMOOTH",
"770 19 OFFCURVE",
"770 22 OFFCURVE",
"769 24 CURVE SMOOTH",
"769 27 OFFCURVE",
"767 29 OFFCURVE",
"767 29 CURVE",
"651 167 LINE SMOOTH",
"641 179 OFFCURVE",
"642 197 OFFCURVE",
"653 208 CURVE SMOOTH",
"659 214 OFFCURVE",
"668 217 OFFCURVE",
"676 216 CURVE SMOOTH",
"684 216 OFFCURVE",
"692 212 OFFCURVE",
"697 206 CURVE SMOOTH",
"813 68 LINE SMOOTH",
"816 64 OFFCURVE",
"821 61 OFFCURVE",
"827 67 CURVE SMOOTH",
"834 72 OFFCURVE",
"830 78 OFFCURVE",
"828 81 CURVE SMOOTH",
"720 209 LINE SMOOTH",
"702 231 OFFCURVE",
"699 260 OFFCURVE",
"711 285 CURVE SMOOTH",
"713 289 LINE SMOOTH",
"734 332 OFFCURVE",
"743 381 OFFCURVE",
"740 430 CURVE SMOOTH",
"730 571 OFFCURVE",
"611 685 OFFCURVE",
"470 690 CURVE SMOOTH",
"390 692 OFFCURVE",
"313 661 OFFCURVE",
"258 603 CURVE SMOOTH",
"203 545 OFFCURVE",
"175 467 OFFCURVE",
"181 387 CURVE SMOOTH",
"192 252 OFFCURVE",
"301 142 OFFCURVE",
"436 131 CURVE SMOOTH",
"480 127 OFFCURVE",
"522 133 OFFCURVE",
"562 149 CURVE SMOOTH",
"574 153 OFFCURVE",
"587 150 OFFCURVE",
"595 140 CURVE SMOOTH",
"602 132 OFFCURVE",
"604 122 OFFCURVE",
"602 113 CURVE SMOOTH",
"599 104 OFFCURVE",
"593 96 OFFCURVE",
"584 93 CURVE SMOOTH",
"537 74 OFFCURVE",
"487 67 OFFCURVE",
"435 71 CURVE SMOOTH",
"267 83 OFFCURVE",
"132 219 OFFCURVE",
"121 387 CURVE SMOOTH",
"115 484 OFFCURVE",
"148 575 OFFCURVE",
"215 645 CURVE SMOOTH",
"281 714 OFFCURVE",
"373 752 OFFCURVE",
"468 750 CURVE SMOOTH",
"646 746 OFFCURVE",
"792 603 OFFCURVE",
"800 426 CURVE SMOOTH",
"803 368 OFFCURVE",
"791 310 OFFCURVE",
"765 259 CURVE SMOOTH",
"763 255 OFFCURVE",
"764 251 OFFCURVE",
"766 248 CURVE SMOOTH",
"769 245 OFFCURVE",
"772 243 OFFCURVE",
"775 244 CURVE SMOOTH",
"777 244 OFFCURVE",
"781 245 OFFCURVE",
"783 249 CURVE SMOOTH",
"811 306 OFFCURVE",
"824 370 OFFCURVE",
"820 434 CURVE SMOOTH",
"808 614 OFFCURVE",
"664 757 OFFCURVE",
"484 769 CURVE SMOOTH",
"382 776 OFFCURVE",
"285 740 OFFCURVE",
"211 670 CURVE SMOOTH",
"139 600 OFFCURVE",
"98 502 OFFCURVE",
"101 401 CURVE SMOOTH",
"105 215 OFFCURVE",
"254 61 OFFCURVE",
"439 50 CURVE SMOOTH",
"500 47 OFFCURVE",
"560 59 OFFCURVE",
"614 84 CURVE SMOOTH",
"626 90 OFFCURVE",
"640 87 OFFCURVE",
"649 77 CURVE SMOOTH",
"650 75 LINE SMOOTH",
"656 68 OFFCURVE",
"658 59 OFFCURVE",
"656 50 CURVE SMOOTH",
"654 41 OFFCURVE",
"648 34 OFFCURVE",
"640 30 CURVE SMOOTH",
"584 4 OFFCURVE",
"522 -10 OFFCURVE",
"460 -10 CURVE SMOOTH"
);
}
);
width = 920;
}
);
leftKerningGroup = O;
leftMetricsKey = O;
rightKerningGroup = O;
rightMetricsKey = O;
unicode = 0051;
},
{
glyphname = R;
lastChange = "2015-06-05 10:52:29 +0000";
layers = (
{
layerId = "6FC19134-58B3-4B2A-889D-9A5D8CFAFAD6";
name = Regular;
paths = (
{
closed = 1;
nodes = (
"472 -2 OFFCURVE",
"462 8 OFFCURVE",
"459 17 CURVE SMOOTH",
"306 395 LINE SMOOTH",
"304 399 OFFCURVE",
"300 404 OFFCURVE",
"293 401 CURVE SMOOTH",
"286 398 OFFCURVE",
"286 392 OFFCURVE",
"288 388 CURVE SMOOTH",
"428 40 LINE SMOOTH",
"433 28 OFFCURVE",
"432 9 OFFCURVE",
"412 0 CURVE SMOOTH",
"400 -4 OFFCURVE",
"390 -2 OFFCURVE",
"381 5 CURVE SMOOTH",
"376 10 OFFCURVE",
"373 16 OFFCURVE",
"373 17 CURVE SMOOTH",
"224 385 LINE SMOOTH",
"220 395 OFFCURVE",
"211 397 OFFCURVE",
"204 396 CURVE SMOOTH",
"197 395 OFFCURVE",
"190 389 OFFCURVE",
"190 379 CURVE SMOOTH",
"190 30 LINE SMOOTH",
"190 18 OFFCURVE",
"182 0 OFFCURVE",
"160 0 CURVE SMOOTH",
"138 0 OFFCURVE",
"130 18 OFFCURVE",
"130 30 CURVE SMOOTH",
"130 790 LINE",
"130 794 OFFCURVE",
"128 800 OFFCURVE",
"120 800 CURVE SMOOTH",
"112 800 OFFCURVE",
"110 794 OFFCURVE",
"110 790 CURVE SMOOTH",
"110 30 LINE SMOOTH",
"110 18 OFFCURVE",
"102 0 OFFCURVE",
"80 0 CURVE SMOOTH",
"58 0 OFFCURVE",
"50 18 OFFCURVE",
"50 30 CURVE SMOOTH",
"50 810 LINE SMOOTH",
"50 815 OFFCURVE",
"54 820 OFFCURVE",
"60 820 CURVE SMOOTH",
"66 820 OFFCURVE",
"70 815 OFFCURVE",
"70 810 CURVE SMOOTH",
"70 30 LINE SMOOTH",
"70 25 OFFCURVE",
"72 20 OFFCURVE",
"80 20 CURVE SMOOTH",
"88 20 OFFCURVE",
"90 25 OFFCURVE",
"90 30 CURVE SMOOTH",
"90 790 LINE SMOOTH",
"90 802 OFFCURVE",
"98 820 OFFCURVE",
"120 820 CURVE SMOOTH",
"142 820 OFFCURVE",
"150 802 OFFCURVE",
"150 790 CURVE SMOOTH",
"150 30 LINE SMOOTH",
"150 25 OFFCURVE",
"152 20 OFFCURVE",
"160 20 CURVE SMOOTH",
"168 20 OFFCURVE",
"170 25 OFFCURVE",
"170 30 CURVE SMOOTH",
"170 379 LINE SMOOTH",
"170 397 OFFCURVE",
"182 412 OFFCURVE",
"200 416 CURVE SMOOTH",
"218 419 OFFCURVE",
"235 410 OFFCURVE",
"242 393 CURVE SMOOTH",
"391 25 LINE SMOOTH",
"393 20 OFFCURVE",
"397 16 OFFCURVE",
"404 19 CURVE SMOOTH",
"412 22 OFFCURVE",
"411 28 OFFCURVE",
"410 32 CURVE SMOOTH",
"269 380 LINE SMOOTH",
"268 381 OFFCURVE",
"266 387 OFFCURVE",
"267 395 CURVE SMOOTH",
"268 406 OFFCURVE",
"274 415 OFFCURVE",
"286 419 CURVE SMOOTH",
"297 424 OFFCURVE",
"307 422 OFFCURVE",
"316 415 CURVE SMOOTH",
"322 410 OFFCURVE",
"324 404 OFFCURVE",
"325 403 CURVE SMOOTH",
"477 25 LINE SMOOTH",
"479 20 OFFCURVE",
"483 16 OFFCURVE",
"490 19 CURVE SMOOTH",
"496 21 OFFCURVE",
"496 24 OFFCURVE",
"497 26 CURVE SMOOTH",
"497 29 OFFCURVE",
"496 32 OFFCURVE",
"496 32 CURVE",
"376 330 LINE SMOOTH",
"370 344 OFFCURVE",
"376 360 OFFCURVE",
"389 367 CURVE SMOOTH",
"467 409 OFFCURVE",
"513 490 OFFCURVE",
"510 578 CURVE SMOOTH",
"506 700 OFFCURVE",
"400 800 OFFCURVE",
"274 800 CURVE SMOOTH",
"240 800 LINE SMOOTH",
"234 800 OFFCURVE",
"230 795 OFFCURVE",
"230 790 CURVE SMOOTH",
"230 784 OFFCURVE",
"234 780 OFFCURVE",
"240 780 CURVE SMOOTH",
"275 780 LINE SMOOTH",
"389 780 OFFCURVE",
"486 689 OFFCURVE",
"490 578 CURVE SMOOTH",
"493 501 OFFCURVE",
"454 429 OFFCURVE",
"388 390 CURVE SMOOTH",
"381 385 OFFCURVE",
"372 384 OFFCURVE",
"364 387 CURVE SMOOTH",
"355 390 OFFCURVE",
"349 396 OFFCURVE",
"346 404 CURVE SMOOTH",
"340 418 OFFCURVE",
"345 434 OFFCURVE",
"358 441 CURVE SMOOTH",
"406 471 OFFCURVE",
"433 524 OFFCURVE",
"430 580 CURVE SMOOTH",
"424 658 OFFCURVE",
"357 720 OFFCURVE",
"276 720 CURVE SMOOTH",
"240 720 LINE SMOOTH",
"234 720 OFFCURVE",
"230 715 OFFCURVE",
"230 710 CURVE SMOOTH",
"230 704 OFFCURVE",
"234 700 OFFCURVE",
"240 700 CURVE SMOOTH",
"280 700 LINE SMOOTH",
"315 700 OFFCURVE",
"348 686 OFFCURVE",
"373 661 CURVE SMOOTH",
"397 636 OFFCURVE",
"411 602 OFFCURVE",
"410 567 CURVE SMOOTH",
"409 497 OFFCURVE",
"349 440 OFFCURVE",
"276 440 CURVE SMOOTH",
"220 440 LINE SMOOTH",
"192 440 OFFCURVE",
"170 462 OFFCURVE",
"170 490 CURVE SMOOTH",
"170 810 LINE SMOOTH",
"170 815 OFFCURVE",
"174 820 OFFCURVE",
"180 820 CURVE SMOOTH",
"186 820 OFFCURVE",
"190 815 OFFCURVE",
"190 810 CURVE SMOOTH",
"190 490 LINE SMOOTH",
"190 473 OFFCURVE",
"203 460 OFFCURVE",
"220 460 CURVE SMOOTH",
"276 460 LINE SMOOTH",
"338 460 OFFCURVE",
"389 508 OFFCURVE",
"390 568 CURVE SMOOTH",
"391 597 OFFCURVE",
"379 626 OFFCURVE",
"358 647 CURVE SMOOTH",
"338 668 OFFCURVE",
"310 680 OFFCURVE",
"280 680 CURVE SMOOTH",
"240 680 LINE SMOOTH",
"223 680 OFFCURVE",
"210 693 OFFCURVE",
"210 710 CURVE SMOOTH",
"210 726 OFFCURVE",
"223 740 OFFCURVE",
"240 740 CURVE SMOOTH",
"276 740 LINE SMOOTH",
"367 740 OFFCURVE",
"444 670 OFFCURVE",
"450 581 CURVE SMOOTH",
"454 518 OFFCURVE",
"423 457 OFFCURVE",
"368 424 CURVE SMOOTH",
"364 422 OFFCURVE",
"362 417 OFFCURVE",
"364 412 CURVE SMOOTH",
"365 409 OFFCURVE",
"367 407 OFFCURVE",
"370 406 CURVE SMOOTH",
"372 405 OFFCURVE",
"375 405 OFFCURVE",
"378 407 CURVE SMOOTH",
"437 442 OFFCURVE",
"473 508 OFFCURVE",
"470 577 CURVE SMOOTH",
"466 678 OFFCURVE",
"379 760 OFFCURVE",
"275 760 CURVE SMOOTH",
"240 760 LINE SMOOTH",
"223 760 OFFCURVE",
"210 773 OFFCURVE",
"210 790 CURVE SMOOTH",
"210 806 OFFCURVE",
"223 820 OFFCURVE",
"240 820 CURVE SMOOTH",
"274 820 LINE SMOOTH",
"410 820 OFFCURVE",
"525 712 OFFCURVE",
"530 579 CURVE SMOOTH",
"533 483 OFFCURVE",
"483 395 OFFCURVE",
"399 350 CURVE SMOOTH",
"394 347 OFFCURVE",
"392 342 OFFCURVE",
"394 337 CURVE SMOOTH",
"514 40 LINE SMOOTH",
"515 38 OFFCURVE",
"517 32 OFFCURVE",
"517 25 CURVE SMOOTH",
"516 14 OFFCURVE",
"509 5 OFFCURVE",
"498 0 CURVE SMOOTH",
"493 -1 OFFCURVE",
"489 -2 OFFCURVE",
"486 -2 CURVE SMOOTH"
);
}
);
width = 575;
}
);
leftKerningGroup = H;
leftMetricsKey = H;
rightKerningGroup = R;
rightMetricsKey = "=H-5";
unicode = 0052;
},
{
glyphname = S;
lastChange = "2015-06-05 10:52:29 +0000";
layers = (
{
layerId = "6FC19134-58B3-4B2A-889D-9A5D8CFAFAD6";
name = Regular;
paths = (
{
closed = 1;
nodes = (
"198 -10 OFFCURVE",
"119 34 OFFCURVE",
"72 109 CURVE SMOOTH",
"68 116 OFFCURVE",
"67 124 OFFCURVE",
"69 132 CURVE SMOOTH",
"71 140 OFFCURVE",
"77 147 OFFCURVE",
"85 151 CURVE SMOOTH",
"99 158 OFFCURVE",
"115 153 OFFCURVE",
"124 140 CURVE SMOOTH",
"163 77 OFFCURVE",
"233 43 OFFCURVE",
"308 51 CURVE SMOOTH",
"396 61 OFFCURVE",
"466 133 OFFCURVE",
"474 222 CURVE SMOOTH",
"479 276 OFFCURVE",
"462 327 OFFCURVE",
"427 367 CURVE SMOOTH",
"392 406 OFFCURVE",
"341 429 OFFCURVE",
"289 430 CURVE SMOOTH",
"199 432 OFFCURVE",
"127 501 OFFCURVE",
"125 587 CURVE SMOOTH",
"124 630 OFFCURVE",
"141 671 OFFCURVE",
"171 702 CURVE SMOOTH",
"201 733 OFFCURVE",
"242 750 OFFCURVE",
"285 750 CURVE SMOOTH",
"341 750 OFFCURVE",
"394 720 OFFCURVE",
"423 672 CURVE SMOOTH",
"426 667 OFFCURVE",
"431 665 OFFCURVE",
"435 667 CURVE SMOOTH",
"438 668 OFFCURVE",
"440 670 OFFCURVE",
"441 673 CURVE SMOOTH",
"442 676 OFFCURVE",
"442 679 OFFCURVE",
"440 682 CURVE SMOOTH",
"404 743 OFFCURVE",
"338 776 OFFCURVE",
"267 769 CURVE SMOOTH",
"183 761 OFFCURVE",
"115 694 OFFCURVE",
"106 611 CURVE SMOOTH",
"101 559 OFFCURVE",
"116 509 OFFCURVE",
"151 470 CURVE SMOOTH",
"185 432 OFFCURVE",
"234 410 OFFCURVE",
"285 410 CURVE SMOOTH",
"333 410 OFFCURVE",
"380 389 OFFCURVE",
"412 353 CURVE SMOOTH",
"445 317 OFFCURVE",
"460 270 OFFCURVE",
"454 221 CURVE SMOOTH",
"445 143 OFFCURVE",
"383 80 OFFCURVE",
"305 71 CURVE SMOOTH",
"242 64 OFFCURVE",
"181 92 OFFCURVE",
"145 143 CURVE SMOOTH",
"140 150 OFFCURVE",
"139 159 OFFCURVE",
"141 168 CURVE SMOOTH",
"143 176 OFFCURVE",
"149 183 OFFCURVE",
"156 187 CURVE SMOOTH",
"170 194 OFFCURVE",
"186 190 OFFCURVE",
"195 177 CURVE SMOOTH",
"218 144 OFFCURVE",
"257 127 OFFCURVE",
"296 131 CURVE SMOOTH",
"348 136 OFFCURVE",
"389 176 OFFCURVE",
"394 227 CURVE SMOOTH",
"398 259 OFFCURVE",
"388 290 OFFCURVE",
"367 313 CURVE SMOOTH",
"346 337 OFFCURVE",
"316 350 OFFCURVE",
"285 350 CURVE SMOOTH",
"217 350 OFFCURVE",
"152 379 OFFCURVE",
"106 430 CURVE SMOOTH",
"60 481 OFFCURVE",
"39 548 OFFCURVE",
"47 617 CURVE SMOOTH",
"59 727 OFFCURVE",
"147 816 OFFCURVE",
"257 828 CURVE SMOOTH",
"363 840 OFFCURVE",
"462 783 OFFCURVE",
"505 687 CURVE SMOOTH",
"507 682 OFFCURVE",
"505 676 OFFCURVE",
"500 674 CURVE SMOOTH",
"495 671 OFFCURVE",
"489 674 OFFCURVE",
"487 679 CURVE SMOOTH",
"448 767 OFFCURVE",
"356 819 OFFCURVE",
"260 809 CURVE SMOOTH",
"159 797 OFFCURVE",
"78 716 OFFCURVE",
"67 615 CURVE SMOOTH",
"60 552 OFFCURVE",
"79 491 OFFCURVE",
"121 443 CURVE SMOOTH",
"163 397 OFFCURVE",
"223 370 OFFCURVE",
"285 370 CURVE SMOOTH",
"322 370 OFFCURVE",
"357 354 OFFCURVE",
"382 327 CURVE SMOOTH",
"407 299 OFFCURVE",
"418 262 OFFCURVE",
"414 225 CURVE SMOOTH",
"408 165 OFFCURVE",
"359 117 OFFCURVE",
"298 111 CURVE SMOOTH",
"251 106 OFFCURVE",
"205 127 OFFCURVE",
"179 166 CURVE SMOOTH",
"176 170 OFFCURVE",
"170 171 OFFCURVE",
"166 169 CURVE SMOOTH",
"163 168 OFFCURVE",
"161 165 OFFCURVE",
"160 163 CURVE SMOOTH",
"160 160 OFFCURVE",
"160 157 OFFCURVE",
"162 155 CURVE SMOOTH",
"193 109 OFFCURVE",
"247 85 OFFCURVE",
"303 91 CURVE SMOOTH",
"371 99 OFFCURVE",
"427 154 OFFCURVE",
"434 223 CURVE SMOOTH",
"439 266 OFFCURVE",
"426 308 OFFCURVE",
"397 340 CURVE SMOOTH",
"368 372 OFFCURVE",
"328 390 OFFCURVE",
"285 390 CURVE SMOOTH",
"228 390 OFFCURVE",
"174 414 OFFCURVE",
"136 457 CURVE SMOOTH",
"98 500 OFFCURVE",
"80 555 OFFCURVE",
"86 613 CURVE SMOOTH",
"97 706 OFFCURVE",
"172 780 OFFCURVE",
"265 789 CURVE SMOOTH",
"343 797 OFFCURVE",
"417 760 OFFCURVE",
"457 692 CURVE SMOOTH",
"462 684 OFFCURVE",
"463 675 OFFCURVE",
"460 667 CURVE SMOOTH",
"458 659 OFFCURVE",
"452 652 OFFCURVE",
"444 649 CURVE SMOOTH",
"430 643 OFFCURVE",
"413 648 OFFCURVE",
"406 661 CURVE SMOOTH",
"381 704 OFFCURVE",
"334 730 OFFCURVE",
"285 730 CURVE SMOOTH",
"247 730 OFFCURVE",
"212 715 OFFCURVE",
"185 688 CURVE SMOOTH",
"159 661 OFFCURVE",
"144 625 OFFCURVE",
"145 587 CURVE SMOOTH",
"147 512 OFFCURVE",
"210 451 OFFCURVE",
"289 450 CURVE SMOOTH",
"347 449 OFFCURVE",
"403 423 OFFCURVE",
"442 380 CURVE SMOOTH",
"481 336 OFFCURVE",
"500 279 OFFCURVE",
"494 220 CURVE SMOOTH",
"485 122 OFFCURVE",
"408 43 OFFCURVE",
"310 31 CURVE SMOOTH",
"228 22 OFFCURVE",
"150 60 OFFCURVE",
"107 129 CURVE SMOOTH",
"104 134 OFFCURVE",
"98 135 OFFCURVE",
"94 133 CURVE SMOOTH",
"91 132 OFFCURVE",
"89 129 OFFCURVE",
"88 127 CURVE SMOOTH",
"88 124 OFFCURVE",
"88 122 OFFCURVE",
"89 119 CURVE SMOOTH",
"137 42 OFFCURVE",
"224 0 OFFCURVE",
"315 12 CURVE SMOOTH",
"419 25 OFFCURVE",
"502 110 OFFCURVE",
"514 214 CURVE SMOOTH",
"521 280 OFFCURVE",
"501 344 OFFCURVE",
"457 393 CURVE SMOOTH",
"413 442 OFFCURVE",
"350 470 OFFCURVE",
"285 470 CURVE SMOOTH",
"251 470 OFFCURVE",
"218 485 OFFCURVE",
"196 510 CURVE SMOOTH",
"173 536 OFFCURVE",
"162 570 OFFCURVE",
"166 604 CURVE SMOOTH",
"172 658 OFFCURVE",
"214 701 OFFCURVE",
"267 709 CURVE SMOOTH",
"320 717 OFFCURVE",
"373 688 OFFCURVE",
"395 638 CURVE SMOOTH",
"397 633 OFFCURVE",
"395 627 OFFCURVE",
"390 625 CURVE SMOOTH",
"385 623 OFFCURVE",
"379 625 OFFCURVE",
"377 630 CURVE SMOOTH",
"358 672 OFFCURVE",
"315 696 OFFCURVE",
"270 689 CURVE SMOOTH",
"226 682 OFFCURVE",
"191 646 OFFCURVE",
"186 602 CURVE SMOOTH",
"182 573 OFFCURVE",
"191 545 OFFCURVE",
"210 524 CURVE SMOOTH",
"229 502 OFFCURVE",
"257 490 OFFCURVE",
"285 490 CURVE SMOOTH",
"356 490 OFFCURVE",
"424 460 OFFCURVE",
"471 407 CURVE SMOOTH",
"519 353 OFFCURVE",
"542 284 OFFCURVE",
"534 212 CURVE SMOOTH",
"521 99 OFFCURVE",
"430 6 OFFCURVE",
"318 -8 CURVE SMOOTH",
"307 -9 OFFCURVE",
"296 -10 OFFCURVE",
"285 -10 CURVE SMOOTH"
);
}
);
width = 581;
}
);
leftKerningGroup = S;
leftMetricsKey = "=H-5";
rightKerningGroup = S;
rightMetricsKey = "=H-5";
unicode = 0053;
},
{
glyphname = T;
lastChange = "2015-06-05 10:00:44 +0000";
layers = (
{
layerId = "6FC19134-58B3-4B2A-889D-9A5D8CFAFAD6";
name = Regular;
paths = (
{
closed = 1;
nodes = (
"30 820 LINE SMOOTH",
"24 820 OFFCURVE",
"20 816 OFFCURVE",
"20 810 CURVE SMOOTH",
"20 804 OFFCURVE",
"24 800 OFFCURVE",
"30 800 CURVE SMOOTH",
"510 800 LINE SMOOTH",
"515 800 OFFCURVE",
"520 798 OFFCURVE",
"520 790 CURVE SMOOTH",
"520 782 OFFCURVE",
"515 780 OFFCURVE",
"510 780 CURVE SMOOTH",
"50 780 LINE SMOOTH",
"38 780 OFFCURVE",
"20 772 OFFCURVE",
"20 750 CURVE SMOOTH",
"20 728 OFFCURVE",
"38 720 OFFCURVE",
"50 720 CURVE SMOOTH",
"510 720 LINE SMOOTH",
"515 720 OFFCURVE",
"520 718 OFFCURVE",
"520 710 CURVE SMOOTH",
"520 702 OFFCURVE",
"515 700 OFFCURVE",
"510 700 CURVE SMOOTH",
"360 700 LINE SMOOTH",
"343 700 OFFCURVE",
"330 687 OFFCURVE",
"330 670 CURVE SMOOTH",
"330 30 LINE SMOOTH",
"330 25 OFFCURVE",
"328 20 OFFCURVE",
"320 20 CURVE SMOOTH",
"312 20 OFFCURVE",
"310 25 OFFCURVE",
"310 30 CURVE",
"310 670 LINE SMOOTH",
"310 682 OFFCURVE",
"302 700 OFFCURVE",
"280 700 CURVE SMOOTH",
"258 700 OFFCURVE",
"250 682 OFFCURVE",
"250 670 CURVE SMOOTH",
"250 30 LINE SMOOTH",
"250 25 OFFCURVE",
"248 20 OFFCURVE",
"240 20 CURVE SMOOTH",
"232 20 OFFCURVE",
"230 25 OFFCURVE",
"230 30 CURVE",
"230 670 LINE SMOOTH",
"230 687 OFFCURVE",
"217 700 OFFCURVE",
"200 700 CURVE SMOOTH",
"30 700 LINE SMOOTH",
"24 700 OFFCURVE",
"20 696 OFFCURVE",
"20 690 CURVE SMOOTH",
"20 684 OFFCURVE",
"24 680 OFFCURVE",
"30 680 CURVE SMOOTH",
"200 680 LINE SMOOTH",
"206 680 OFFCURVE",
"210 676 OFFCURVE",
"210 670 CURVE SMOOTH",
"210 30 LINE SMOOTH",
"210 18 OFFCURVE",
"218 0 OFFCURVE",
"240 0 CURVE SMOOTH",
"262 0 OFFCURVE",
"270 18 OFFCURVE",
"270 30 CURVE SMOOTH",
"270 670 LINE SMOOTH",
"270 674 OFFCURVE",
"272 680 OFFCURVE",
"280 680 CURVE SMOOTH",
"288 680 OFFCURVE",
"290 674 OFFCURVE",
"290 670 CURVE SMOOTH",
"290 30 LINE SMOOTH",
"290 18 OFFCURVE",
"298 0 OFFCURVE",
"320 0 CURVE SMOOTH",
"342 0 OFFCURVE",
"350 18 OFFCURVE",
"350 30 CURVE SMOOTH",
"350 670 LINE SMOOTH",
"350 676 OFFCURVE",
"354 680 OFFCURVE",
"360 680 CURVE SMOOTH",
"510 680 LINE SMOOTH",
"522 680 OFFCURVE",
"540 688 OFFCURVE",
"540 710 CURVE SMOOTH",
"540 732 OFFCURVE",
"522 740 OFFCURVE",
"510 740 CURVE SMOOTH",
"50 740 LINE SMOOTH",
"45 740 OFFCURVE",
"40 742 OFFCURVE",
"40 750 CURVE SMOOTH",
"40 758 OFFCURVE",
"45 760 OFFCURVE",
"50 760 CURVE SMOOTH",
"510 760 LINE SMOOTH",
"522 760 OFFCURVE",
"540 768 OFFCURVE",
"540 790 CURVE SMOOTH",
"540 812 OFFCURVE",
"522 820 OFFCURVE",
"510 820 CURVE SMOOTH"
);
}
);
width = 560;
}
);
leftKerningGroup = T;
rightKerningGroup = T;
unicode = 0054;
},
{
glyphname = U;
lastChange = "2015-06-05 10:52:29 +0000";
layers = (
{
layerId = "6FC19134-58B3-4B2A-889D-9A5D8CFAFAD6";
name = Regular;
paths = (
{
closed = 1;
nodes = (
"180 -11 OFFCURVE",
"45 124 OFFCURVE",
"45 290 CURVE SMOOTH",
"45 810 LINE SMOOTH",
"45 815 OFFCURVE",
"49 820 OFFCURVE",
"55 820 CURVE SMOOTH",
"61 820 OFFCURVE",
"65 815 OFFCURVE",
"65 810 CURVE SMOOTH",
"65 290 LINE SMOOTH",
"65 135 OFFCURVE",
"191 10 OFFCURVE",
"345 10 CURVE SMOOTH",
"499 10 OFFCURVE",
"625 135 OFFCURVE",
"625 290 CURVE SMOOTH",
"625 790 LINE",
"625 794 OFFCURVE",
"623 800 OFFCURVE",
"615 800 CURVE SMOOTH",
"607 800 OFFCURVE",
"605 794 OFFCURVE",
"605 789 CURVE SMOOTH",
"605 290 LINE SMOOTH",
"605 146 OFFCURVE",
"488 30 OFFCURVE",
"345 30 CURVE SMOOTH",
"202 30 OFFCURVE",
"85 146 OFFCURVE",
"85 290 CURVE SMOOTH",
"85 790 LINE SMOOTH",
"85 802 OFFCURVE",
"93 820 OFFCURVE",
"115 820 CURVE SMOOTH",
"137 820 OFFCURVE",
"145 802 OFFCURVE",
"145 790 CURVE SMOOTH",
"145 290 LINE SMOOTH",
"145 179 OFFCURVE",
"235 90 OFFCURVE",
"345 90 CURVE SMOOTH",
"455 90 OFFCURVE",
"545 179 OFFCURVE",
"545 290 CURVE SMOOTH",
"545 790 LINE",
"545 794 OFFCURVE",
"543 800 OFFCURVE",
"535 800 CURVE SMOOTH",
"527 800 OFFCURVE",
"525 794 OFFCURVE",
"525 789 CURVE SMOOTH",
"525 290 LINE SMOOTH",
"525 190 OFFCURVE",
"444 110 OFFCURVE",
"345 110 CURVE SMOOTH",
"246 110 OFFCURVE",
"165 190 OFFCURVE",
"165 290 CURVE SMOOTH",
"165 810 LINE SMOOTH",
"165 815 OFFCURVE",
"169 820 OFFCURVE",
"175 820 CURVE SMOOTH",
"181 820 OFFCURVE",
"185 815 OFFCURVE",
"185 810 CURVE SMOOTH",
"185 290 LINE SMOOTH",
"185 201 OFFCURVE",
"257 130 OFFCURVE",
"345 130 CURVE SMOOTH",
"433 130 OFFCURVE",
"505 201 OFFCURVE",
"505 290 CURVE SMOOTH",
"505 790 LINE SMOOTH",
"505 802 OFFCURVE",
"513 820 OFFCURVE",
"535 820 CURVE SMOOTH",
"557 820 OFFCURVE",
"565 802 OFFCURVE",
"565 790 CURVE SMOOTH",
"565 290 LINE SMOOTH",
"565 168 OFFCURVE",
"466 70 OFFCURVE",
"345 70 CURVE SMOOTH",
"224 70 OFFCURVE",
"125 168 OFFCURVE",
"125 290 CURVE SMOOTH",
"125 790 LINE",
"125 794 OFFCURVE",
"123 800 OFFCURVE",
"115 800 CURVE SMOOTH",
"107 800 OFFCURVE",
"105 794 OFFCURVE",
"105 789 CURVE SMOOTH",
"105 290 LINE SMOOTH",
"105 157 OFFCURVE",
"213 50 OFFCURVE",
"345 50 CURVE SMOOTH",
"477 50 OFFCURVE",
"585 157 OFFCURVE",
"585 290 CURVE SMOOTH",
"585 790 LINE SMOOTH",
"585 802 OFFCURVE",
"593 820 OFFCURVE",
"615 820 CURVE SMOOTH",
"637 820 OFFCURVE",
"645 802 OFFCURVE",
"645 790 CURVE SMOOTH",
"645 290 LINE SMOOTH",
"645 124 OFFCURVE",
"510 -11 OFFCURVE",
"345 -11 CURVE"
);
}
);
width = 690;
}
);
leftKerningGroup = U;
leftMetricsKey = "=H-5";
rightKerningGroup = U;
rightMetricsKey = "=H-5";
unicode = 0055;
},
{
glyphname = V;
lastChange = "2015-06-05 10:52:29 +0000";
layers = (
{
layerId = "6FC19134-58B3-4B2A-889D-9A5D8CFAFAD6";
name = Regular;
paths = (
{
closed = 1;
nodes = (
"703 821 OFFCURVE",
"694 810 OFFCURVE",
"690 801 CURVE SMOOTH",
"454 151 LINE SMOOTH",
"453 148 OFFCURVE",
"450 144 OFFCURVE",
"445 144 CURVE SMOOTH",
"444 144 OFFCURVE",
"443 145 OFFCURVE",
"441 145 CURVE SMOOTH",
"433 148 OFFCURVE",
"434 154 OFFCURVE",
"435 158 CURVE SMOOTH",
"662 780 LINE SMOOTH",
"662 781 OFFCURVE",
"664 788 OFFCURVE",
"663 795 CURVE SMOOTH",
"662 806 OFFCURVE",
"655 815 OFFCURVE",
"644 819 CURVE SMOOTH",
"640 820 OFFCURVE",
"636 821 OFFCURVE",
"632 821 CURVE SMOOTH",
"618 821 OFFCURVE",
"609 810 OFFCURVE",
"605 801 CURVE SMOOTH",
"396 227 LINE SMOOTH",
"394 222 OFFCURVE",
"397 216 OFFCURVE",
"402 214 CURVE SMOOTH",
"403 214 OFFCURVE",
"405 213 OFFCURVE",
"406 213 CURVE SMOOTH",
"410 213 OFFCURVE",
"414 216 OFFCURVE",
"415 220 CURVE SMOOTH",
"624 794 LINE SMOOTH",
"625 796 OFFCURVE",
"627 801 OFFCURVE",
"633 801 CURVE SMOOTH",
"634 801 OFFCURVE",
"635 801 OFFCURVE",
"637 800 CURVE SMOOTH",
"644 797 OFFCURVE",
"644 791 OFFCURVE",
"643 787 CURVE SMOOTH",
"416 165 LINE SMOOTH",
"416 164 OFFCURVE",
"414 157 OFFCURVE",
"415 150 CURVE SMOOTH",
"416 139 OFFCURVE",
"423 130 OFFCURVE",
"434 126 CURVE SMOOTH",
"438 125 OFFCURVE",
"442 124 OFFCURVE",
"446 124 CURVE SMOOTH",
"453 124 OFFCURVE",
"459 127 OFFCURVE",
"464 132 CURVE SMOOTH",
"470 137 OFFCURVE",
"472 143 OFFCURVE",
"473 144 CURVE SMOOTH",
"709 794 LINE SMOOTH",
"710 796 OFFCURVE",
"712 801 OFFCURVE",
"718 801 CURVE SMOOTH",
"719 801 OFFCURVE",
"720 801 OFFCURVE",
"722 800 CURVE SMOOTH",
"730 797 OFFCURVE",
"729 791 OFFCURVE",
"728 787 CURVE SMOOTH",
"448 18 LINE",
"164 801 LINE SMOOTH",
"160 810 OFFCURVE",
"151 821 OFFCURVE",
"136 821 CURVE SMOOTH",
"133 821 OFFCURVE",
"129 820 OFFCURVE",
"125 819 CURVE SMOOTH",
"114 815 OFFCURVE",
"107 806 OFFCURVE",
"106 795 CURVE SMOOTH",
"105 788 OFFCURVE",
"107 781 OFFCURVE",
"107 780 CURVE SMOOTH",
"380 32 LINE SMOOTH",
"381 27 OFFCURVE",
"381 22 OFFCURVE",
"374 19 CURVE SMOOTH",
"372 18 OFFCURVE",
"371 18 OFFCURVE",
"369 18 CURVE SMOOTH",
"365 18 OFFCURVE",
"362 21 OFFCURVE",
"361 25 CURVE SMOOTH",
"78 801 LINE SMOOTH",
"75 810 OFFCURVE",
"66 821 OFFCURVE",
"51 821 CURVE SMOOTH",
"48 821 OFFCURVE",
"44 820 OFFCURVE",
"40 819 CURVE SMOOTH",
"19 811 OFFCURVE",
"18 792 OFFCURVE",
"22 780 CURVE SMOOTH",
"304 6 LINE SMOOTH",
"305 2 OFFCURVE",
"309 -1 OFFCURVE",
"313 -1 CURVE SMOOTH",
"315 -1 OFFCURVE",
"316 0 OFFCURVE",
"317 0 CURVE SMOOTH",
"322 2 OFFCURVE",
"325 8 OFFCURVE",
"323 13 CURVE SMOOTH",
"41 787 LINE SMOOTH",
"39 791 OFFCURVE",
"39 797 OFFCURVE",
"47 800 CURVE SMOOTH",
"49 801 OFFCURVE",
"50 801 OFFCURVE",
"51 801 CURVE SMOOTH",
"56 801 OFFCURVE",
"58 797 OFFCURVE",
"60 794 CURVE SMOOTH",
"342 18 LINE SMOOTH",
"346 9 OFFCURVE",
"355 -2 OFFCURVE",
"369 -2 CURVE SMOOTH",
"373 -2 OFFCURVE",
"377 -2 OFFCURVE",
"381 0 CURVE SMOOTH",
"392 4 OFFCURVE",
"399 12 OFFCURVE",
"400 24 CURVE SMOOTH",
"401 31 OFFCURVE",
"399 37 OFFCURVE",
"399 38 CURVE SMOOTH",
"126 787 LINE SMOOTH",
"126 787 OFFCURVE",
"125 790 OFFCURVE",
"126 793 CURVE SMOOTH",
"126 795 OFFCURVE",
"127 798 OFFCURVE",
"132 800 CURVE SMOOTH",
"134 801 OFFCURVE",
"135 801 OFFCURVE",
"136 801 CURVE SMOOTH",
"141 801 OFFCURVE",
"144 797 OFFCURVE",
"145 794 CURVE SMOOTH",
"430 12 LINE SMOOTH",
"433 4 OFFCURVE",
"440 -2 OFFCURVE",
"448 -2 CURVE SMOOTH",
"457 -2 OFFCURVE",
"464 4 OFFCURVE",
"467 12 CURVE SMOOTH",
"747 780 LINE SMOOTH",
"747 781 OFFCURVE",
"749 788 OFFCURVE",
"748 795 CURVE SMOOTH",
"747 806 OFFCURVE",
"740 815 OFFCURVE",
"729 819 CURVE SMOOTH",
"725 820 OFFCURVE",
"721 821 OFFCURVE",
"718 821 CURVE SMOOTH"
);
}
);
width = 768;
}
);
leftKerningGroup = V;
leftMetricsKey = Y;
rightKerningGroup = V;
rightMetricsKey = Y;
unicode = 0056;
},
{
glyphname = W;
lastChange = "2015-06-05 10:52:29 +0000";
layers = (
{
layerId = "6FC19134-58B3-4B2A-889D-9A5D8CFAFAD6";
name = Regular;
paths = (
{
closed = 1;
nodes = (
"1173 822 OFFCURVE",
"1164 810 OFFCURVE",
"1161 801 CURVE SMOOTH",
"940 28 LINE SMOOTH",
"939 26 OFFCURVE",
"937 21 OFFCURVE",
"931 21 CURVE SMOOTH",
"930 21 OFFCURVE",
"929 21 OFFCURVE",
"927 21 CURVE SMOOTH",
"920 23 OFFCURVE",
"919 29 OFFCURVE",
"921 33 CURVE SMOOTH",
"1136 784 LINE SMOOTH",
"1139 796 OFFCURVE",
"1136 815 OFFCURVE",
"1115 821 CURVE SMOOTH",
"1112 822 OFFCURVE",
"1109 822 OFFCURVE",
"1106 822 CURVE SMOOTH",
"1090 822 OFFCURVE",
"1081 810 OFFCURVE",
"1078 801 CURVE SMOOTH",
"855 22 LINE",
"650 585 LINE SMOOTH",
"648 589 OFFCURVE",
"648 595 OFFCURVE",
"656 597 CURVE SMOOTH",
"657 598 OFFCURVE",
"659 598 OFFCURVE",
"660 598 CURVE SMOOTH",
"665 598 OFFCURVE",
"667 595 OFFCURVE",
"669 591 CURVE SMOOTH",
"826 160 LINE SMOOTH",
"826 159 OFFCURVE",
"828 153 OFFCURVE",
"834 148 CURVE SMOOTH",
"839 142 OFFCURVE",
"846 140 OFFCURVE",
"853 140 CURVE SMOOTH",
"856 140 OFFCURVE",
"860 141 OFFCURVE",
"864 142 CURVE SMOOTH",
"885 150 OFFCURVE",
"886 169 OFFCURVE",
"882 180 CURVE SMOOTH",
"692 701 LINE SMOOTH",
"691 706 OFFCURVE",
"691 712 OFFCURVE",
"698 714 CURVE SMOOTH",
"700 715 OFFCURVE",
"701 715 OFFCURVE",
"703 715 CURVE SMOOTH",
"707 715 OFFCURVE",
"710 712 OFFCURVE",
"711 708 CURVE SMOOTH",
"879 246 LINE SMOOTH",
"881 242 OFFCURVE",
"885 240 OFFCURVE",
"889 240 CURVE SMOOTH",
"890 240 OFFCURVE",
"891 240 OFFCURVE",
"892 240 CURVE SMOOTH",
"897 242 OFFCURVE",
"900 248 OFFCURVE",
"898 253 CURVE SMOOTH",
"730 715 LINE SMOOTH",
"730 716 OFFCURVE",
"727 722 OFFCURVE",
"722 728 CURVE SMOOTH",
"716 733 OFFCURVE",
"710 735 OFFCURVE",
"703 735 CURVE SMOOTH",
"699 735 OFFCURVE",
"695 735 OFFCURVE",
"692 733 CURVE SMOOTH",
"671 726 OFFCURVE",
"669 706 OFFCURVE",
"674 695 CURVE SMOOTH",
"863 174 LINE SMOOTH",
"865 169 OFFCURVE",
"865 164 OFFCURVE",
"857 161 CURVE SMOOTH",
"856 160 OFFCURVE",
"854 160 OFFCURVE",
"853 160 CURVE SMOOTH",
"848 160 OFFCURVE",
"846 163 OFFCURVE",
"844 167 CURVE SMOOTH",
"687 598 LINE SMOOTH",
"687 599 OFFCURVE",
"685 605 OFFCURVE",
"679 611 CURVE SMOOTH",
"674 616 OFFCURVE",
"667 618 OFFCURVE",
"660 618 CURVE SMOOTH",
"657 618 OFFCURVE",
"653 618 OFFCURVE",
"649 616 CURVE SMOOTH",
"628 609 OFFCURVE",
"627 589 OFFCURVE",
"631 578 CURVE SMOOTH",
"836 15 LINE SMOOTH",
"839 7 OFFCURVE",
"846 2 OFFCURVE",
"855 2 CURVE SMOOTH",
"855 2 OFFCURVE",
"855 2 OFFCURVE",
"855 2 CURVE SMOOTH",
"864 2 OFFCURVE",
"872 8 OFFCURVE",
"874 16 CURVE SMOOTH",
"1097 795 LINE SMOOTH",
"1098 799 OFFCURVE",
"1101 802 OFFCURVE",
"1106 802 CURVE SMOOTH",
"1107 802 OFFCURVE",
"1108 802 OFFCURVE",
"1110 802 CURVE SMOOTH",
"1117 800 OFFCURVE",
"1118 794 OFFCURVE",
"1117 790 CURVE SMOOTH",
"901 39 LINE SMOOTH",
"898 27 OFFCURVE",
"901 8 OFFCURVE",
"922 2 CURVE SMOOTH",
"925 1 OFFCURVE",
"928 0 OFFCURVE",
"931 0 CURVE SMOOTH",
"947 0 OFFCURVE",
"956 13 OFFCURVE",
"959 22 CURVE SMOOTH",
"1180 795 LINE SMOOTH",
"1182 799 OFFCURVE",
"1184 802 OFFCURVE",
"1189 802 CURVE SMOOTH",
"1190 802 OFFCURVE",
"1192 802 OFFCURVE",
"1193 802 CURVE SMOOTH",
"1201 800 OFFCURVE",
"1201 794 OFFCURVE",
"1200 790 CURVE SMOOTH",
"977 14 LINE SMOOTH",
"976 9 OFFCURVE",
"979 3 OFFCURVE",
"984 2 CURVE SMOOTH",
"985 2 OFFCURVE",
"986 2 OFFCURVE",
"987 2 CURVE SMOOTH",
"991 2 OFFCURVE",
"995 4 OFFCURVE",
"997 9 CURVE SMOOTH",
"1219 784 LINE SMOOTH",
"1222 796 OFFCURVE",
"1220 815 OFFCURVE",
"1198 821 CURVE SMOOTH",
"1195 822 OFFCURVE",
"1192 822 OFFCURVE",
"1189 822 CURVE SMOOTH"
);
},
{
closed = 1;
nodes = (
"641 823 OFFCURVE",
"631 812 OFFCURVE",
"628 803 CURVE SMOOTH",
"396 167 LINE SMOOTH",
"395 163 OFFCURVE",
"393 160 OFFCURVE",
"388 160 CURVE SMOOTH",
"387 160 OFFCURVE",
"385 160 OFFCURVE",
"384 161 CURVE SMOOTH",
"376 164 OFFCURVE",
"376 169 OFFCURVE",
"378 174 CURVE SMOOTH",
"599 782 LINE SMOOTH",
"600 784 OFFCURVE",
"602 790 OFFCURVE",
"601 797 CURVE SMOOTH",
"600 808 OFFCURVE",
"593 817 OFFCURVE",
"581 821 CURVE SMOOTH",
"577 822 OFFCURVE",
"574 823 OFFCURVE",
"570 823 CURVE SMOOTH",
"556 823 OFFCURVE",
"546 812 OFFCURVE",
"543 803 CURVE SMOOTH",
"343 253 LINE SMOOTH",
"341 248 OFFCURVE",
"343 242 OFFCURVE",
"349 240 CURVE SMOOTH",
"350 240 OFFCURVE",
"351 240 OFFCURVE",
"352 240 CURVE SMOOTH",
"356 240 OFFCURVE",
"360 242 OFFCURVE",
"361 246 CURVE SMOOTH",
"562 796 LINE SMOOTH",
"562 798 OFFCURVE",
"565 803 OFFCURVE",
"570 803 CURVE SMOOTH",
"571 803 OFFCURVE",
"573 803 OFFCURVE",
"574 802 CURVE SMOOTH",
"582 799 OFFCURVE",
"582 794 OFFCURVE",
"580 789 CURVE SMOOTH",
"359 180 LINE SMOOTH",
"358 179 OFFCURVE",
"356 173 OFFCURVE",
"357 166 CURVE SMOOTH",
"359 155 OFFCURVE",
"365 146 OFFCURVE",
"377 142 CURVE SMOOTH",
"381 141 OFFCURVE",
"384 140 OFFCURVE",
"388 140 CURVE SMOOTH",
"395 140 OFFCURVE",
"402 142 OFFCURVE",
"407 148 CURVE SMOOTH",
"412 153 OFFCURVE",
"415 159 OFFCURVE",
"415 160 CURVE SMOOTH",
"647 796 LINE SMOOTH",
"648 798 OFFCURVE",
"650 803 OFFCURVE",
"655 803 CURVE SMOOTH",
"657 803 OFFCURVE",
"658 803 OFFCURVE",
"660 802 CURVE SMOOTH",
"667 799 OFFCURVE",
"667 794 OFFCURVE",
"666 789 CURVE SMOOTH",
"386 22 LINE",
"163 801 LINE SMOOTH",
"163 802 OFFCURVE",
"161 808 OFFCURVE",
"155 813 CURVE SMOOTH",
"150 819 OFFCURVE",
"143 822 OFFCURVE",
"135 822 CURVE SMOOTH",
"132 822 OFFCURVE",
"129 822 OFFCURVE",
"126 821 CURVE SMOOTH",
"114 818 OFFCURVE",
"107 810 OFFCURVE",
"105 799 CURVE SMOOTH",
"103 791 OFFCURVE",
"105 785 OFFCURVE",
"105 784 CURVE SMOOTH",
"320 33 LINE",
"320 33 OFFCURVE",
"321 31 OFFCURVE",
"321 28 CURVE SMOOTH",
"320 25 OFFCURVE",
"319 23 OFFCURVE",
"314 21 CURVE SMOOTH",
"312 21 OFFCURVE",
"311 21 OFFCURVE",
"310 21 CURVE SMOOTH",
"305 21 OFFCURVE",
"302 24 OFFCURVE",
"301 28 CURVE SMOOTH",
"80 801 LINE SMOOTH",
"77 810 OFFCURVE",
"67 822 OFFCURVE",
"52 822 CURVE SMOOTH",
"49 822 OFFCURVE",
"46 822 OFFCURVE",
"43 821 CURVE SMOOTH",
"31 818 OFFCURVE",
"23 810 OFFCURVE",
"21 799 CURVE SMOOTH",
"20 791 OFFCURVE",
"22 785 OFFCURVE",
"22 784 CURVE SMOOTH",
"244 9 LINE SMOOTH",
"246 4 OFFCURVE",
"250 1 OFFCURVE",
"254 1 CURVE SMOOTH",
"255 1 OFFCURVE",
"256 2 OFFCURVE",
"257 2 CURVE SMOOTH",
"262 3 OFFCURVE",
"265 9 OFFCURVE",
"263 14 CURVE SMOOTH",
"41 789 LINE SMOOTH",
"40 794 OFFCURVE",
"40 800 OFFCURVE",
"48 802 CURVE SMOOTH",
"49 802 OFFCURVE",
"51 802 OFFCURVE",
"52 802 CURVE SMOOTH",
"57 802 OFFCURVE",
"59 799 OFFCURVE",
"60 795 CURVE SMOOTH",
"282 22 LINE SMOOTH",
"285 13 OFFCURVE",
"294 0 OFFCURVE",
"310 0 CURVE SMOOTH",
"313 0 OFFCURVE",
"316 1 OFFCURVE",
"319 2 CURVE SMOOTH",
"331 5 OFFCURVE",
"338 13 OFFCURVE",
"340 24 CURVE SMOOTH",
"342 32 OFFCURVE",
"340 38 OFFCURVE",
"340 39 CURVE SMOOTH",
"124 789 LINE SMOOTH",
"123 794 OFFCURVE",
"124 800 OFFCURVE",
"131 802 CURVE SMOOTH",
"133 802 OFFCURVE",
"134 802 OFFCURVE",
"135 802 CURVE SMOOTH",
"140 802 OFFCURVE",
"143 799 OFFCURVE",
"144 795 CURVE SMOOTH",
"367 16 LINE SMOOTH",
"369 8 OFFCURVE",
"377 2 OFFCURVE",
"385 2 CURVE SMOOTH",
"386 2 OFFCURVE",
"386 2 OFFCURVE",
"386 2 CURVE SMOOTH",
"395 2 OFFCURVE",
"402 7 OFFCURVE",
"405 15 CURVE SMOOTH",
"684 782 LINE SMOOTH",
"685 784 OFFCURVE",
"687 790 OFFCURVE",
"686 797 CURVE SMOOTH",
"685 808 OFFCURVE",
"678 817 OFFCURVE",
"666 821 CURVE SMOOTH",
"662 822 OFFCURVE",
"659 823 OFFCURVE",
"655 823 CURVE SMOOTH"
);
}
);
width = 1240;
}
);
leftMetricsKey = Y;
rightMetricsKey = Y;
unicode = 0057;
},
{
glyphname = X;
lastChange = "2015-06-05 00:31:57 +0000";
layers = (
{
layerId = "6FC19134-58B3-4B2A-889D-9A5D8CFAFAD6";
name = Regular;
paths = (
{
closed = 1;
nodes = (
"548 -3 OFFCURVE",
"538 5 OFFCURVE",
"534 12 CURVE SMOOTH",
"90 797 LINE SMOOTH",
"88 801 OFFCURVE",
"83 805 OFFCURVE",
"76 801 CURVE SMOOTH",
"69 797 OFFCURVE",
"71 790 OFFCURVE",
"73 787 CURVE SMOOTH",
"494 42 LINE SMOOTH",
"495 41 OFFCURVE",
"498 35 OFFCURVE",
"498 28 CURVE SMOOTH",
"499 16 OFFCURVE",
"494 7 OFFCURVE",
"483 1 CURVE SMOOTH",
"464 -10 OFFCURVE",
"448 2 OFFCURVE",
"442 12 CURVE SMOOTH",
"306 252 LINE SMOOTH",
"304 257 OFFCURVE",
"300 257 OFFCURVE",
"298 257 CURVE SMOOTH",
"296 257 OFFCURVE",
"292 257 OFFCURVE",
"289 252 CURVE SMOOTH",
"153 12 LINE SMOOTH",
"147 2 OFFCURVE",
"132 -10 OFFCURVE",
"112 1 CURVE SMOOTH",
"93 12 OFFCURVE",
"95 31 OFFCURVE",
"101 42 CURVE SMOOTH",
"262 327 LINE SMOOTH",
"264 330 OFFCURVE",
"265 336 OFFCURVE",
"258 340 CURVE SMOOTH",
"254 343 OFFCURVE",
"251 342 OFFCURVE",
"249 340 CURVE SMOOTH",
"246 339 OFFCURVE",
"245 336 OFFCURVE",
"245 336 CURVE",
"61 12 LINE SMOOTH",
"56 2 OFFCURVE",
"40 -10 OFFCURVE",
"21 1 CURVE SMOOTH",
"1 12 OFFCURVE",
"3 31 OFFCURVE",
"9 42 CURVE SMOOTH",
"215 405 LINE SMOOTH",
"216 408 OFFCURVE",
"216 412 OFFCURVE",
"215 415 CURVE SMOOTH",
"-6 805 LINE SMOOTH",
"-9 810 OFFCURVE",
"-7 816 OFFCURVE",
"-2 818 CURVE SMOOTH",
"2 821 OFFCURVE",
"9 820 OFFCURVE",
"11 815 CURVE SMOOTH",
"232 425 LINE SMOOTH",
"237 415 OFFCURVE",
"237 404 OFFCURVE",
"232 395 CURVE SMOOTH",
"27 32 LINE SMOOTH",
"25 28 OFFCURVE",
"23 22 OFFCURVE",
"30 18 CURVE SMOOTH",
"38 14 OFFCURVE",
"43 20 OFFCURVE",
"44 22 CURVE SMOOTH",
"227 346 LINE SMOOTH",
"228 347 OFFCURVE",
"231 353 OFFCURVE",
"238 357 CURVE SMOOTH",
"247 363 OFFCURVE",
"258 363 OFFCURVE",
"268 358 CURVE SMOOTH",
"287 347 OFFCURVE",
"286 327 OFFCURVE",
"280 317 CURVE SMOOTH",
"119 32 LINE SMOOTH",
"116 28 OFFCURVE",
"115 22 OFFCURVE",
"122 18 CURVE SMOOTH",
"130 14 OFFCURVE",
"134 20 OFFCURVE",
"136 22 CURVE SMOOTH",
"272 262 LINE SMOOTH",
"277 272 OFFCURVE",
"287 277 OFFCURVE",
"298 277 CURVE SMOOTH",
"309 277 OFFCURVE",
"318 272 OFFCURVE",
"324 262 CURVE SMOOTH",
"460 22 LINE SMOOTH",
"462 18 OFFCURVE",
"466 15 OFFCURVE",
"473 18 CURVE SMOOTH",
"478 21 OFFCURVE",
"479 24 OFFCURVE",
"478 27 CURVE SMOOTH",
"478 30 OFFCURVE",
"477 32 OFFCURVE",
"477 32 CURVE",
"55 778 LINE SMOOTH",
"49 788 OFFCURVE",
"47 808 OFFCURVE",
"67 818 CURVE SMOOTH",
"77 824 OFFCURVE",
"88 824 OFFCURVE",
"97 818 CURVE SMOOTH",
"103 814 OFFCURVE",
"107 808 OFFCURVE",
"107 807 CURVE SMOOTH",
"551 22 LINE SMOOTH",
"554 18 OFFCURVE",
"558 15 OFFCURVE",
"565 18 CURVE SMOOTH",
"570 21 OFFCURVE",
"570 24 OFFCURVE",
"570 27 CURVE SMOOTH",
"570 30 OFFCURVE",
"569 32 OFFCURVE",
"569 32 CURVE",
"364 395 LINE SMOOTH",
"358 404 OFFCURVE",
"358 415 OFFCURVE",
"364 425 CURVE SMOOTH",
"569 787 LINE SMOOTH",
"571 791 OFFCURVE",
"572 797 OFFCURVE",
"565 801 CURVE SMOOTH",
"558 805 OFFCURVE",
"554 801 OFFCURVE",
"551 797 CURVE SMOOTH",
"368 473 LINE SMOOTH",
"362 463 OFFCURVE",
"346 451 OFFCURVE",
"327 462 CURVE SMOOTH",
"317 468 OFFCURVE",
"311 477 OFFCURVE",
"312 489 CURVE SMOOTH",
"312 496 OFFCURVE",
"315 502 OFFCURVE",
"316 503 CURVE SMOOTH",
"477 787 LINE SMOOTH",
"479 791 OFFCURVE",
"480 797 OFFCURVE",
"473 801 CURVE SMOOTH",
"466 805 OFFCURVE",
"462 801 OFFCURVE",
"460 797 CURVE SMOOTH",
"324 557 LINE SMOOTH",
"318 548 OFFCURVE",
"309 542 OFFCURVE",
"298 542 CURVE SMOOTH",
"287 542 OFFCURVE",
"277 548 OFFCURVE",
"272 557 CURVE SMOOTH",
"132 805 LINE SMOOTH",
"129 810 OFFCURVE",
"131 816 OFFCURVE",
"135 818 CURVE SMOOTH",
"140 821 OFFCURVE",
"146 820 OFFCURVE",
"149 815 CURVE SMOOTH",
"289 567 LINE SMOOTH",
"292 563 OFFCURVE",
"296 562 OFFCURVE",
"298 562 CURVE SMOOTH",
"300 562 OFFCURVE",
"304 563 OFFCURVE",
"306 567 CURVE SMOOTH",
"442 807 LINE SMOOTH",
"448 818 OFFCURVE",
"464 829 OFFCURVE",
"483 818 CURVE SMOOTH",
"494 813 OFFCURVE",
"499 803 OFFCURVE",
"498 792 CURVE SMOOTH",
"498 784 OFFCURVE",
"495 779 OFFCURVE",
"494 778 CURVE SMOOTH",
"333 493 LINE SMOOTH",
"331 489 OFFCURVE",
"330 483 OFFCURVE",
"337 479 CURVE SMOOTH",
"344 475 OFFCURVE",
"348 479 OFFCURVE",
"351 483 CURVE SMOOTH",
"534 807 LINE SMOOTH",
"540 818 OFFCURVE",
"556 829 OFFCURVE",
"575 818 CURVE SMOOTH",
"585 813 OFFCURVE",
"591 803 OFFCURVE",
"590 792 CURVE SMOOTH",
"590 784 OFFCURVE",
"587 779 OFFCURVE",
"586 778 CURVE SMOOTH",
"381 415 LINE SMOOTH",
"379 412 OFFCURVE",
"379 408 OFFCURVE",
"381 405 CURVE SMOOTH",
"586 42 LINE SMOOTH",
"587 41 OFFCURVE",
"590 35 OFFCURVE",
"590 28 CURVE SMOOTH",
"591 16 OFFCURVE",
"585 7 OFFCURVE",
"575 1 CURVE SMOOTH",
"570 -2 OFFCURVE",
"564 -3 OFFCURVE",
"560 -3 CURVE SMOOTH"
);
}
);
width = 600;
}
);
leftKerningGroup = X;
rightKerningGroup = X;
unicode = 0058;
},
{
glyphname = Y;
lastChange = "2015-06-05 10:02:07 +0000";
layers = (
{
layerId = "6FC19134-58B3-4B2A-889D-9A5D8CFAFAD6";
name = Regular;
paths = (
{
closed = 1;
nodes = (
"357 0 OFFCURVE",
"349 18 OFFCURVE",
"349 30 CURVE SMOOTH",
"349 314 LINE SMOOTH",
"349 315 OFFCURVE",
"349 317 OFFCURVE",
"348 318 CURVE SMOOTH",
"115 796 LINE SMOOTH",
"113 800 OFFCURVE",
"109 804 OFFCURVE",
"102 801 CURVE SMOOTH",
"94 797 OFFCURVE",
"95 792 OFFCURVE",
"97 787 CURVE SMOOTH",
"326 318 LINE SMOOTH",
"328 314 OFFCURVE",
"329 309 OFFCURVE",
"329 305 CURVE SMOOTH",
"329 30 LINE SMOOTH",
"329 18 OFFCURVE",
"321 0 OFFCURVE",
"299 0 CURVE SMOOTH",
"277 0 OFFCURVE",
"269 18 OFFCURVE",
"269 30 CURVE SMOOTH",
"269 295 LINE SMOOTH",
"269 297 OFFCURVE",
"269 298 OFFCURVE",
"268 300 CURVE SMOOTH",
"21 806 LINE SMOOTH",
"19 810 OFFCURVE",
"21 816 OFFCURVE",
"26 819 CURVE SMOOTH",
"31 821 OFFCURVE",
"37 819 OFFCURVE",
"39 814 CURVE SMOOTH",
"286 308 LINE SMOOTH",
"288 304 OFFCURVE",
"289 300 OFFCURVE",
"289 295 CURVE SMOOTH",
"289 30 LINE SMOOTH",
"289 25 OFFCURVE",
"291 20 OFFCURVE",
"299 20 CURVE SMOOTH",
"307 20 OFFCURVE",
"309 25 OFFCURVE",
"309 30 CURVE SMOOTH",
"309 305 LINE SMOOTH",
"309 306 OFFCURVE",
"309 308 OFFCURVE",
"308 309 CURVE SMOOTH",
"79 779 LINE SMOOTH",
"78 780 OFFCURVE",
"76 786 OFFCURVE",
"76 793 CURVE SMOOTH",
"76 805 OFFCURVE",
"82 814 OFFCURVE",
"93 819 CURVE SMOOTH",
"104 824 OFFCURVE",
"114 823 OFFCURVE",
"123 817 CURVE SMOOTH",
"129 812 OFFCURVE",
"132 806 OFFCURVE",
"133 805 CURVE SMOOTH",
"366 327 LINE SMOOTH",
"368 323 OFFCURVE",
"369 318 OFFCURVE",
"369 314 CURVE SMOOTH",
"369 30 LINE SMOOTH",
"369 25 OFFCURVE",
"371 20 OFFCURVE",
"379 20 CURVE SMOOTH",
"387 20 OFFCURVE",
"389 25 OFFCURVE",
"389 30 CURVE SMOOTH",
"389 295 LINE SMOOTH",
"389 300 OFFCURVE",
"390 304 OFFCURVE",
"392 308 CURVE SMOOTH",
"626 788 LINE SMOOTH",
"628 792 OFFCURVE",
"629 797 OFFCURVE",
"621 801 CURVE SMOOTH",
"614 804 OFFCURVE",
"610 800 OFFCURVE",
"608 796 CURVE SMOOTH",
"410 391 LINE SMOOTH",
"405 381 OFFCURVE",
"395 375 OFFCURVE",
"384 375 CURVE SMOOTH",
"372 375 OFFCURVE",
"362 381 OFFCURVE",
"357 391 CURVE SMOOTH",
"353 400 OFFCURVE",
"353 410 OFFCURVE",
"357 418 CURVE SMOOTH",
"537 788 LINE SMOOTH",
"539 792 OFFCURVE",
"539 797 OFFCURVE",
"532 801 CURVE SMOOTH",
"525 804 OFFCURVE",
"521 800 OFFCURVE",
"519 796 CURVE SMOOTH",
"366 483 LINE SMOOTH",
"361 473 OFFCURVE",
"351 466 OFFCURVE",
"339 466 CURVE SMOOTH",
"328 466 OFFCURVE",
"317 473 OFFCURVE",
"312 483 CURVE SMOOTH",
"155 806 LINE SMOOTH",
"153 810 OFFCURVE",
"155 816 OFFCURVE",
"160 819 CURVE SMOOTH",
"164 821 OFFCURVE",
"170 819 OFFCURVE",
"173 814 CURVE SMOOTH",
"330 492 LINE SMOOTH",
"334 485 OFFCURVE",
"345 485 OFFCURVE",
"348 492 CURVE SMOOTH",
"501 805 LINE SMOOTH",
"501 806 OFFCURVE",
"504 812 OFFCURVE",
"510 817 CURVE SMOOTH",
"519 823 OFFCURVE",
"530 824 OFFCURVE",
"541 819 CURVE SMOOTH",
"552 814 OFFCURVE",
"558 805 OFFCURVE",
"558 793 CURVE SMOOTH",
"558 786 OFFCURVE",
"555 780 OFFCURVE",
"555 779 CURVE SMOOTH",
"375 409 LINE SMOOTH",
"373 407 OFFCURVE",
"373 403 OFFCURVE",
"375 401 CURVE SMOOTH",
"378 393 OFFCURVE",
"389 393 OFFCURVE",
"392 400 CURVE SMOOTH",
"590 805 LINE SMOOTH",
"590 806 OFFCURVE",
"593 812 OFFCURVE",
"599 817 CURVE SMOOTH",
"608 823 OFFCURVE",
"619 824 OFFCURVE",
"630 819 CURVE SMOOTH",
"641 814 OFFCURVE",
"647 805 OFFCURVE",
"647 793 CURVE SMOOTH",
"647 786 OFFCURVE",
"644 780 OFFCURVE",
"644 779 CURVE SMOOTH",
"410 300 LINE SMOOTH",
"410 298 OFFCURVE",
"409 297 OFFCURVE",
"409 295 CURVE SMOOTH",
"409 30 LINE SMOOTH",
"409 18 OFFCURVE",
"401 0 OFFCURVE",
"379 0 CURVE SMOOTH"
);
}
);
width = 667;
}
);
unicode = 0059;
},
{
glyphname = Z;
lastChange = "2015-06-05 00:31:57 +0000";
layers = (
{
layerId = "6FC19134-58B3-4B2A-889D-9A5D8CFAFAD6";
name = Regular;
paths = (
{
closed = 1;
nodes = (
"486 822 OFFCURVE",
"481 820 OFFCURVE",
"475 817 CURVE SMOOTH",
"469 812 OFFCURVE",
"467 806 OFFCURVE",
"466 805 CURVE SMOOTH",
"143 144 LINE SMOOTH",
"142 142 OFFCURVE",
"140 138 OFFCURVE",
"135 138 CURVE SMOOTH",
"134 138 OFFCURVE",
"132 138 OFFCURVE",
"130 139 CURVE SMOOTH",
"123 143 OFFCURVE",
"123 148 OFFCURVE",
"125 152 CURVE SMOOTH",
"430 777 LINE SMOOTH",
"434 786 OFFCURVE",
"434 797 OFFCURVE",
"428 806 CURVE SMOOTH",
"423 815 OFFCURVE",
"413 820 OFFCURVE",
"403 820 CURVE SMOOTH",
"30 820 LINE SMOOTH",
"18 820 OFFCURVE",
"0 812 OFFCURVE",
"0 790 CURVE SMOOTH",
"0 768 OFFCURVE",
"18 760 OFFCURVE",
"30 760 CURVE SMOOTH",
"341 760 LINE SMOOTH",
"346 760 OFFCURVE",
"351 758 OFFCURVE",
"351 750 CURVE SMOOTH",
"351 742 OFFCURVE",
"346 740 OFFCURVE",
"341 740 CURVE SMOOTH",
"30 740 LINE SMOOTH",
"18 740 OFFCURVE",
"0 732 OFFCURVE",
"0 710 CURVE SMOOTH",
"0 688 OFFCURVE",
"18 680 OFFCURVE",
"30 680 CURVE SMOOTH",
"300 680 LINE SMOOTH",
"305 680 OFFCURVE",
"307 677 OFFCURVE",
"308 675 CURVE SMOOTH",
"309 674 OFFCURVE",
"311 670 OFFCURVE",
"309 666 CURVE SMOOTH",
"44 123 LINE SMOOTH",
"40 114 OFFCURVE",
"40 103 OFFCURVE",
"46 94 CURVE SMOOTH",
"51 85 OFFCURVE",
"61 80 OFFCURVE",
"71 80 CURVE SMOOTH",
"496 80 LINE SMOOTH",
"501 80 OFFCURVE",
"506 78 OFFCURVE",
"506 70 CURVE SMOOTH",
"506 62 OFFCURVE",
"501 60 OFFCURVE",
"496 60 CURVE SMOOTH",
"30 60 LINE SMOOTH",
"18 60 OFFCURVE",
"0 52 OFFCURVE",
"0 30 CURVE SMOOTH",
"0 8 OFFCURVE",
"18 0 OFFCURVE",
"30 0 CURVE SMOOTH",
"516 0 LINE SMOOTH",
"522 0 OFFCURVE",
"526 4 OFFCURVE",
"526 10 CURVE SMOOTH",
"526 16 OFFCURVE",
"522 20 OFFCURVE",
"516 20 CURVE SMOOTH",
"30 20 LINE SMOOTH",
"25 20 OFFCURVE",
"20 22 OFFCURVE",
"20 30 CURVE SMOOTH",
"20 38 OFFCURVE",
"25 40 OFFCURVE",
"30 40 CURVE SMOOTH",
"496 40 LINE SMOOTH",
"508 40 OFFCURVE",
"526 48 OFFCURVE",
"526 70 CURVE SMOOTH",
"526 92 OFFCURVE",
"508 100 OFFCURVE",
"496 100 CURVE SMOOTH",
"71 100 LINE SMOOTH",
"66 100 OFFCURVE",
"64 103 OFFCURVE",
"63 105 CURVE SMOOTH",
"62 106 OFFCURVE",
"60 110 OFFCURVE",
"62 114 CURVE SMOOTH",
"327 657 LINE SMOOTH",
"331 666 OFFCURVE",
"331 677 OFFCURVE",
"325 686 CURVE SMOOTH",
"320 695 OFFCURVE",
"310 700 OFFCURVE",
"300 700 CURVE SMOOTH",
"30 700 LINE SMOOTH",
"25 700 OFFCURVE",
"20 702 OFFCURVE",
"20 710 CURVE SMOOTH",
"20 718 OFFCURVE",
"25 720 OFFCURVE",
"30 720 CURVE SMOOTH",
"341 720 LINE SMOOTH",
"353 720 OFFCURVE",
"371 728 OFFCURVE",
"371 750 CURVE SMOOTH",
"371 772 OFFCURVE",
"353 780 OFFCURVE",
"341 780 CURVE SMOOTH",
"30 780 LINE SMOOTH",
"25 780 OFFCURVE",
"20 782 OFFCURVE",
"20 790 CURVE SMOOTH",
"20 798 OFFCURVE",
"25 800 OFFCURVE",
"30 800 CURVE SMOOTH",
"403 800 LINE SMOOTH",
"408 800 OFFCURVE",
"411 797 OFFCURVE",
"411 795 CURVE SMOOTH",
"412 794 OFFCURVE",
"414 790 OFFCURVE",
"412 786 CURVE SMOOTH",
"107 161 LINE SMOOTH",
"102 150 OFFCURVE",
"101 131 OFFCURVE",
"121 121 CURVE SMOOTH",
"126 119 OFFCURVE",
"131 118 OFFCURVE",
"135 118 CURVE SMOOTH",
"148 118 OFFCURVE",
"157 127 OFFCURVE",
"161 135 CURVE SMOOTH",
"484 796 LINE SMOOTH",
"485 799 OFFCURVE",
"488 802 OFFCURVE",
"492 802 CURVE SMOOTH",
"494 802 OFFCURVE",
"495 802 OFFCURVE",
"497 801 CURVE SMOOTH",
"505 797 OFFCURVE",
"504 792 OFFCURVE",
"502 788 CURVE SMOOTH",
"197 163 LINE SMOOTH",
"193 154 OFFCURVE",
"193 143 OFFCURVE",
"199 134 CURVE SMOOTH",
"204 125 OFFCURVE",
"214 120 OFFCURVE",
"224 120 CURVE SMOOTH",
"516 120 LINE SMOOTH",
"522 120 OFFCURVE",
"526 124 OFFCURVE",
"526 130 CURVE SMOOTH",
"526 136 OFFCURVE",
"522 140 OFFCURVE",
"516 140 CURVE SMOOTH",
"224 140 LINE SMOOTH",
"219 140 OFFCURVE",
"217 143 OFFCURVE",
"216 145 CURVE SMOOTH",
"215 146 OFFCURVE",
"213 150 OFFCURVE",
"215 154 CURVE SMOOTH",
"520 779 LINE SMOOTH",
"520 780 OFFCURVE",
"523 786 OFFCURVE",
"523 793 CURVE SMOOTH",
"523 805 OFFCURVE",
"517 814 OFFCURVE",
"506 819 CURVE SMOOTH",
"501 821 OFFCURVE",
"497 822 OFFCURVE",
"492 822 CURVE SMOOTH"
);
}
);
width = 525;
}
);
leftKerningGroup = Z;
rightKerningGroup = Z;
unicode = 005A;
},
{
glyphname = a;
lastChange = "2015-06-05 10:52:29 +0000";
layers = (
{
layerId = "6FC19134-58B3-4B2A-889D-9A5D8CFAFAD6";
name = Regular;
paths = (
{
closed = 1;
nodes = (
"379 821 OFFCURVE",
"369 811 OFFCURVE",
"366 802 CURVE SMOOTH",
"59 25 LINE SMOOTH",
"58 22 OFFCURVE",
"56 18 OFFCURVE",
"51 18 CURVE SMOOTH",
"50 18 OFFCURVE",
"48 18 OFFCURVE",
"46 19 CURVE SMOOTH",
"39 22 OFFCURVE",
"39 28 OFFCURVE",
"41 32 CURVE SMOOTH",
"346 806 LINE SMOOTH",
"348 811 OFFCURVE",
"345 817 OFFCURVE",
"340 819 CURVE SMOOTH",
"339 820 OFFCURVE",
"338 820 OFFCURVE",
"336 820 CURVE SMOOTH",
"332 820 OFFCURVE",
"329 817 OFFCURVE",
"327 813 CURVE SMOOTH",
"22 39 LINE SMOOTH",
"18 28 OFFCURVE",
"19 8 OFFCURVE",
"39 0 CURVE SMOOTH",
"43 -1 OFFCURVE",
"47 -2 OFFCURVE",
"51 -2 CURVE SMOOTH",
"65 -2 OFFCURVE",
"74 8 OFFCURVE",
"78 17 CURVE SMOOTH",
"384 795 LINE SMOOTH",
"385 797 OFFCURVE",
"387 801 OFFCURVE",
"393 801 CURVE SMOOTH",
"394 801 OFFCURVE",
"395 801 OFFCURVE",
"397 800 CURVE SMOOTH",
"405 797 OFFCURVE",
"404 792 OFFCURVE",
"403 787 CURVE SMOOTH",
"108 39 LINE SMOOTH",
"104 28 OFFCURVE",
"105 8 OFFCURVE",
"125 0 CURVE SMOOTH",
"129 -1 OFFCURVE",
"133 -2 OFFCURVE",
"137 -2 CURVE SMOOTH",
"151 -2 OFFCURVE",
"160 8 OFFCURVE",
"164 17 CURVE SMOOTH",
"473 801 LINE",
"775 32 LINE SMOOTH",
"777 28 OFFCURVE",
"777 22 OFFCURVE",
"770 19 CURVE SMOOTH",
"768 18 OFFCURVE",
"767 18 OFFCURVE",
"765 18 CURVE SMOOTH",
"761 18 OFFCURVE",
"758 21 OFFCURVE",
"757 25 CURVE SMOOTH",
"497 684 LINE SMOOTH",
"494 693 OFFCURVE",
"484 703 OFFCURVE",
"470 703 CURVE SMOOTH",
"466 703 OFFCURVE",
"462 703 OFFCURVE",
"458 701 CURVE SMOOTH",
"447 696 OFFCURVE",
"440 688 OFFCURVE",
"439 677 CURVE SMOOTH",
"439 669 OFFCURVE",
"441 663 OFFCURVE",
"441 662 CURVE SMOOTH",
"689 32 LINE SMOOTH",
"691 28 OFFCURVE",
"691 22 OFFCURVE",
"684 19 CURVE SMOOTH",
"682 18 OFFCURVE",
"681 18 OFFCURVE",
"679 18 CURVE SMOOTH",
"675 18 OFFCURVE",
"672 21 OFFCURVE",
"671 25 CURVE SMOOTH",
"619 157 LINE SMOOTH",
"616 165 OFFCURVE",
"608 170 OFFCURVE",
"600 170 CURVE SMOOTH",
"280 170 LINE SMOOTH",
"276 170 OFFCURVE",
"270 172 OFFCURVE",
"270 180 CURVE SMOOTH",
"270 188 OFFCURVE",
"276 190 OFFCURVE",
"280 190 CURVE SMOOTH",
"563 190 LINE SMOOTH",
"575 190 OFFCURVE",
"593 198 OFFCURVE",
"593 220 CURVE SMOOTH",
"593 242 OFFCURVE",
"575 250 OFFCURVE",
"563 250 CURVE SMOOTH",
"312 250 LINE SMOOTH",
"307 250 OFFCURVE",
"302 252 OFFCURVE",
"302 260 CURVE SMOOTH",
"302 268 OFFCURVE",
"307 270 OFFCURVE",
"312 270 CURVE SMOOTH",
"545 270 LINE SMOOTH",
"552 270 OFFCURVE",
"558 273 OFFCURVE",
"561 278 CURVE SMOOTH",
"565 284 OFFCURVE",
"566 291 OFFCURVE",
"563 297 CURVE SMOOTH",
"439 613 LINE SMOOTH",
"437 617 OFFCURVE",
"434 620 OFFCURVE",
"430 620 CURVE SMOOTH",
"428 620 OFFCURVE",
"427 620 OFFCURVE",
"426 619 CURVE SMOOTH",
"421 617 OFFCURVE",
"418 611 OFFCURVE",
"420 606 CURVE SMOOTH",
"545 290 LINE",
"312 290 LINE SMOOTH",
"300 290 OFFCURVE",
"282 282 OFFCURVE",
"282 260 CURVE SMOOTH",
"282 238 OFFCURVE",
"300 230 OFFCURVE",
"312 230 CURVE SMOOTH",
"563 230 LINE SMOOTH",
"568 230 OFFCURVE",
"573 228 OFFCURVE",
"573 220 CURVE SMOOTH",
"573 212 OFFCURVE",
"568 210 OFFCURVE",
"563 210 CURVE SMOOTH",
"280 210 LINE SMOOTH",
"268 210 OFFCURVE",
"250 202 OFFCURVE",
"250 180 CURVE SMOOTH",
"250 158 OFFCURVE",
"268 150 OFFCURVE",
"280 150 CURVE SMOOTH",
"600 150 LINE",
"652 17 LINE SMOOTH",
"656 8 OFFCURVE",
"665 -2 OFFCURVE",
"679 -2 CURVE SMOOTH",
"683 -2 OFFCURVE",
"687 -1 OFFCURVE",
"691 0 CURVE SMOOTH",
"712 8 OFFCURVE",
"712 28 OFFCURVE",
"708 39 CURVE SMOOTH",
"460 669 LINE SMOOTH",
"460 669 OFFCURVE",
"459 672 OFFCURVE",
"459 675 CURVE SMOOTH",
"459 677 OFFCURVE",
"460 680 OFFCURVE",
"465 682 CURVE SMOOTH",
"467 683 OFFCURVE",
"469 683 OFFCURVE",
"470 683 CURVE SMOOTH",
"475 683 OFFCURVE",
"477 680 OFFCURVE",
"478 677 CURVE SMOOTH",
"738 17 LINE SMOOTH",
"742 8 OFFCURVE",
"751 -2 OFFCURVE",
"765 -2 CURVE SMOOTH",
"769 -2 OFFCURVE",
"773 -1 OFFCURVE",
"777 0 CURVE SMOOTH",
"798 8 OFFCURVE",
"798 28 OFFCURVE",
"794 39 CURVE SMOOTH",
"491 808 LINE SMOOTH",
"488 816 OFFCURVE",
"481 821 OFFCURVE",
"473 821 CURVE SMOOTH",
"464 821 OFFCURVE",
"457 816 OFFCURVE",
"454 808 CURVE SMOOTH",
"145 25 LINE SMOOTH",
"144 22 OFFCURVE",
"142 18 OFFCURVE",
"137 18 CURVE SMOOTH",
"136 18 OFFCURVE",
"134 18 OFFCURVE",
"132 19 CURVE SMOOTH",
"125 22 OFFCURVE",
"125 28 OFFCURVE",
"127 32 CURVE SMOOTH",
"421 780 LINE SMOOTH",
"426 791 OFFCURVE",
"425 811 OFFCURVE",
"405 819 CURVE SMOOTH",
"400 821 OFFCURVE",
"396 821 OFFCURVE",
"393 821 CURVE SMOOTH"
);
}
);
width = 816;
}
);
leftKerningGroup = A;
leftMetricsKey = A;
rightKerningGroup = A;
rightMetricsKey = A;
unicode = 0061;
},
{
glyphname = b;
lastChange = "2015-06-05 10:52:29 +0000";
layers = (
{
layerId = "6FC19134-58B3-4B2A-889D-9A5D8CFAFAD6";
name = Regular;
paths = (
{
closed = 1;
nodes = (
"240 0 LINE SMOOTH",
"231 0 OFFCURVE",
"223 4 OFFCURVE",
"217 10 CURVE SMOOTH",
"211 17 OFFCURVE",
"209 26 OFFCURVE",
"210 35 CURVE SMOOTH",
"213 49 OFFCURVE",
"226 60 OFFCURVE",
"241 60 CURVE SMOOTH",
"245 60 LINE SMOOTH",
"302 60 OFFCURVE",
"359 84 OFFCURVE",
"400 125 CURVE SMOOTH",
"439 166 OFFCURVE",
"461 218 OFFCURVE",
"460 273 CURVE SMOOTH",
"459 332 OFFCURVE",
"434 387 OFFCURVE",
"390 426 CURVE SMOOTH",
"388 428 OFFCURVE",
"387 431 OFFCURVE",
"387 433 CURVE SMOOTH",
"387 436 OFFCURVE",
"387 439 OFFCURVE",
"389 441 CURVE SMOOTH",
"424 477 OFFCURVE",
"442 526 OFFCURVE",
"440 576 CURVE SMOOTH",
"436 677 OFFCURVE",
"349 760 OFFCURVE",
"245 760 CURVE SMOOTH",
"240 760 LINE SMOOTH",
"237 760 OFFCURVE",
"234 758 OFFCURVE",
"232 756 CURVE SMOOTH",
"230 754 OFFCURVE",
"230 751 OFFCURVE",
"230 748 CURVE SMOOTH",
"231 743 OFFCURVE",
"236 740 OFFCURVE",
"241 740 CURVE SMOOTH",
"246 740 LINE SMOOTH",
"292 740 OFFCURVE",
"338 720 OFFCURVE",
"371 687 CURVE SMOOTH",
"403 654 OFFCURVE",
"421 612 OFFCURVE",
"420 567 CURVE SMOOTH",
"419 513 OFFCURVE",
"392 463 OFFCURVE",
"349 432 CURVE",
"406 397 OFFCURVE",
"441 334 OFFCURVE",
"440 267 CURVE SMOOTH",
"439 164 OFFCURVE",
"351 80 OFFCURVE",
"245 80 CURVE SMOOTH",
"240 80 LINE SMOOTH",
"231 80 OFFCURVE",
"223 84 OFFCURVE",
"217 90 CURVE SMOOTH",
"211 97 OFFCURVE",
"209 106 OFFCURVE",
"210 115 CURVE SMOOTH",
"213 129 OFFCURVE",
"226 140 OFFCURVE",
"241 140 CURVE SMOOTH",
"250 140 LINE SMOOTH",
"286 140 OFFCURVE",
"319 154 OFFCURVE",
"344 180 CURVE SMOOTH",
"369 206 OFFCURVE",
"382 240 OFFCURVE",
"380 276 CURVE SMOOTH",
"377 345 OFFCURVE",
"318 400 OFFCURVE",
"246 400 CURVE SMOOTH",
"240 400 LINE SMOOTH",
"231 400 OFFCURVE",
"223 404 OFFCURVE",
"217 410 CURVE SMOOTH",
"211 417 OFFCURVE",
"209 426 OFFCURVE",
"210 435 CURVE SMOOTH",
"213 449 OFFCURVE",
"226 460 OFFCURVE",
"241 460 CURVE SMOOTH",
"250 460 LINE SMOOTH",
"280 460 OFFCURVE",
"308 471 OFFCURVE",
"328 493 CURVE SMOOTH",
"349 514 OFFCURVE",
"361 542 OFFCURVE",
"360 572 CURVE SMOOTH",
"359 631 OFFCURVE",
"308 680 OFFCURVE",
"246 680 CURVE SMOOTH",
"220 680 LINE SMOOTH",
"214 680 OFFCURVE",
"210 684 OFFCURVE",
"210 690 CURVE SMOOTH",
"210 695 OFFCURVE",
"214 700 OFFCURVE",
"220 700 CURVE SMOOTH",
"246 700 LINE SMOOTH",
"319 700 OFFCURVE",
"379 642 OFFCURVE",
"380 572 CURVE SMOOTH",
"381 537 OFFCURVE",
"367 504 OFFCURVE",
"343 479 CURVE SMOOTH",
"318 454 OFFCURVE",
"285 440 OFFCURVE",
"250 440 CURVE SMOOTH",
"241 440 LINE SMOOTH",
"236 440 OFFCURVE",
"231 436 OFFCURVE",
"230 431 CURVE SMOOTH",
"230 428 OFFCURVE",
"230 426 OFFCURVE",
"232 423 CURVE SMOOTH",
"234 421 OFFCURVE",
"237 420 OFFCURVE",
"240 420 CURVE SMOOTH",
"246 420 LINE SMOOTH",
"329 420 OFFCURVE",
"396 357 OFFCURVE",
"400 277 CURVE SMOOTH",
"402 235 OFFCURVE",
"387 196 OFFCURVE",
"359 166 CURVE SMOOTH",
"330 136 OFFCURVE",
"291 120 OFFCURVE",
"250 120 CURVE SMOOTH",
"241 120 LINE SMOOTH",
"236 120 OFFCURVE",
"231 116 OFFCURVE",
"230 111 CURVE SMOOTH",
"230 108 OFFCURVE",
"230 106 OFFCURVE",
"232 103 CURVE SMOOTH",
"234 101 OFFCURVE",
"237 100 OFFCURVE",
"240 100 CURVE SMOOTH",
"245 100 LINE SMOOTH",
"340 100 OFFCURVE",
"419 175 OFFCURVE",
"420 268 CURVE SMOOTH",
"421 333 OFFCURVE",
"384 393 OFFCURVE",
"325 422 CURVE SMOOTH",
"322 424 OFFCURVE",
"320 427 OFFCURVE",
"320 431 CURVE SMOOTH",
"320 434 OFFCURVE",
"322 438 OFFCURVE",
"325 440 CURVE SMOOTH",
"370 466 OFFCURVE",
"399 515 OFFCURVE",
"400 567 CURVE SMOOTH",
"401 606 OFFCURVE",
"385 644 OFFCURVE",
"357 673 CURVE SMOOTH",
"328 703 OFFCURVE",
"287 720 OFFCURVE",
"246 720 CURVE SMOOTH",
"241 720 LINE SMOOTH",
"226 720 OFFCURVE",
"213 730 OFFCURVE",
"210 745 CURVE SMOOTH",
"209 754 OFFCURVE",
"211 762 OFFCURVE",
"217 769 CURVE SMOOTH",
"223 776 OFFCURVE",
"231 780 OFFCURVE",
"240 780 CURVE SMOOTH",
"245 780 LINE SMOOTH",
"360 780 OFFCURVE",
"456 689 OFFCURVE",
"460 577 CURVE SMOOTH",
"462 524 OFFCURVE",
"444 474 OFFCURVE",
"411 434 CURVE",
"454 392 OFFCURVE",
"479 334 OFFCURVE",
"480 274 CURVE SMOOTH",
"481 213 OFFCURVE",
"458 155 OFFCURVE",
"414 111 CURVE SMOOTH",
"369 66 OFFCURVE",
"308 40 OFFCURVE",
"245 40 CURVE SMOOTH",
"241 40 LINE SMOOTH",
"236 40 OFFCURVE",
"231 36 OFFCURVE",
"230 31 CURVE SMOOTH",
"230 28 OFFCURVE",
"230 26 OFFCURVE",
"232 23 CURVE SMOOTH",
"234 21 OFFCURVE",
"237 20 OFFCURVE",
"240 20 CURVE SMOOTH",
"244 20 LINE SMOOTH",
"384 20 OFFCURVE",
"499 131 OFFCURVE",
"500 267 CURVE SMOOTH",
"501 327 OFFCURVE",
"480 384 OFFCURVE",
"442 430 CURVE SMOOTH",
"439 433 OFFCURVE",
"439 438 OFFCURVE",
"441 442 CURVE SMOOTH",
"468 482 OFFCURVE",
"481 528 OFFCURVE",
"480 576 CURVE SMOOTH",
"477 699 OFFCURVE",
"371 800 OFFCURVE",
"245 800 CURVE SMOOTH",
"200 800 LINE SMOOTH",
"194 800 OFFCURVE",
"190 795 OFFCURVE",
"190 790 CURVE SMOOTH",
"190 30 LINE SMOOTH",
"190 18 OFFCURVE",
"182 0 OFFCURVE",
"160 0 CURVE SMOOTH",
"138 0 OFFCURVE",
"130 18 OFFCURVE",
"130 30 CURVE SMOOTH",
"130 790 LINE",
"130 794 OFFCURVE",
"128 800 OFFCURVE",
"120 800 CURVE SMOOTH",
"112 800 OFFCURVE",
"110 794 OFFCURVE",
"110 790 CURVE SMOOTH",
"110 30 LINE SMOOTH",
"110 18 OFFCURVE",
"102 0 OFFCURVE",
"80 0 CURVE SMOOTH",
"58 0 OFFCURVE",
"50 18 OFFCURVE",
"50 30 CURVE SMOOTH",
"50 810 LINE SMOOTH",
"50 815 OFFCURVE",
"54 820 OFFCURVE",
"60 820 CURVE SMOOTH",
"66 820 OFFCURVE",
"70 815 OFFCURVE",
"70 810 CURVE SMOOTH",
"70 30 LINE SMOOTH",
"70 25 OFFCURVE",
"72 20 OFFCURVE",
"80 20 CURVE SMOOTH",
"88 20 OFFCURVE",
"90 25 OFFCURVE",
"90 30 CURVE SMOOTH",
"90 790 LINE SMOOTH",
"90 802 OFFCURVE",
"98 820 OFFCURVE",
"120 820 CURVE SMOOTH",
"142 820 OFFCURVE",
"150 802 OFFCURVE",
"150 790 CURVE SMOOTH",
"150 30 LINE SMOOTH",
"150 25 OFFCURVE",
"152 20 OFFCURVE",
"160 20 CURVE SMOOTH",
"168 20 OFFCURVE",
"170 25 OFFCURVE",
"170 30 CURVE SMOOTH",
"170 790 LINE SMOOTH",
"170 806 OFFCURVE",
"183 820 OFFCURVE",
"200 820 CURVE SMOOTH",
"245 820 LINE SMOOTH",
"382 820 OFFCURVE",
"496 711 OFFCURVE",
"500 576 CURVE SMOOTH",
"501 527 OFFCURVE",
"488 479 OFFCURVE",
"462 437 CURVE",
"500 389 OFFCURVE",
"521 329 OFFCURVE",
"520 267 CURVE SMOOTH",
"518 120 OFFCURVE",
"394 0 OFFCURVE",
"244 0 CURVE SMOOTH"
);
}
);
width = 565;
}
);
leftKerningGroup = B;
leftMetricsKey = B;
rightKerningGroup = B;
rightMetricsKey = B;
unicode = 0062;
},
{
glyphname = c;
lastChange = "2015-06-05 10:52:29 +0000";
layers = (
{
layerId = "6FC19134-58B3-4B2A-889D-9A5D8CFAFAD6";
name = Regular;
paths = (
{
closed = 1;
nodes = (
"344 -10 OFFCURVE",
"232 39 OFFCURVE",
"153 124 CURVE SMOOTH",
"73 210 OFFCURVE",
"33 322 OFFCURVE",
"41 440 CURVE SMOOTH",
"56 645 OFFCURVE",
"221 812 OFFCURVE",
"425 829 CURVE SMOOTH",
"454 831 OFFCURVE",
"483 830 OFFCURVE",
"511 827 CURVE SMOOTH",
"517 826 OFFCURVE",
"521 821 OFFCURVE",
"520 816 CURVE SMOOTH",
"519 810 OFFCURVE",
"514 806 OFFCURVE",
"509 807 CURVE SMOOTH",
"482 810 OFFCURVE",
"454 811 OFFCURVE",
"427 809 CURVE SMOOTH",
"232 793 OFFCURVE",
"75 634 OFFCURVE",
"61 439 CURVE SMOOTH",
"53 326 OFFCURVE",
"91 219 OFFCURVE",
"168 137 CURVE SMOOTH",
"243 56 OFFCURVE",
"350 10 OFFCURVE",
"460 10 CURVE SMOOTH",
"470 10 OFFCURVE",
"481 10 OFFCURVE",
"491 11 CURVE SMOOTH",
"496 12 OFFCURVE",
"500 16 OFFCURVE",
"500 21 CURVE SMOOTH",
"500 24 OFFCURVE",
"499 27 OFFCURVE",
"497 29 CURVE SMOOTH",
"495 30 OFFCURVE",
"492 31 OFFCURVE",
"490 31 CURVE SMOOTH",
"471 30 OFFCURVE",
"452 30 OFFCURVE",
"432 31 CURVE SMOOTH",
"245 44 OFFCURVE",
"94 196 OFFCURVE",
"81 383 CURVE SMOOTH",
"74 490 OFFCURVE",
"110 591 OFFCURVE",
"182 669 CURVE SMOOTH",
"254 746 OFFCURVE",
"355 790 OFFCURVE",
"460 790 CURVE SMOOTH",
"471 790 OFFCURVE",
"482 790 OFFCURVE",
"493 789 CURVE SMOOTH",
"508 787 OFFCURVE",
"520 775 OFFCURVE",
"520 759 CURVE SMOOTH",
"520 750 OFFCURVE",
"517 742 OFFCURVE",
"511 737 CURVE SMOOTH",
"504 731 OFFCURVE",
"496 728 OFFCURVE",
"488 729 CURVE SMOOTH",
"472 730 OFFCURVE",
"456 730 OFFCURVE",
"441 729 CURVE SMOOTH",
"281 720 OFFCURVE",
"152 592 OFFCURVE",
"141 433 CURVE SMOOTH",
"135 343 OFFCURVE",
"165 257 OFFCURVE",
"226 192 CURVE SMOOTH",
"287 127 OFFCURVE",
"372 90 OFFCURVE",
"460 90 CURVE SMOOTH",
"471 90 OFFCURVE",
"481 91 OFFCURVE",
"491 92 CURVE SMOOTH",
"497 92 OFFCURVE",
"500 96 OFFCURVE",
"500 101 CURVE SMOOTH",
"500 105 OFFCURVE",
"499 107 OFFCURVE",
"497 109 CURVE SMOOTH",
"495 111 OFFCURVE",
"492 112 OFFCURVE",
"490 111 CURVE SMOOTH",
"478 110 OFFCURVE",
"466 110 OFFCURVE",
"454 110 CURVE SMOOTH",
"299 113 OFFCURVE",
"170 236 OFFCURVE",
"161 391 CURVE SMOOTH",
"156 475 OFFCURVE",
"184 554 OFFCURVE",
"242 615 CURVE SMOOTH",
"298 676 OFFCURVE",
"378 710 OFFCURVE",
"460 710 CURVE SMOOTH",
"478 710 OFFCURVE",
"495 709 OFFCURVE",
"512 706 CURVE SMOOTH",
"517 705 OFFCURVE",
"521 699 OFFCURVE",
"520 694 CURVE SMOOTH",
"519 689 OFFCURVE",
"514 685 OFFCURVE",
"508 686 CURVE SMOOTH",
"493 689 OFFCURVE",
"476 690 OFFCURVE",
"460 690 CURVE SMOOTH",
"382 690 OFFCURVE",
"310 659 OFFCURVE",
"256 602 CURVE SMOOTH",
"203 545 OFFCURVE",
"176 470 OFFCURVE",
"181 392 CURVE SMOOTH",
"190 248 OFFCURVE",
"310 133 OFFCURVE",
"455 130 CURVE SMOOTH",
"465 130 OFFCURVE",
"477 130 OFFCURVE",
"488 131 CURVE SMOOTH",
"496 132 OFFCURVE",
"504 129 OFFCURVE",
"511 124 CURVE SMOOTH",
"517 118 OFFCURVE",
"520 110 OFFCURVE",
"520 102 CURVE SMOOTH",
"520 86 OFFCURVE",
"509 73 OFFCURVE",
"493 72 CURVE SMOOTH",
"482 71 OFFCURVE",
"471 70 OFFCURVE",
"460 70 CURVE SMOOTH",
"366 70 OFFCURVE",
"276 109 OFFCURVE",
"212 178 CURVE SMOOTH",
"147 248 OFFCURVE",
"114 339 OFFCURVE",
"121 434 CURVE SMOOTH",
"133 604 OFFCURVE",
"270 739 OFFCURVE",
"440 749 CURVE SMOOTH",
"456 750 OFFCURVE",
"473 750 OFFCURVE",
"490 749 CURVE SMOOTH",
"492 748 OFFCURVE",
"495 749 OFFCURVE",
"497 751 CURVE SMOOTH",
"499 753 OFFCURVE",
"500 756 OFFCURVE",
"500 758 CURVE SMOOTH",
"500 764 OFFCURVE",
"496 768 OFFCURVE",
"491 769 CURVE SMOOTH",
"481 770 OFFCURVE",
"470 770 OFFCURVE",
"460 770 CURVE SMOOTH",
"361 770 OFFCURVE",
"265 728 OFFCURVE",
"197 656 CURVE SMOOTH",
"128 582 OFFCURVE",
"94 486 OFFCURVE",
"101 384 CURVE SMOOTH",
"113 207 OFFCURVE",
"256 64 OFFCURVE",
"434 51 CURVE SMOOTH",
"452 50 OFFCURVE",
"470 50 OFFCURVE",
"488 51 CURVE SMOOTH",
"496 52 OFFCURVE",
"505 49 OFFCURVE",
"511 43 CURVE SMOOTH",
"517 38 OFFCURVE",
"520 30 OFFCURVE",
"520 21 CURVE SMOOTH",
"520 5 OFFCURVE",
"508 -8 OFFCURVE",
"492 -9 CURVE SMOOTH",
"482 -10 OFFCURVE",
"471 -10 OFFCURVE",
"460 -10 CURVE SMOOTH"
);
}
);
width = 560;
}
);
leftKerningGroup = C;
leftMetricsKey = C;
rightKerningGroup = C;
rightMetricsKey = C;
unicode = 0063;
},
{
glyphname = d;
lastChange = "2015-06-05 10:52:29 +0000";
layers = (
{
layerId = "6FC19134-58B3-4B2A-889D-9A5D8CFAFAD6";
name = Regular;
paths = (
{
closed = 1;
nodes = (
"138 0 OFFCURVE",
"130 18 OFFCURVE",
"130 30 CURVE SMOOTH",
"130 790 LINE",
"130 794 OFFCURVE",
"128 800 OFFCURVE",
"120 800 CURVE SMOOTH",
"112 800 OFFCURVE",
"110 794 OFFCURVE",
"110 790 CURVE SMOOTH",
"110 30 LINE SMOOTH",
"110 18 OFFCURVE",
"102 0 OFFCURVE",
"80 0 CURVE SMOOTH",
"58 0 OFFCURVE",
"50 18 OFFCURVE",
"50 30 CURVE SMOOTH",
"50 810 LINE SMOOTH",
"50 815 OFFCURVE",
"54 820 OFFCURVE",
"60 820 CURVE SMOOTH",
"66 820 OFFCURVE",
"70 815 OFFCURVE",
"70 810 CURVE SMOOTH",
"70 30 LINE SMOOTH",
"70 25 OFFCURVE",
"72 20 OFFCURVE",
"80 20 CURVE SMOOTH",
"88 20 OFFCURVE",
"90 25 OFFCURVE",
"90 30 CURVE SMOOTH",
"90 790 LINE SMOOTH",
"90 802 OFFCURVE",
"98 820 OFFCURVE",
"120 820 CURVE SMOOTH",
"142 820 OFFCURVE",
"150 802 OFFCURVE",
"150 790 CURVE SMOOTH",
"150 30 LINE SMOOTH",
"150 25 OFFCURVE",
"152 20 OFFCURVE",
"160 20 CURVE SMOOTH",
"168 20 OFFCURVE",
"170 25 OFFCURVE",
"170 30 CURVE SMOOTH",
"170 790 LINE SMOOTH",
"170 806 OFFCURVE",
"183 820 OFFCURVE",
"200 820 CURVE SMOOTH",
"432 820 OFFCURVE",
"620 636 OFFCURVE",
"620 410 CURVE SMOOTH",
"620 198 OFFCURVE",
"458 23 OFFCURVE",
"243 2 CURVE SMOOTH",
"234 1 OFFCURVE",
"226 4 OFFCURVE",
"220 9 CURVE SMOOTH",
"214 15 OFFCURVE",
"210 23 OFFCURVE",
"210 32 CURVE SMOOTH",
"210 47 OFFCURVE",
"221 60 OFFCURVE",
"237 61 CURVE SMOOTH",
"421 80 OFFCURVE",
"560 229 OFFCURVE",
"560 410 CURVE SMOOTH",
"560 588 OFFCURVE",
"423 737 OFFCURVE",
"241 757 CURVE SMOOTH",
"238 758 OFFCURVE",
"235 757 OFFCURVE",
"233 755 CURVE SMOOTH",
"231 753 OFFCURVE",
"230 751 OFFCURVE",
"230 748 CURVE SMOOTH",
"230 742 OFFCURVE",
"234 738 OFFCURVE",
"239 738 CURVE SMOOTH",
"410 719 OFFCURVE",
"540 578 OFFCURVE",
"540 410 CURVE SMOOTH",
"540 244 OFFCURVE",
"413 103 OFFCURVE",
"243 82 CURVE SMOOTH",
"235 81 OFFCURVE",
"226 84 OFFCURVE",
"220 90 CURVE SMOOTH",
"214 95 OFFCURVE",
"210 103 OFFCURVE",
"210 112 CURVE SMOOTH",
"210 127 OFFCURVE",
"221 140 OFFCURVE",
"236 142 CURVE SMOOTH",
"375 159 OFFCURVE",
"480 274 OFFCURVE",
"480 410 CURVE SMOOTH",
"480 551 OFFCURVE",
"366 669 OFFCURVE",
"219 679 CURVE SMOOTH",
"214 679 OFFCURVE",
"210 684 OFFCURVE",
"210 690 CURVE SMOOTH",
"210 695 OFFCURVE",
"215 699 OFFCURVE",
"221 699 CURVE SMOOTH",
"377 689 OFFCURVE",
"500 562 OFFCURVE",
"500 410 CURVE SMOOTH",
"500 264 OFFCURVE",
"388 140 OFFCURVE",
"238 122 CURVE SMOOTH",
"234 121 OFFCURVE",
"230 117 OFFCURVE",
"230 112 CURVE SMOOTH",
"230 109 OFFCURVE",
"231 107 OFFCURVE",
"233 105 CURVE SMOOTH",
"235 103 OFFCURVE",
"238 102 OFFCURVE",
"241 102 CURVE SMOOTH",
"400 122 OFFCURVE",
"520 254 OFFCURVE",
"520 410 CURVE SMOOTH",
"520 568 OFFCURVE",
"398 700 OFFCURVE",
"236 718 CURVE SMOOTH",
"221 719 OFFCURVE",
"210 732 OFFCURVE",
"210 747 CURVE SMOOTH",
"210 756 OFFCURVE",
"214 764 OFFCURVE",
"220 770 CURVE SMOOTH",
"226 776 OFFCURVE",
"235 778 OFFCURVE",
"243 777 CURVE SMOOTH",
"435 756 OFFCURVE",
"580 598 OFFCURVE",
"580 410 CURVE SMOOTH",
"580 219 OFFCURVE",
"433 61 OFFCURVE",
"238 42 CURVE SMOOTH",
"234 41 OFFCURVE",
"230 37 OFFCURVE",
"230 32 CURVE SMOOTH",
"230 29 OFFCURVE",
"231 26 OFFCURVE",
"233 24 CURVE SMOOTH",
"235 22 OFFCURVE",
"238 21 OFFCURVE",
"241 22 CURVE SMOOTH",
"446 42 OFFCURVE",
"600 209 OFFCURVE",
"600 410 CURVE SMOOTH",
"600 625 OFFCURVE",
"421 800 OFFCURVE",
"200 800 CURVE SMOOTH",
"194 800 OFFCURVE",
"190 795 OFFCURVE",
"190 790 CURVE SMOOTH",
"190 30 LINE SMOOTH",
"190 18 OFFCURVE",
"182 0 OFFCURVE",
"160 0 CURVE SMOOTH"
);
}
);
width = 660;
}
);
leftKerningGroup = D;
leftMetricsKey = D;
rightKerningGroup = D;
rightMetricsKey = D;
unicode = 0064;
},
{
glyphname = e;
lastChange = "2015-06-05 10:52:29 +0000";
layers = (
{
layerId = "6FC19134-58B3-4B2A-889D-9A5D8CFAFAD6";
name = Regular;
paths = (
{
closed = 1;
nodes = (
"180 820 LINE SMOOTH",
"174 820 OFFCURVE",
"170 816 OFFCURVE",
"170 810 CURVE SMOOTH",
"170 804 OFFCURVE",
"174 800 OFFCURVE",
"180 800 CURVE SMOOTH",
"500 800 LINE SMOOTH",
"504 800 OFFCURVE",
"510 798 OFFCURVE",
"510 790 CURVE SMOOTH",
"510 782 OFFCURVE",
"504 780 OFFCURVE",
"500 780 CURVE SMOOTH",
"200 780 LINE SMOOTH",
"188 780 OFFCURVE",
"170 772 OFFCURVE",
"170 750 CURVE SMOOTH",
"170 728 OFFCURVE",
"188 720 OFFCURVE",
"200 720 CURVE SMOOTH",
"500 720 LINE SMOOTH",
"504 720 OFFCURVE",
"510 718 OFFCURVE",
"510 710 CURVE SMOOTH",
"510 702 OFFCURVE",
"504 700 OFFCURVE",
"500 700 CURVE SMOOTH",
"200 700 LINE SMOOTH",
"183 700 OFFCURVE",
"170 687 OFFCURVE",
"170 670 CURVE SMOOTH",
"170 490 LINE SMOOTH",
"170 473 OFFCURVE",
"183 460 OFFCURVE",
"200 460 CURVE SMOOTH",
"420 460 LINE SMOOTH",
"424 460 OFFCURVE",
"430 458 OFFCURVE",
"430 450 CURVE SMOOTH",
"430 442 OFFCURVE",
"424 440 OFFCURVE",
"420 440 CURVE SMOOTH",
"200 440 LINE SMOOTH",
"188 440 OFFCURVE",
"170 432 OFFCURVE",
"170 410 CURVE SMOOTH",
"170 388 OFFCURVE",
"188 380 OFFCURVE",
"200 380 CURVE SMOOTH",
"420 380 LINE SMOOTH",
"424 380 OFFCURVE",
"430 378 OFFCURVE",
"430 370 CURVE SMOOTH",
"430 362 OFFCURVE",
"424 360 OFFCURVE",
"420 360 CURVE SMOOTH",
"200 360 LINE SMOOTH",
"183 360 OFFCURVE",
"170 347 OFFCURVE",
"170 330 CURVE SMOOTH",
"170 150 LINE SMOOTH",
"170 133 OFFCURVE",
"183 120 OFFCURVE",
"200 120 CURVE SMOOTH",
"500 120 LINE SMOOTH",
"504 120 OFFCURVE",
"510 118 OFFCURVE",
"510 110 CURVE SMOOTH",
"510 102 OFFCURVE",
"504 100 OFFCURVE",
"500 100 CURVE SMOOTH",
"200 100 LINE SMOOTH",
"188 100 OFFCURVE",
"170 92 OFFCURVE",
"170 70 CURVE SMOOTH",
"170 48 OFFCURVE",
"188 40 OFFCURVE",
"200 40 CURVE SMOOTH",
"500 40 LINE SMOOTH",
"504 40 OFFCURVE",
"510 38 OFFCURVE",
"510 30 CURVE SMOOTH",
"510 22 OFFCURVE",
"504 20 OFFCURVE",
"500 20 CURVE SMOOTH",
"160 20 LINE SMOOTH",
"152 20 OFFCURVE",
"150 25 OFFCURVE",
"150 30 CURVE",
"150 790 LINE SMOOTH",
"150 802 OFFCURVE",
"142 820 OFFCURVE",
"120 820 CURVE SMOOTH",
"98 820 OFFCURVE",
"90 802 OFFCURVE",
"90 790 CURVE SMOOTH",
"90 30 LINE SMOOTH",
"90 25 OFFCURVE",
"88 20 OFFCURVE",
"80 20 CURVE SMOOTH",
"72 20 OFFCURVE",
"70 25 OFFCURVE",
"70 30 CURVE",
"70 810 LINE SMOOTH",
"70 816 OFFCURVE",
"66 820 OFFCURVE",
"60 820 CURVE SMOOTH",
"54 820 OFFCURVE",
"50 816 OFFCURVE",
"50 810 CURVE SMOOTH",
"50 30 LINE SMOOTH",
"50 18 OFFCURVE",
"58 0 OFFCURVE",
"80 0 CURVE SMOOTH",
"102 0 OFFCURVE",
"110 18 OFFCURVE",
"110 30 CURVE SMOOTH",
"110 790 LINE SMOOTH",
"110 794 OFFCURVE",
"112 800 OFFCURVE",
"120 800 CURVE SMOOTH",
"128 800 OFFCURVE",
"130 794 OFFCURVE",
"130 790 CURVE SMOOTH",
"130 30 LINE SMOOTH",
"130 18 OFFCURVE",
"138 0 OFFCURVE",
"160 0 CURVE SMOOTH",
"500 0 LINE SMOOTH",
"512 0 OFFCURVE",
"530 8 OFFCURVE",
"530 30 CURVE SMOOTH",
"530 52 OFFCURVE",
"512 60 OFFCURVE",
"500 60 CURVE SMOOTH",
"200 60 LINE SMOOTH",
"196 60 OFFCURVE",
"190 62 OFFCURVE",
"190 70 CURVE SMOOTH",
"190 78 OFFCURVE",
"196 80 OFFCURVE",
"200 80 CURVE SMOOTH",
"500 80 LINE SMOOTH",
"512 80 OFFCURVE",
"530 88 OFFCURVE",
"530 110 CURVE SMOOTH",
"530 132 OFFCURVE",
"512 140 OFFCURVE",
"500 140 CURVE SMOOTH",
"200 140 LINE SMOOTH",
"194 140 OFFCURVE",
"190 144 OFFCURVE",
"190 150 CURVE SMOOTH",
"190 330 LINE SMOOTH",
"190 336 OFFCURVE",
"194 340 OFFCURVE",
"200 340 CURVE SMOOTH",
"420 340 LINE SMOOTH",
"432 340 OFFCURVE",
"450 348 OFFCURVE",
"450 370 CURVE SMOOTH",
"450 392 OFFCURVE",
"432 400 OFFCURVE",
"420 400 CURVE SMOOTH",
"200 400 LINE SMOOTH",
"196 400 OFFCURVE",
"190 402 OFFCURVE",
"190 410 CURVE SMOOTH",
"190 418 OFFCURVE",
"196 420 OFFCURVE",
"200 420 CURVE SMOOTH",
"420 420 LINE SMOOTH",
"432 420 OFFCURVE",
"450 428 OFFCURVE",
"450 450 CURVE SMOOTH",
"450 472 OFFCURVE",
"432 480 OFFCURVE",
"420 480 CURVE SMOOTH",
"200 480 LINE SMOOTH",
"194 480 OFFCURVE",
"190 484 OFFCURVE",
"190 490 CURVE SMOOTH",
"190 670 LINE SMOOTH",
"190 676 OFFCURVE",
"194 680 OFFCURVE",
"200 680 CURVE SMOOTH",
"500 680 LINE SMOOTH",
"512 680 OFFCURVE",
"530 688 OFFCURVE",
"530 710 CURVE SMOOTH",
"530 732 OFFCURVE",
"512 740 OFFCURVE",
"500 740 CURVE SMOOTH",
"200 740 LINE SMOOTH",
"196 740 OFFCURVE",
"190 742 OFFCURVE",
"190 750 CURVE SMOOTH",
"190 758 OFFCURVE",
"196 760 OFFCURVE",
"200 760 CURVE SMOOTH",
"500 760 LINE SMOOTH",
"512 760 OFFCURVE",
"530 768 OFFCURVE",
"530 790 CURVE SMOOTH",
"530 812 OFFCURVE",
"512 820 OFFCURVE",
"500 820 CURVE SMOOTH"
);
}
);
width = 580;
}
);
leftKerningGroup = E;
leftMetricsKey = E;
rightKerningGroup = E;
rightMetricsKey = E;
unicode = 0065;
},
{
glyphname = f;
lastChange = "2015-06-05 10:52:29 +0000";
layers = (
{
layerId = "6FC19134-58B3-4B2A-889D-9A5D8CFAFAD6";
name = Regular;
paths = (
{
closed = 1;
nodes = (
"180 820 LINE SMOOTH",
"174 820 OFFCURVE",
"170 816 OFFCURVE",
"170 810 CURVE SMOOTH",
"170 804 OFFCURVE",
"174 800 OFFCURVE",
"180 800 CURVE SMOOTH",
"500 800 LINE SMOOTH",
"504 800 OFFCURVE",
"510 798 OFFCURVE",
"510 790 CURVE SMOOTH",
"510 782 OFFCURVE",
"504 780 OFFCURVE",
"500 780 CURVE SMOOTH",
"200 780 LINE SMOOTH",
"188 780 OFFCURVE",
"170 772 OFFCURVE",
"170 750 CURVE SMOOTH",
"170 728 OFFCURVE",
"188 720 OFFCURVE",
"200 720 CURVE SMOOTH",
"500 720 LINE SMOOTH",
"504 720 OFFCURVE",
"510 718 OFFCURVE",
"510 710 CURVE SMOOTH",
"510 702 OFFCURVE",
"504 700 OFFCURVE",
"500 700 CURVE SMOOTH",
"200 700 LINE SMOOTH",
"183 700 OFFCURVE",
"170 687 OFFCURVE",
"170 670 CURVE SMOOTH",
"170 490 LINE SMOOTH",
"170 473 OFFCURVE",
"183 460 OFFCURVE",
"200 460 CURVE SMOOTH",
"420 460 LINE SMOOTH",
"424 460 OFFCURVE",
"430 458 OFFCURVE",
"430 450 CURVE SMOOTH",
"430 442 OFFCURVE",
"424 440 OFFCURVE",
"420 440 CURVE SMOOTH",
"200 440 LINE SMOOTH",
"188 440 OFFCURVE",
"170 432 OFFCURVE",
"170 410 CURVE SMOOTH",
"170 388 OFFCURVE",
"188 380 OFFCURVE",
"200 380 CURVE SMOOTH",
"420 380 LINE SMOOTH",
"424 380 OFFCURVE",
"430 378 OFFCURVE",
"430 370 CURVE SMOOTH",
"430 362 OFFCURVE",
"424 360 OFFCURVE",
"420 360 CURVE SMOOTH",
"200 360 LINE SMOOTH",
"183 360 OFFCURVE",
"170 347 OFFCURVE",
"170 330 CURVE SMOOTH",
"170 30 LINE SMOOTH",
"170 25 OFFCURVE",
"168 20 OFFCURVE",
"160 20 CURVE SMOOTH",
"152 20 OFFCURVE",
"150 25 OFFCURVE",
"150 30 CURVE",
"150 790 LINE SMOOTH",
"150 802 OFFCURVE",
"142 820 OFFCURVE",
"120 820 CURVE SMOOTH",
"98 820 OFFCURVE",
"90 802 OFFCURVE",
"90 790 CURVE SMOOTH",
"90 30 LINE SMOOTH",
"90 25 OFFCURVE",
"88 20 OFFCURVE",
"80 20 CURVE SMOOTH",
"72 20 OFFCURVE",
"70 25 OFFCURVE",
"70 30 CURVE",
"70 810 LINE SMOOTH",
"70 816 OFFCURVE",
"66 820 OFFCURVE",
"60 820 CURVE SMOOTH",
"54 820 OFFCURVE",
"50 816 OFFCURVE",
"50 810 CURVE SMOOTH",
"50 30 LINE SMOOTH",
"50 18 OFFCURVE",
"58 0 OFFCURVE",
"80 0 CURVE SMOOTH",
"102 0 OFFCURVE",
"110 18 OFFCURVE",
"110 30 CURVE SMOOTH",
"110 790 LINE SMOOTH",
"110 794 OFFCURVE",
"112 800 OFFCURVE",
"120 800 CURVE SMOOTH",
"128 800 OFFCURVE",
"130 794 OFFCURVE",
"130 790 CURVE SMOOTH",
"130 30 LINE SMOOTH",
"130 18 OFFCURVE",
"138 0 OFFCURVE",
"160 0 CURVE SMOOTH",
"182 0 OFFCURVE",
"190 18 OFFCURVE",
"190 30 CURVE SMOOTH",
"190 330 LINE SMOOTH",
"190 336 OFFCURVE",
"194 340 OFFCURVE",
"200 340 CURVE SMOOTH",
"420 340 LINE SMOOTH",
"432 340 OFFCURVE",
"450 348 OFFCURVE",
"450 370 CURVE SMOOTH",
"450 392 OFFCURVE",
"432 400 OFFCURVE",
"420 400 CURVE SMOOTH",
"200 400 LINE SMOOTH",
"196 400 OFFCURVE",
"190 402 OFFCURVE",
"190 410 CURVE SMOOTH",
"190 418 OFFCURVE",
"196 420 OFFCURVE",
"200 420 CURVE SMOOTH",
"420 420 LINE SMOOTH",
"432 420 OFFCURVE",
"450 428 OFFCURVE",
"450 450 CURVE SMOOTH",
"450 472 OFFCURVE",
"432 480 OFFCURVE",
"420 480 CURVE SMOOTH",
"200 480 LINE SMOOTH",
"194 480 OFFCURVE",
"190 484 OFFCURVE",
"190 490 CURVE SMOOTH",
"190 670 LINE SMOOTH",
"190 676 OFFCURVE",
"194 680 OFFCURVE",
"200 680 CURVE SMOOTH",
"500 680 LINE SMOOTH",
"512 680 OFFCURVE",
"530 688 OFFCURVE",
"530 710 CURVE SMOOTH",
"530 732 OFFCURVE",
"512 740 OFFCURVE",
"500 740 CURVE SMOOTH",
"200 740 LINE SMOOTH",
"196 740 OFFCURVE",
"190 742 OFFCURVE",
"190 750 CURVE SMOOTH",
"190 758 OFFCURVE",
"196 760 OFFCURVE",
"200 760 CURVE SMOOTH",
"500 760 LINE SMOOTH",
"512 760 OFFCURVE",
"530 768 OFFCURVE",
"530 790 CURVE SMOOTH",
"530 812 OFFCURVE",
"512 820 OFFCURVE",
"500 820 CURVE SMOOTH"
);
}
);
width = 580;
}
);
leftKerningGroup = F;
leftMetricsKey = F;
rightKerningGroup = F;
rightMetricsKey = F;
unicode = 0066;
},
{
glyphname = g;
lastChange = "2015-06-05 10:52:29 +0000";
layers = (
{
layerId = "6FC19134-58B3-4B2A-889D-9A5D8CFAFAD6";
name = Regular;
paths = (
{
closed = 1;
nodes = (
"349 -10 OFFCURVE",
"244 33 OFFCURVE",
"164 112 CURVE SMOOTH",
"84 192 OFFCURVE",
"40 298 OFFCURVE",
"40 410 CURVE SMOOTH",
"40 641 OFFCURVE",
"228 830 OFFCURVE",
"460 830 CURVE SMOOTH",
"539 830 OFFCURVE",
"616 808 OFFCURVE",
"683 766 CURVE SMOOTH",
"690 761 OFFCURVE",
"695 754 OFFCURVE",
"697 746 CURVE SMOOTH",
"698 738 OFFCURVE",
"696 730 OFFCURVE",
"692 723 CURVE SMOOTH",
"682 710 OFFCURVE",
"665 706 OFFCURVE",
"651 715 CURVE SMOOTH",
"586 756 OFFCURVE",
"511 774 OFFCURVE",
"434 769 CURVE SMOOTH",
"256 756 OFFCURVE",
"113 613 OFFCURVE",
"101 435 CURVE SMOOTH",
"94 334 OFFCURVE",
"128 238 OFFCURVE",
"197 164 CURVE SMOOTH",
"265 91 OFFCURVE",
"361 50 OFFCURVE",
"460 50 CURVE SMOOTH",
"526 50 OFFCURVE",
"590 67 OFFCURVE",
"645 101 CURVE SMOOTH",
"648 103 OFFCURVE",
"650 106 OFFCURVE",
"650 110 CURVE SMOOTH",
"650 360 LINE",
"650 364 OFFCURVE",
"648 370 OFFCURVE",
"640 370 CURVE SMOOTH",
"632 370 OFFCURVE",
"630 364 OFFCURVE",
"630 360 CURVE SMOOTH",
"630 133 LINE SMOOTH",
"630 122 OFFCURVE",
"624 112 OFFCURVE",
"614 106 CURVE SMOOTH",
"558 78 OFFCURVE",
"494 66 OFFCURVE",
"430 71 CURVE SMOOTH",
"265 85 OFFCURVE",
"132 220 OFFCURVE",
"121 386 CURVE SMOOTH",
"114 481 OFFCURVE",
"146 572 OFFCURVE",
"211 642 CURVE SMOOTH",
"276 710 OFFCURVE",
"366 750 OFFCURVE",
"460 750 CURVE SMOOTH",
"523 750 OFFCURVE",
"584 733 OFFCURVE",
"637 700 CURVE SMOOTH",
"644 696 OFFCURVE",
"649 689 OFFCURVE",
"651 681 CURVE SMOOTH",
"652 673 OFFCURVE",
"650 664 OFFCURVE",
"646 658 CURVE SMOOTH",
"637 644 OFFCURVE",
"619 641 OFFCURVE",
"606 649 CURVE SMOOTH",
"559 677 OFFCURVE",
"506 691 OFFCURVE",
"451 690 CURVE SMOOTH",
"308 685 OFFCURVE",
"189 570 OFFCURVE",
"181 428 CURVE SMOOTH",
"176 349 OFFCURVE",
"202 275 OFFCURVE",
"256 218 CURVE SMOOTH",
"309 161 OFFCURVE",
"382 130 OFFCURVE",
"460 130 CURVE SMOOTH",
"496 130 OFFCURVE",
"531 136 OFFCURVE",
"564 150 CURVE SMOOTH",
"568 151 OFFCURVE",
"570 155 OFFCURVE",
"570 159 CURVE",
"570 380 LINE",
"570 385 OFFCURVE",
"574 390 OFFCURVE",
"580 390 CURVE SMOOTH",
"586 390 OFFCURVE",
"590 385 OFFCURVE",
"590 380 CURVE SMOOTH",
"590 159 LINE SMOOTH",
"590 147 OFFCURVE",
"583 136 OFFCURVE",
"572 131 CURVE SMOOTH",
"536 117 OFFCURVE",
"499 110 OFFCURVE",
"460 110 CURVE SMOOTH",
"378 110 OFFCURVE",
"298 144 OFFCURVE",
"241 204 CURVE SMOOTH",
"184 265 OFFCURVE",
"155 345 OFFCURVE",
"161 429 CURVE SMOOTH",
"170 582 OFFCURVE",
"297 705 OFFCURVE",
"451 710 CURVE SMOOTH",
"509 711 OFFCURVE",
"566 696 OFFCURVE",
"616 666 CURVE SMOOTH",
"620 663 OFFCURVE",
"626 664 OFFCURVE",
"629 669 CURVE SMOOTH",
"631 671 OFFCURVE",
"632 674 OFFCURVE",
"631 677 CURVE SMOOTH",
"630 679 OFFCURVE",
"629 682 OFFCURVE",
"627 683 CURVE SMOOTH",
"576 714 OFFCURVE",
"519 730 OFFCURVE",
"460 730 CURVE SMOOTH",
"372 730 OFFCURVE",
"286 693 OFFCURVE",
"226 628 CURVE SMOOTH",
"165 562 OFFCURVE",
"135 477 OFFCURVE",
"141 387 CURVE SMOOTH",
"152 231 OFFCURVE",
"277 104 OFFCURVE",
"432 91 CURVE SMOOTH",
"492 86 OFFCURVE",
"552 97 OFFCURVE",
"605 124 CURVE SMOOTH",
"608 126 OFFCURVE",
"610 129 OFFCURVE",
"610 133 CURVE SMOOTH",
"610 360 LINE SMOOTH",
"610 372 OFFCURVE",
"618 390 OFFCURVE",
"640 390 CURVE SMOOTH",
"662 390 OFFCURVE",
"670 372 OFFCURVE",
"670 360 CURVE SMOOTH",
"670 110 LINE SMOOTH",
"670 99 OFFCURVE",
"665 89 OFFCURVE",
"656 84 CURVE SMOOTH",
"597 48 OFFCURVE",
"529 30 OFFCURVE",
"460 30 CURVE SMOOTH",
"355 30 OFFCURVE",
"254 74 OFFCURVE",
"182 151 CURVE SMOOTH",
"110 228 OFFCURVE",
"74 330 OFFCURVE",
"81 437 CURVE SMOOTH",
"94 624 OFFCURVE",
"245 775 OFFCURVE",
"432 789 CURVE SMOOTH",
"514 795 OFFCURVE",
"593 775 OFFCURVE",
"662 732 CURVE SMOOTH",
"666 729 OFFCURVE",
"672 730 OFFCURVE",
"675 734 CURVE SMOOTH",
"677 737 OFFCURVE",
"677 740 OFFCURVE",
"677 742 CURVE SMOOTH",
"676 745 OFFCURVE",
"675 747 OFFCURVE",
"673 749 CURVE SMOOTH",
"609 789 OFFCURVE",
"535 810 OFFCURVE",
"460 810 CURVE SMOOTH",
"239 810 OFFCURVE",
"60 630 OFFCURVE",
"60 410 CURVE SMOOTH",
"60 303 OFFCURVE",
"102 202 OFFCURVE",
"178 126 CURVE SMOOTH",
"254 51 OFFCURVE",
"355 10 OFFCURVE",
"462 10 CURVE SMOOTH",
"542 10 OFFCURVE",
"620 34 OFFCURVE",
"686 79 CURVE SMOOTH",
"688 81 OFFCURVE",
"690 84 OFFCURVE",
"690 88 CURVE SMOOTH",
"690 380 LINE SMOOTH",
"690 385 OFFCURVE",
"694 390 OFFCURVE",
"700 390 CURVE SMOOTH",
"706 390 OFFCURVE",
"710 385 OFFCURVE",
"710 380 CURVE SMOOTH",
"710 88 LINE SMOOTH",
"710 78 OFFCURVE",
"705 69 OFFCURVE",
"697 63 CURVE SMOOTH",
"628 15 OFFCURVE",
"547 -10 OFFCURVE",
"462 -10 CURVE SMOOTH",
"461 -10 OFFCURVE",
"461 -10 OFFCURVE",
"460 -10 CURVE SMOOTH"
);
}
);
width = 755;
}
);
leftKerningGroup = G;
leftMetricsKey = G;
rightKerningGroup = G;
rightMetricsKey = G;
unicode = 0067;
},
{
glyphname = h;
lastChange = "2015-06-05 10:52:29 +0000";
layers = (
{
layerId = "6FC19134-58B3-4B2A-889D-9A5D8CFAFAD6";
name = Regular;
paths = (
{
closed = 1;
nodes = (
"694 820 OFFCURVE",
"690 816 OFFCURVE",
"690 810 CURVE SMOOTH",
"690 30 LINE SMOOTH",
"690 25 OFFCURVE",
"688 20 OFFCURVE",
"680 20 CURVE SMOOTH",
"672 20 OFFCURVE",
"670 25 OFFCURVE",
"670 30 CURVE",
"670 790 LINE SMOOTH",
"670 802 OFFCURVE",
"662 820 OFFCURVE",
"640 820 CURVE SMOOTH",
"618 820 OFFCURVE",
"610 802 OFFCURVE",
"610 790 CURVE SMOOTH",
"610 30 LINE SMOOTH",
"610 25 OFFCURVE",
"608 20 OFFCURVE",
"600 20 CURVE SMOOTH",
"592 20 OFFCURVE",
"590 25 OFFCURVE",
"590 30 CURVE",
"590 330 LINE SMOOTH",
"590 347 OFFCURVE",
"577 360 OFFCURVE",
"560 360 CURVE SMOOTH",
"240 360 LINE SMOOTH",
"236 360 OFFCURVE",
"230 362 OFFCURVE",
"230 370 CURVE SMOOTH",
"230 378 OFFCURVE",
"236 380 OFFCURVE",
"240 380 CURVE SMOOTH",
"560 380 LINE SMOOTH",
"572 380 OFFCURVE",
"590 388 OFFCURVE",
"590 410 CURVE SMOOTH",
"590 432 OFFCURVE",
"572 440 OFFCURVE",
"560 440 CURVE SMOOTH",
"240 440 LINE SMOOTH",
"236 440 OFFCURVE",
"230 442 OFFCURVE",
"230 450 CURVE SMOOTH",
"230 458 OFFCURVE",
"236 460 OFFCURVE",
"240 460 CURVE SMOOTH",
"560 460 LINE SMOOTH",
"577 460 OFFCURVE",
"590 473 OFFCURVE",
"590 490 CURVE SMOOTH",
"590 810 LINE SMOOTH",
"590 816 OFFCURVE",
"586 820 OFFCURVE",
"580 820 CURVE SMOOTH",
"574 820 OFFCURVE",
"570 816 OFFCURVE",
"570 810 CURVE SMOOTH",
"570 490 LINE SMOOTH",
"570 484 OFFCURVE",
"566 480 OFFCURVE",
"560 480 CURVE SMOOTH",
"240 480 LINE SMOOTH",
"228 480 OFFCURVE",
"210 472 OFFCURVE",
"210 450 CURVE SMOOTH",
"210 428 OFFCURVE",
"228 420 OFFCURVE",
"240 420 CURVE SMOOTH",
"560 420 LINE SMOOTH",
"564 420 OFFCURVE",
"570 418 OFFCURVE",
"570 410 CURVE SMOOTH",
"570 402 OFFCURVE",
"564 400 OFFCURVE",
"560 400 CURVE SMOOTH",
"240 400 LINE SMOOTH",
"228 400 OFFCURVE",
"210 392 OFFCURVE",
"210 370 CURVE SMOOTH",
"210 348 OFFCURVE",
"228 340 OFFCURVE",
"240 340 CURVE SMOOTH",
"560 340 LINE SMOOTH",
"566 340 OFFCURVE",
"570 336 OFFCURVE",
"570 330 CURVE SMOOTH",
"570 30 LINE SMOOTH",
"570 18 OFFCURVE",
"578 0 OFFCURVE",
"600 0 CURVE SMOOTH",
"622 0 OFFCURVE",
"630 18 OFFCURVE",
"630 30 CURVE SMOOTH",
"630 790 LINE SMOOTH",
"630 794 OFFCURVE",
"632 800 OFFCURVE",
"640 800 CURVE SMOOTH",
"648 800 OFFCURVE",
"650 794 OFFCURVE",
"650 790 CURVE SMOOTH",
"650 30 LINE SMOOTH",
"650 18 OFFCURVE",
"658 0 OFFCURVE",
"680 0 CURVE SMOOTH",
"702 0 OFFCURVE",
"710 18 OFFCURVE",
"710 30 CURVE SMOOTH",
"710 810 LINE SMOOTH",
"710 816 OFFCURVE",
"706 820 OFFCURVE",
"700 820 CURVE SMOOTH"
);
},
{
closed = 1;
nodes = (
"174 820 OFFCURVE",
"170 816 OFFCURVE",
"170 810 CURVE SMOOTH",
"170 30 LINE SMOOTH",
"170 25 OFFCURVE",
"168 20 OFFCURVE",
"160 20 CURVE SMOOTH",
"152 20 OFFCURVE",
"150 25 OFFCURVE",
"150 30 CURVE",
"150 790 LINE SMOOTH",
"150 802 OFFCURVE",
"142 820 OFFCURVE",
"120 820 CURVE SMOOTH",
"98 820 OFFCURVE",
"90 802 OFFCURVE",
"90 790 CURVE SMOOTH",
"90 30 LINE SMOOTH",
"90 25 OFFCURVE",
"88 20 OFFCURVE",
"80 20 CURVE SMOOTH",
"72 20 OFFCURVE",
"70 25 OFFCURVE",
"70 30 CURVE",
"70 810 LINE SMOOTH",
"70 816 OFFCURVE",
"66 820 OFFCURVE",
"60 820 CURVE SMOOTH",
"54 820 OFFCURVE",
"50 816 OFFCURVE",
"50 810 CURVE SMOOTH",
"50 30 LINE SMOOTH",
"50 18 OFFCURVE",
"58 0 OFFCURVE",
"80 0 CURVE SMOOTH",
"102 0 OFFCURVE",
"110 18 OFFCURVE",
"110 30 CURVE SMOOTH",
"110 790 LINE SMOOTH",
"110 794 OFFCURVE",
"112 800 OFFCURVE",
"120 800 CURVE SMOOTH",
"128 800 OFFCURVE",
"130 794 OFFCURVE",
"130 790 CURVE SMOOTH",
"130 30 LINE SMOOTH",
"130 18 OFFCURVE",
"138 0 OFFCURVE",
"160 0 CURVE SMOOTH",
"182 0 OFFCURVE",
"190 18 OFFCURVE",
"190 30 CURVE SMOOTH",
"190 810 LINE SMOOTH",
"190 816 OFFCURVE",
"186 820 OFFCURVE",
"180 820 CURVE SMOOTH"
);
}
);
width = 760;
}
);
leftKerningGroup = H;
leftMetricsKey = H;
rightKerningGroup = H;
rightMetricsKey = H;
unicode = 0068;
},
{
glyphname = i;
lastChange = "2015-06-05 10:52:29 +0000";
layers = (
{
layerId = "6FC19134-58B3-4B2A-889D-9A5D8CFAFAD6";
name = Regular;
paths = (
{
closed = 1;
nodes = (
"174 820 OFFCURVE",
"170 816 OFFCURVE",
"170 810 CURVE SMOOTH",
"170 30 LINE SMOOTH",
"170 25 OFFCURVE",
"168 20 OFFCURVE",
"160 20 CURVE SMOOTH",
"152 20 OFFCURVE",
"150 25 OFFCURVE",
"150 30 CURVE",
"150 790 LINE SMOOTH",
"150 802 OFFCURVE",
"142 820 OFFCURVE",
"120 820 CURVE SMOOTH",
"98 820 OFFCURVE",
"90 802 OFFCURVE",
"90 790 CURVE SMOOTH",
"90 30 LINE SMOOTH",
"90 25 OFFCURVE",
"88 20 OFFCURVE",
"80 20 CURVE SMOOTH",
"72 20 OFFCURVE",
"70 25 OFFCURVE",
"70 30 CURVE",
"70 810 LINE SMOOTH",
"70 816 OFFCURVE",
"66 820 OFFCURVE",
"60 820 CURVE SMOOTH",
"54 820 OFFCURVE",
"50 816 OFFCURVE",
"50 810 CURVE SMOOTH",
"50 30 LINE SMOOTH",
"50 18 OFFCURVE",
"58 0 OFFCURVE",
"80 0 CURVE SMOOTH",
"102 0 OFFCURVE",
"110 18 OFFCURVE",
"110 30 CURVE SMOOTH",
"110 790 LINE SMOOTH",
"110 794 OFFCURVE",
"112 800 OFFCURVE",
"120 800 CURVE SMOOTH",
"128 800 OFFCURVE",
"130 794 OFFCURVE",
"130 790 CURVE SMOOTH",
"130 30 LINE SMOOTH",
"130 18 OFFCURVE",
"138 0 OFFCURVE",
"160 0 CURVE SMOOTH",
"182 0 OFFCURVE",
"190 18 OFFCURVE",
"190 30 CURVE SMOOTH",
"190 810 LINE SMOOTH",
"190 816 OFFCURVE",
"186 820 OFFCURVE",
"180 820 CURVE SMOOTH"
);
}
);
width = 240;
}
);
leftKerningGroup = I;
leftMetricsKey = I;
rightKerningGroup = I;
rightMetricsKey = I;
unicode = 0069;
},
{
glyphname = j;
lastChange = "2015-06-05 10:52:29 +0000";
layers = (
{
layerId = "6FC19134-58B3-4B2A-889D-9A5D8CFAFAD6";
name = Regular;
paths = (
{
closed = 1;
nodes = (
"30 0 LINE SMOOTH",
"18 0 OFFCURVE",
"0 8 OFFCURVE",
"0 30 CURVE SMOOTH",
"0 52 OFFCURVE",
"18 60 OFFCURVE",
"30 60 CURVE SMOOTH",
"150 60 LINE SMOOTH",
"227 60 OFFCURVE",
"290 123 OFFCURVE",
"290 200 CURVE SMOOTH",
"290 790 LINE",
"290 794 OFFCURVE",
"288 800 OFFCURVE",
"280 800 CURVE SMOOTH",
"272 800 OFFCURVE",
"270 794 OFFCURVE",
"270 790 CURVE SMOOTH",
"270 200 LINE SMOOTH",
"270 134 OFFCURVE",
"216 80 OFFCURVE",
"150 80 CURVE SMOOTH",
"30 80 LINE SMOOTH",
"18 80 OFFCURVE",
"0 88 OFFCURVE",
"0 110 CURVE SMOOTH",
"0 132 OFFCURVE",
"18 140 OFFCURVE",
"30 140 CURVE SMOOTH",
"150 140 LINE SMOOTH",
"183 140 OFFCURVE",
"210 167 OFFCURVE",
"210 200 CURVE SMOOTH",
"210 810 LINE SMOOTH",
"210 816 OFFCURVE",
"214 820 OFFCURVE",
"220 820 CURVE SMOOTH",
"226 820 OFFCURVE",
"230 816 OFFCURVE",
"230 810 CURVE SMOOTH",
"230 200 LINE SMOOTH",
"230 156 OFFCURVE",
"194 120 OFFCURVE",
"150 120 CURVE SMOOTH",
"30 120 LINE SMOOTH",
"26 120 OFFCURVE",
"20 118 OFFCURVE",
"20 110 CURVE SMOOTH",
"20 102 OFFCURVE",
"26 100 OFFCURVE",
"30 100 CURVE SMOOTH",
"150 100 LINE SMOOTH",
"205 100 OFFCURVE",
"250 145 OFFCURVE",
"250 200 CURVE SMOOTH",
"250 790 LINE SMOOTH",
"250 802 OFFCURVE",
"258 820 OFFCURVE",
"280 820 CURVE SMOOTH",
"302 820 OFFCURVE",
"310 802 OFFCURVE",
"310 790 CURVE SMOOTH",
"310 200 LINE SMOOTH",
"310 112 OFFCURVE",
"238 40 OFFCURVE",
"150 40 CURVE SMOOTH",
"30 40 LINE SMOOTH",
"26 40 OFFCURVE",
"20 38 OFFCURVE",
"20 30 CURVE SMOOTH",
"20 22 OFFCURVE",
"26 20 OFFCURVE",
"30 20 CURVE SMOOTH",
"150 20 LINE SMOOTH",
"249 20 OFFCURVE",
"330 101 OFFCURVE",
"330 200 CURVE SMOOTH",
"330 810 LINE SMOOTH",
"330 816 OFFCURVE",
"334 820 OFFCURVE",
"340 820 CURVE SMOOTH",
"346 820 OFFCURVE",
"350 816 OFFCURVE",
"350 810 CURVE SMOOTH",
"350 200 LINE SMOOTH",
"350 90 OFFCURVE",
"260 0 OFFCURVE",
"150 0 CURVE SMOOTH"
);
}
);
width = 400;
}
);
leftKerningGroup = J;
leftMetricsKey = J;
rightKerningGroup = J;
rightMetricsKey = J;
unicode = 006A;
},
{
glyphname = k;
lastChange = "2015-06-05 10:52:29 +0000";
layers = (
{
layerId = "6FC19134-58B3-4B2A-889D-9A5D8CFAFAD6";
name = Regular;
paths = (
{
closed = 1;
nodes = (
"593 824 OFFCURVE",
"584 818 OFFCURVE",
"579 811 CURVE SMOOTH",
"327 464 LINE SMOOTH",
"325 462 OFFCURVE",
"323 459 OFFCURVE",
"319 459 CURVE SMOOTH",
"317 459 OFFCURVE",
"315 460 OFFCURVE",
"313 462 CURVE SMOOTH",
"306 467 OFFCURVE",
"308 472 OFFCURVE",
"311 476 CURVE SMOOTH",
"529 776 LINE SMOOTH",
"536 786 OFFCURVE",
"540 805 OFFCURVE",
"522 818 CURVE SMOOTH",
"516 822 OFFCURVE",
"510 824 OFFCURVE",
"505 824 CURVE SMOOTH",
"494 824 OFFCURVE",
"485 818 OFFCURVE",
"480 811 CURVE SMOOTH",
"208 437 LINE SMOOTH",
"206 433 OFFCURVE",
"203 432 OFFCURVE",
"200 432 CURVE SMOOTH",
"199 432 OFFCURVE",
"198 433 OFFCURVE",
"197 433 CURVE SMOOTH",
"195 433 OFFCURVE",
"190 436 OFFCURVE",
"190 442 CURVE SMOOTH",
"190 810 LINE SMOOTH",
"190 815 OFFCURVE",
"186 820 OFFCURVE",
"180 820 CURVE SMOOTH",
"174 820 OFFCURVE",
"170 815 OFFCURVE",
"170 810 CURVE SMOOTH",
"170 442 LINE SMOOTH",
"170 429 OFFCURVE",
"178 418 OFFCURVE",
"191 414 CURVE SMOOTH",
"194 413 OFFCURVE",
"197 412 OFFCURVE",
"200 412 CURVE SMOOTH",
"210 412 OFFCURVE",
"218 417 OFFCURVE",
"224 425 CURVE SMOOTH",
"497 800 LINE SMOOTH",
"498 801 OFFCURVE",
"500 804 OFFCURVE",
"504 804 CURVE SMOOTH",
"506 804 OFFCURVE",
"508 803 OFFCURVE",
"511 802 CURVE SMOOTH",
"517 797 OFFCURVE",
"515 792 OFFCURVE",
"513 788 CURVE SMOOTH",
"295 488 LINE SMOOTH",
"294 487 OFFCURVE",
"290 481 OFFCURVE",
"289 474 CURVE SMOOTH",
"287 463 OFFCURVE",
"291 453 OFFCURVE",
"301 446 CURVE SMOOTH",
"307 441 OFFCURVE",
"313 439 OFFCURVE",
"319 439 CURVE SMOOTH",
"323 439 OFFCURVE",
"328 440 OFFCURVE",
"332 443 CURVE SMOOTH",
"338 446 OFFCURVE",
"342 451 OFFCURVE",
"343 452 CURVE SMOOTH",
"595 800 LINE SMOOTH",
"597 801 OFFCURVE",
"599 804 OFFCURVE",
"603 804 CURVE SMOOTH",
"605 804 OFFCURVE",
"607 803 OFFCURVE",
"609 802 CURVE SMOOTH",
"616 797 OFFCURVE",
"614 792 OFFCURVE",
"612 788 CURVE SMOOTH",
"345 421 LINE SMOOTH",
"338 411 OFFCURVE",
"338 396 OFFCURVE",
"346 386 CURVE SMOOTH",
"612 32 LINE SMOOTH",
"615 28 OFFCURVE",
"617 23 OFFCURVE",
"610 18 CURVE SMOOTH",
"608 16 OFFCURVE",
"606 15 OFFCURVE",
"604 15 CURVE SMOOTH",
"601 15 OFFCURVE",
"598 18 OFFCURVE",
"596 20 CURVE SMOOTH",
"294 422 LINE SMOOTH",
"293 423 OFFCURVE",
"289 428 OFFCURVE",
"282 431 CURVE SMOOTH",
"278 433 OFFCURVE",
"274 434 OFFCURVE",
"270 434 CURVE SMOOTH",
"264 434 OFFCURVE",
"257 432 OFFCURVE",
"252 428 CURVE SMOOTH",
"234 414 OFFCURVE",
"238 395 OFFCURVE",
"246 386 CURVE SMOOTH",
"512 32 LINE SMOOTH",
"515 28 OFFCURVE",
"517 23 OFFCURVE",
"510 18 CURVE SMOOTH",
"508 16 OFFCURVE",
"506 15 OFFCURVE",
"504 15 CURVE SMOOTH",
"501 15 OFFCURVE",
"498 18 OFFCURVE",
"496 20 CURVE SMOOTH",
"224 381 LINE SMOOTH",
"218 389 OFFCURVE",
"209 393 OFFCURVE",
"200 393 CURVE SMOOTH",
"197 393 OFFCURVE",
"194 393 OFFCURVE",
"190 392 CURVE SMOOTH",
"178 387 OFFCURVE",
"170 376 OFFCURVE",
"170 363 CURVE SMOOTH",
"170 30 LINE SMOOTH",
"170 25 OFFCURVE",
"168 20 OFFCURVE",
"160 20 CURVE SMOOTH",
"152 20 OFFCURVE",
"150 25 OFFCURVE",
"150 30 CURVE",
"150 790 LINE SMOOTH",
"150 802 OFFCURVE",
"142 820 OFFCURVE",
"120 820 CURVE SMOOTH",
"98 820 OFFCURVE",
"90 802 OFFCURVE",
"90 790 CURVE SMOOTH",
"90 30 LINE SMOOTH",
"90 25 OFFCURVE",
"88 20 OFFCURVE",
"80 20 CURVE SMOOTH",
"72 20 OFFCURVE",
"70 25 OFFCURVE",
"70 30 CURVE",
"70 810 LINE SMOOTH",
"70 815 OFFCURVE",
"66 820 OFFCURVE",
"60 820 CURVE SMOOTH",
"54 820 OFFCURVE",
"50 815 OFFCURVE",
"50 810 CURVE SMOOTH",
"50 30 LINE SMOOTH",
"50 18 OFFCURVE",
"58 0 OFFCURVE",
"80 0 CURVE SMOOTH",
"102 0 OFFCURVE",
"110 18 OFFCURVE",
"110 30 CURVE SMOOTH",
"110 790 LINE SMOOTH",
"110 794 OFFCURVE",
"112 800 OFFCURVE",
"120 800 CURVE SMOOTH",
"128 800 OFFCURVE",
"130 794 OFFCURVE",
"130 790 CURVE SMOOTH",
"130 30 LINE SMOOTH",
"130 18 OFFCURVE",
"138 0 OFFCURVE",
"160 0 CURVE SMOOTH",
"182 0 OFFCURVE",
"190 18 OFFCURVE",
"190 30 CURVE SMOOTH",
"190 363 LINE SMOOTH",
"190 370 OFFCURVE",
"195 372 OFFCURVE",
"197 373 CURVE SMOOTH",
"197 373 OFFCURVE",
"199 373 OFFCURVE",
"200 373 CURVE SMOOTH",
"203 373 OFFCURVE",
"206 372 OFFCURVE",
"208 369 CURVE SMOOTH",
"480 8 LINE SMOOTH",
"485 2 OFFCURVE",
"494 -5 OFFCURVE",
"504 -5 CURVE SMOOTH",
"510 -5 OFFCURVE",
"516 -3 OFFCURVE",
"522 2 CURVE SMOOTH",
"532 9 OFFCURVE",
"536 19 OFFCURVE",
"534 30 CURVE SMOOTH",
"533 38 OFFCURVE",
"529 43 OFFCURVE",
"528 44 CURVE SMOOTH",
"262 398 LINE SMOOTH",
"259 401 OFFCURVE",
"257 407 OFFCURVE",
"264 412 CURVE SMOOTH",
"266 413 OFFCURVE",
"268 414 OFFCURVE",
"270 414 CURVE SMOOTH",
"273 414 OFFCURVE",
"276 412 OFFCURVE",
"278 410 CURVE SMOOTH",
"581 8 LINE SMOOTH",
"585 2 OFFCURVE",
"594 -5 OFFCURVE",
"604 -5 CURVE SMOOTH",
"610 -5 OFFCURVE",
"616 -3 OFFCURVE",
"623 2 CURVE SMOOTH",
"640 15 OFFCURVE",
"636 34 OFFCURVE",
"628 44 CURVE SMOOTH",
"362 398 LINE SMOOTH",
"359 401 OFFCURVE",
"359 406 OFFCURVE",
"362 410 CURVE SMOOTH",
"628 776 LINE SMOOTH",
"635 786 OFFCURVE",
"639 805 OFFCURVE",
"621 818 CURVE SMOOTH",
"615 822 OFFCURVE",
"609 824 OFFCURVE",
"603 824 CURVE SMOOTH"
);
}
);
width = 675;
}
);
leftKerningGroup = K;
leftMetricsKey = K;
rightKerningGroup = K;
rightMetricsKey = K;
unicode = 006B;
},
{
glyphname = l;
lastChange = "2015-06-05 10:52:29 +0000";
layers = (
{
layerId = "6FC19134-58B3-4B2A-889D-9A5D8CFAFAD6";
name = Regular;
paths = (
{
closed = 1;
nodes = (
"174 820 OFFCURVE",
"170 816 OFFCURVE",
"170 810 CURVE SMOOTH",
"170 150 LINE SMOOTH",
"170 128 OFFCURVE",
"188 120 OFFCURVE",
"200 120 CURVE SMOOTH",
"500 120 LINE SMOOTH",
"504 120 OFFCURVE",
"510 118 OFFCURVE",
"510 110 CURVE SMOOTH",
"510 102 OFFCURVE",
"504 100 OFFCURVE",
"500 100 CURVE SMOOTH",
"200 100 LINE SMOOTH",
"188 100 OFFCURVE",
"170 92 OFFCURVE",
"170 70 CURVE SMOOTH",
"170 48 OFFCURVE",
"188 40 OFFCURVE",
"200 40 CURVE SMOOTH",
"500 40 LINE SMOOTH",
"504 40 OFFCURVE",
"510 38 OFFCURVE",
"510 30 CURVE SMOOTH",
"510 22 OFFCURVE",
"504 20 OFFCURVE",
"500 20 CURVE SMOOTH",
"160 20 LINE SMOOTH",
"152 20 OFFCURVE",
"150 25 OFFCURVE",
"150 30 CURVE",
"150 790 LINE SMOOTH",
"150 802 OFFCURVE",
"142 820 OFFCURVE",
"120 820 CURVE SMOOTH",
"98 820 OFFCURVE",
"90 802 OFFCURVE",
"90 790 CURVE SMOOTH",
"90 30 LINE SMOOTH",
"90 25 OFFCURVE",
"88 20 OFFCURVE",
"80 20 CURVE SMOOTH",
"72 20 OFFCURVE",
"70 25 OFFCURVE",
"70 30 CURVE",
"70 810 LINE SMOOTH",
"70 816 OFFCURVE",
"66 820 OFFCURVE",
"60 820 CURVE SMOOTH",
"54 820 OFFCURVE",
"50 816 OFFCURVE",
"50 810 CURVE SMOOTH",
"50 30 LINE SMOOTH",
"50 18 OFFCURVE",
"58 0 OFFCURVE",
"80 0 CURVE SMOOTH",
"102 0 OFFCURVE",
"110 18 OFFCURVE",
"110 30 CURVE SMOOTH",
"110 790 LINE SMOOTH",
"110 794 OFFCURVE",
"112 800 OFFCURVE",
"120 800 CURVE SMOOTH",
"128 800 OFFCURVE",
"130 794 OFFCURVE",
"130 790 CURVE SMOOTH",
"130 30 LINE SMOOTH",
"130 18 OFFCURVE",
"138 0 OFFCURVE",
"160 0 CURVE SMOOTH",
"500 0 LINE SMOOTH",
"512 0 OFFCURVE",
"530 8 OFFCURVE",
"530 30 CURVE SMOOTH",
"530 52 OFFCURVE",
"512 60 OFFCURVE",
"500 60 CURVE SMOOTH",
"200 60 LINE SMOOTH",
"196 60 OFFCURVE",
"190 62 OFFCURVE",
"190 70 CURVE SMOOTH",
"190 78 OFFCURVE",
"196 80 OFFCURVE",
"200 80 CURVE SMOOTH",
"500 80 LINE SMOOTH",
"512 80 OFFCURVE",
"530 88 OFFCURVE",
"530 110 CURVE SMOOTH",
"530 132 OFFCURVE",
"512 140 OFFCURVE",
"500 140 CURVE SMOOTH",
"200 140 LINE SMOOTH",
"196 140 OFFCURVE",
"190 142 OFFCURVE",
"190 150 CURVE SMOOTH",
"190 810 LINE SMOOTH",
"190 816 OFFCURVE",
"186 820 OFFCURVE",
"180 820 CURVE SMOOTH"
);
}
);
width = 560;
}
);
leftKerningGroup = L;
leftMetricsKey = L;
rightKerningGroup = L;
rightMetricsKey = L;
unicode = 006C;
},
{
glyphname = m;
lastChange = "2015-06-05 10:52:29 +0000";
layers = (
{
layerId = "6FC19134-58B3-4B2A-889D-9A5D8CFAFAD6";
name = Regular;
paths = (
{
closed = 1;
nodes = (
"1191 1 OFFCURVE",
"1194 1 OFFCURVE",
"1197 2 CURVE SMOOTH",
"1219 8 OFFCURVE",
"1221 27 OFFCURVE",
"1218 39 CURVE SMOOTH",
"996 814 LINE SMOOTH",
"994 819 OFFCURVE",
"990 821 OFFCURVE",
"986 821 CURVE SMOOTH",
"985 821 OFFCURVE",
"984 821 OFFCURVE",
"983 821 CURVE SMOOTH",
"978 820 OFFCURVE",
"975 814 OFFCURVE",
"976 809 CURVE SMOOTH",
"1199 33 LINE SMOOTH",
"1200 29 OFFCURVE",
"1200 23 OFFCURVE",
"1192 21 CURVE SMOOTH",
"1191 21 OFFCURVE",
"1189 21 OFFCURVE",
"1188 21 CURVE SMOOTH",
"1183 21 OFFCURVE",
"1181 24 OFFCURVE",
"1179 28 CURVE SMOOTH",
"958 801 LINE SMOOTH",
"955 810 OFFCURVE",
"946 823 OFFCURVE",
"930 823 CURVE SMOOTH",
"927 823 OFFCURVE",
"924 822 OFFCURVE",
"921 821 CURVE SMOOTH",
"900 815 OFFCURVE",
"897 796 OFFCURVE",
"900 784 CURVE SMOOTH",
"1116 33 LINE SMOOTH",
"1117 29 OFFCURVE",
"1116 23 OFFCURVE",
"1109 21 CURVE SMOOTH",
"1107 21 OFFCURVE",
"1106 21 OFFCURVE",
"1105 21 CURVE SMOOTH",
"1100 21 OFFCURVE",
"1097 24 OFFCURVE",
"1096 28 CURVE SMOOTH",
"873 807 LINE SMOOTH",
"871 815 OFFCURVE",
"863 821 OFFCURVE",
"854 821 CURVE SMOOTH",
"854 821 OFFCURVE",
"854 821 OFFCURVE",
"854 821 CURVE SMOOTH",
"845 821 OFFCURVE",
"838 816 OFFCURVE",
"835 808 CURVE SMOOTH",
"630 245 LINE SMOOTH",
"626 234 OFFCURVE",
"627 214 OFFCURVE",
"648 207 CURVE SMOOTH",
"652 205 OFFCURVE",
"656 205 OFFCURVE",
"659 205 CURVE SMOOTH",
"666 205 OFFCURVE",
"673 207 OFFCURVE",
"678 212 CURVE SMOOTH",
"684 218 OFFCURVE",
"686 224 OFFCURVE",
"686 225 CURVE SMOOTH",
"843 656 LINE SMOOTH",
"845 660 OFFCURVE",
"847 663 OFFCURVE",
"852 663 CURVE SMOOTH",
"853 663 OFFCURVE",
"855 663 OFFCURVE",
"856 662 CURVE SMOOTH",
"864 659 OFFCURVE",
"864 654 OFFCURVE",
"862 649 CURVE SMOOTH",
"673 128 LINE SMOOTH",
"668 117 OFFCURVE",
"670 97 OFFCURVE",
"691 90 CURVE SMOOTH",
"694 88 OFFCURVE",
"698 88 OFFCURVE",
"702 88 CURVE SMOOTH",
"709 88 OFFCURVE",
"715 90 OFFCURVE",
"721 95 CURVE SMOOTH",
"726 101 OFFCURVE",
"729 107 OFFCURVE",
"729 108 CURVE SMOOTH",
"897 570 LINE SMOOTH",
"899 575 OFFCURVE",
"896 581 OFFCURVE",
"891 583 CURVE SMOOTH",
"890 583 OFFCURVE",
"889 583 OFFCURVE",
"888 583 CURVE SMOOTH",
"884 583 OFFCURVE",
"880 581 OFFCURVE",
"878 577 CURVE SMOOTH",
"710 115 LINE SMOOTH",
"709 111 OFFCURVE",
"706 108 OFFCURVE",
"702 108 CURVE SMOOTH",
"700 108 OFFCURVE",
"699 108 OFFCURVE",
"697 109 CURVE SMOOTH",
"690 111 OFFCURVE",
"690 117 OFFCURVE",
"691 122 CURVE SMOOTH",
"881 643 LINE SMOOTH",
"885 654 OFFCURVE",
"884 673 OFFCURVE",
"863 681 CURVE SMOOTH",
"859 682 OFFCURVE",
"855 683 OFFCURVE",
"852 683 CURVE SMOOTH",
"845 683 OFFCURVE",
"838 681 OFFCURVE",
"833 675 CURVE SMOOTH",
"827 670 OFFCURVE",
"825 664 OFFCURVE",
"825 663 CURVE SMOOTH",
"668 232 LINE SMOOTH",
"666 228 OFFCURVE",
"664 225 OFFCURVE",
"659 225 CURVE SMOOTH",
"658 225 OFFCURVE",
"656 225 OFFCURVE",
"655 226 CURVE SMOOTH",
"647 228 OFFCURVE",
"647 234 OFFCURVE",
"649 238 CURVE SMOOTH",
"854 801 LINE",
"1077 22 LINE SMOOTH",
"1080 13 OFFCURVE",
"1089 1 OFFCURVE",
"1105 1 CURVE SMOOTH",
"1108 1 OFFCURVE",
"1111 1 OFFCURVE",
"1114 2 CURVE SMOOTH",
"1135 8 OFFCURVE",
"1138 27 OFFCURVE",
"1135 39 CURVE SMOOTH",
"920 790 LINE SMOOTH",
"918 794 OFFCURVE",
"919 800 OFFCURVE",
"926 802 CURVE SMOOTH",
"928 802 OFFCURVE",
"929 802 OFFCURVE",
"930 802 CURVE SMOOTH",
"936 802 OFFCURVE",
"938 797 OFFCURVE",
"939 795 CURVE SMOOTH",
"1160 22 LINE SMOOTH",
"1163 13 OFFCURVE",
"1172 1 OFFCURVE",
"1188 1 CURVE SMOOTH"
);
},
{
closed = 1;
nodes = (
"658 0 OFFCURVE",
"661 1 OFFCURVE",
"665 2 CURVE SMOOTH",
"677 6 OFFCURVE",
"684 15 OFFCURVE",
"685 26 CURVE SMOOTH",
"686 33 OFFCURVE",
"684 39 OFFCURVE",
"683 41 CURVE SMOOTH",
"404 808 LINE SMOOTH",
"401 816 OFFCURVE",
"394 821 OFFCURVE",
"385 821 CURVE SMOOTH",
"385 821 OFFCURVE",
"385 821 OFFCURVE",
"384 821 CURVE SMOOTH",
"376 821 OFFCURVE",
"368 815 OFFCURVE",
"366 807 CURVE SMOOTH",
"143 28 LINE SMOOTH",
"142 24 OFFCURVE",
"139 21 OFFCURVE",
"134 21 CURVE SMOOTH",
"133 21 OFFCURVE",
"132 21 OFFCURVE",
"130 21 CURVE SMOOTH",
"123 23 OFFCURVE",
"122 29 OFFCURVE",
"123 34 CURVE SMOOTH",
"339 784 LINE SMOOTH",
"339 785 OFFCURVE",
"341 791 OFFCURVE",
"339 799 CURVE SMOOTH",
"337 810 OFFCURVE",
"330 818 OFFCURVE",
"318 821 CURVE SMOOTH",
"315 822 OFFCURVE",
"312 823 OFFCURVE",
"309 823 CURVE SMOOTH",
"293 823 OFFCURVE",
"284 810 OFFCURVE",
"281 801 CURVE SMOOTH",
"59 28 LINE SMOOTH",
"58 24 OFFCURVE",
"56 21 OFFCURVE",
"51 21 CURVE SMOOTH",
"50 21 OFFCURVE",
"48 21 OFFCURVE",
"47 21 CURVE SMOOTH",
"39 23 OFFCURVE",
"39 29 OFFCURVE",
"40 34 CURVE SMOOTH",
"262 809 LINE SMOOTH",
"264 814 OFFCURVE",
"261 820 OFFCURVE",
"256 821 CURVE SMOOTH",
"255 821 OFFCURVE",
"254 822 OFFCURVE",
"253 822 CURVE SMOOTH",
"249 822 OFFCURVE",
"245 819 OFFCURVE",
"243 814 CURVE SMOOTH",
"21 39 LINE SMOOTH",
"21 38 OFFCURVE",
"19 32 OFFCURVE",
"20 24 CURVE SMOOTH",
"22 13 OFFCURVE",
"30 5 OFFCURVE",
"42 2 CURVE SMOOTH",
"45 1 OFFCURVE",
"48 1 OFFCURVE",
"51 1 CURVE SMOOTH",
"66 1 OFFCURVE",
"76 13 OFFCURVE",
"79 22 CURVE SMOOTH",
"300 795 LINE SMOOTH",
"301 799 OFFCURVE",
"304 802 OFFCURVE",
"309 802 CURVE SMOOTH",
"310 802 OFFCURVE",
"311 802 OFFCURVE",
"313 802 CURVE SMOOTH",
"318 800 OFFCURVE",
"319 798 OFFCURVE",
"320 795 CURVE SMOOTH",
"320 792 OFFCURVE",
"319 790 OFFCURVE",
"319 790 CURVE",
"104 39 LINE SMOOTH",
"104 38 OFFCURVE",
"102 32 OFFCURVE",
"104 24 CURVE SMOOTH",
"106 13 OFFCURVE",
"113 5 OFFCURVE",
"125 2 CURVE SMOOTH",
"128 1 OFFCURVE",
"131 1 OFFCURVE",
"134 1 CURVE SMOOTH",
"142 1 OFFCURVE",
"149 4 OFFCURVE",
"154 10 CURVE SMOOTH",
"160 15 OFFCURVE",
"162 21 OFFCURVE",
"162 22 CURVE SMOOTH",
"385 801 LINE",
"665 34 LINE SMOOTH",
"666 29 OFFCURVE",
"666 24 OFFCURVE",
"659 21 CURVE SMOOTH",
"657 20 OFFCURVE",
"656 20 OFFCURVE",
"654 20 CURVE SMOOTH",
"649 20 OFFCURVE",
"647 25 OFFCURVE",
"646 27 CURVE SMOOTH",
"414 663 LINE SMOOTH",
"414 664 OFFCURVE",
"411 670 OFFCURVE",
"406 675 CURVE SMOOTH",
"401 681 OFFCURVE",
"394 683 OFFCURVE",
"387 683 CURVE SMOOTH",
"383 683 OFFCURVE",
"380 682 OFFCURVE",
"376 681 CURVE SMOOTH",
"364 677 OFFCURVE",
"358 668 OFFCURVE",
"356 657 CURVE SMOOTH",
"355 650 OFFCURVE",
"357 644 OFFCURVE",
"358 643 CURVE SMOOTH",
"579 34 LINE SMOOTH",
"581 29 OFFCURVE",
"581 24 OFFCURVE",
"573 21 CURVE SMOOTH",
"572 20 OFFCURVE",
"570 20 OFFCURVE",
"569 20 CURVE SMOOTH",
"564 20 OFFCURVE",
"561 25 OFFCURVE",
"561 27 CURVE SMOOTH",
"360 577 LINE SMOOTH",
"359 581 OFFCURVE",
"355 583 OFFCURVE",
"351 583 CURVE SMOOTH",
"350 583 OFFCURVE",
"349 583 OFFCURVE",
"348 583 CURVE SMOOTH",
"342 581 OFFCURVE",
"340 575 OFFCURVE",
"342 570 CURVE SMOOTH",
"542 20 LINE SMOOTH",
"545 11 OFFCURVE",
"555 0 OFFCURVE",
"569 0 CURVE SMOOTH",
"573 0 OFFCURVE",
"576 1 OFFCURVE",
"580 2 CURVE SMOOTH",
"592 6 OFFCURVE",
"599 15 OFFCURVE",
"600 26 CURVE SMOOTH",
"601 33 OFFCURVE",
"599 39 OFFCURVE",
"598 41 CURVE SMOOTH",
"377 649 LINE SMOOTH",
"375 654 OFFCURVE",
"375 659 OFFCURVE",
"383 662 CURVE SMOOTH",
"384 663 OFFCURVE",
"386 663 OFFCURVE",
"387 663 CURVE SMOOTH",
"392 663 OFFCURVE",
"394 660 OFFCURVE",
"395 656 CURVE SMOOTH",
"627 20 LINE SMOOTH",
"630 11 OFFCURVE",
"640 0 OFFCURVE",
"654 0 CURVE SMOOTH"
);
}
);
width = 1239;
}
);
leftKerningGroup = M;
leftMetricsKey = M;
rightKerningGroup = M;
rightMetricsKey = M;
unicode = 006D;
},
{
glyphname = n;
lastChange = "2015-06-05 10:52:29 +0000";
layers = (
{
layerId = "6FC19134-58B3-4B2A-889D-9A5D8CFAFAD6";
name = Regular;
paths = (
{
closed = 1;
nodes = (
"593 -3 OFFCURVE",
"588 -2 OFFCURVE",
"584 1 CURVE SMOOTH",
"577 5 OFFCURVE",
"574 11 OFFCURVE",
"573 12 CURVE SMOOTH",
"126 787 LINE SMOOTH",
"117 802 OFFCURVE",
"103 804 OFFCURVE",
"92 801 CURVE SMOOTH",
"82 798 OFFCURVE",
"70 789 OFFCURVE",
"70 772 CURVE SMOOTH",
"70 30 LINE SMOOTH",
"70 25 OFFCURVE",
"72 20 OFFCURVE",
"80 20 CURVE SMOOTH",
"88 20 OFFCURVE",
"90 25 OFFCURVE",
"90 30 CURVE SMOOTH",
"90 703 LINE SMOOTH",
"90 715 OFFCURVE",
"98 733 OFFCURVE",
"120 733 CURVE SMOOTH",
"142 733 OFFCURVE",
"150 715 OFFCURVE",
"150 703 CURVE SMOOTH",
"150 30 LINE SMOOTH",
"150 25 OFFCURVE",
"152 20 OFFCURVE",
"160 20 CURVE SMOOTH",
"168 20 OFFCURVE",
"170 25 OFFCURVE",
"170 30 CURVE SMOOTH",
"170 633 LINE SMOOTH",
"170 638 OFFCURVE",
"173 642 OFFCURVE",
"177 643 CURVE SMOOTH",
"182 644 OFFCURVE",
"186 642 OFFCURVE",
"189 638 CURVE SMOOTH",
"549 15 LINE SMOOTH",
"551 10 OFFCURVE",
"550 4 OFFCURVE",
"545 1 CURVE SMOOTH",
"540 -2 OFFCURVE",
"534 0 OFFCURVE",
"531 5 CURVE SMOOTH",
"190 596 LINE",
"190 30 LINE SMOOTH",
"190 18 OFFCURVE",
"182 0 OFFCURVE",
"160 0 CURVE SMOOTH",
"138 0 OFFCURVE",
"130 18 OFFCURVE",
"130 30 CURVE SMOOTH",
"130 703 LINE",
"130 707 OFFCURVE",
"128 713 OFFCURVE",
"120 713 CURVE SMOOTH",
"112 713 OFFCURVE",
"110 707 OFFCURVE",
"110 702 CURVE SMOOTH",
"110 30 LINE SMOOTH",
"110 18 OFFCURVE",
"102 0 OFFCURVE",
"80 0 CURVE SMOOTH",
"58 0 OFFCURVE",
"50 18 OFFCURVE",
"50 30 CURVE SMOOTH",
"50 772 LINE SMOOTH",
"50 795 OFFCURVE",
"65 814 OFFCURVE",
"87 820 CURVE SMOOTH",
"110 826 OFFCURVE",
"132 817 OFFCURVE",
"143 797 CURVE SMOOTH",
"591 22 LINE SMOOTH",
"593 18 OFFCURVE",
"597 14 OFFCURVE",
"604 18 CURVE SMOOTH",
"609 21 OFFCURVE",
"610 24 OFFCURVE",
"609 27 CURVE SMOOTH",
"609 29 OFFCURVE",
"608 32 OFFCURVE",
"608 32 CURVE",
"178 776 LINE SMOOTH",
"172 787 OFFCURVE",
"170 806 OFFCURVE",
"189 817 CURVE SMOOTH",
"208 828 OFFCURVE",
"224 817 OFFCURVE",
"230 806 CURVE SMOOTH",
"570 218 LINE",
"570 790 LINE SMOOTH",
"570 802 OFFCURVE",
"578 820 OFFCURVE",
"600 820 CURVE SMOOTH",
"622 820 OFFCURVE",
"630 802 OFFCURVE",
"630 790 CURVE SMOOTH",
"630 111 LINE SMOOTH",
"630 107 OFFCURVE",
"632 101 OFFCURVE",
"640 101 CURVE SMOOTH",
"648 101 OFFCURVE",
"650 107 OFFCURVE",
"650 111 CURVE SMOOTH",
"650 790 LINE SMOOTH",
"650 802 OFFCURVE",
"658 820 OFFCURVE",
"680 820 CURVE SMOOTH",
"702 820 OFFCURVE",
"710 802 OFFCURVE",
"710 790 CURVE SMOOTH",
"710 10 LINE SMOOTH",
"710 4 OFFCURVE",
"706 0 OFFCURVE",
"700 0 CURVE SMOOTH",
"694 0 OFFCURVE",
"690 4 OFFCURVE",
"690 10 CURVE SMOOTH",
"690 790 LINE",
"690 794 OFFCURVE",
"688 800 OFFCURVE",
"680 800 CURVE SMOOTH",
"672 800 OFFCURVE",
"670 794 OFFCURVE",
"670 790 CURVE SMOOTH",
"670 111 LINE SMOOTH",
"670 99 OFFCURVE",
"662 81 OFFCURVE",
"640 81 CURVE SMOOTH",
"618 81 OFFCURVE",
"610 99 OFFCURVE",
"610 111 CURVE SMOOTH",
"610 790 LINE",
"610 794 OFFCURVE",
"608 800 OFFCURVE",
"600 800 CURVE SMOOTH",
"592 800 OFFCURVE",
"590 794 OFFCURVE",
"590 790 CURVE SMOOTH",
"590 180 LINE SMOOTH",
"590 176 OFFCURVE",
"587 172 OFFCURVE",
"583 171 CURVE SMOOTH",
"578 170 OFFCURVE",
"574 172 OFFCURVE",
"571 175 CURVE SMOOTH",
"213 796 LINE SMOOTH",
"211 800 OFFCURVE",
"206 804 OFFCURVE",
"199 800 CURVE SMOOTH",
"192 796 OFFCURVE",
"193 790 OFFCURVE",
"196 786 CURVE SMOOTH",
"625 42 LINE SMOOTH",
"626 41 OFFCURVE",
"629 35 OFFCURVE",
"629 28 CURVE SMOOTH",
"630 17 OFFCURVE",
"625 7 OFFCURVE",
"614 1 CURVE SMOOTH",
"609 -2 OFFCURVE",
"604 -3 OFFCURVE",
"599 -3 CURVE SMOOTH"
);
}
);
width = 760;
}
);
leftKerningGroup = N;
leftMetricsKey = N;
rightKerningGroup = N;
rightMetricsKey = N;
unicode = 006E;
},
{
glyphname = o;
lastChange = "2015-06-05 10:52:29 +0000";
layers = (
{
layerId = "6FC19134-58B3-4B2A-889D-9A5D8CFAFAD6";
name = Regular;
paths = (
{
closed = 1;
nodes = (
"228 -10 OFFCURVE",
"40 178 OFFCURVE",
"40 410 CURVE SMOOTH",
"40 642 OFFCURVE",
"228 830 OFFCURVE",
"460 830 CURVE SMOOTH",
"692 830 OFFCURVE",
"880 642 OFFCURVE",
"880 410 CURVE SMOOTH",
"880 178 OFFCURVE",
"692 -10 OFFCURVE",
"460 -10 CURVE SMOOTH"
);
},
{
closed = 1;
nodes = (
"239 810 OFFCURVE",
"60 631 OFFCURVE",
"60 410 CURVE SMOOTH",
"60 189 OFFCURVE",
"239 10 OFFCURVE",
"460 10 CURVE SMOOTH",
"681 10 OFFCURVE",
"860 189 OFFCURVE",
"860 410 CURVE SMOOTH",
"860 631 OFFCURVE",
"681 810 OFFCURVE",
"460 810 CURVE SMOOTH"
);
},
{
closed = 1;
nodes = (
"250 30 OFFCURVE",
"80 200 OFFCURVE",
"80 410 CURVE SMOOTH",
"80 620 OFFCURVE",
"250 790 OFFCURVE",
"460 790 CURVE SMOOTH",
"670 790 OFFCURVE",
"840 620 OFFCURVE",
"840 410 CURVE SMOOTH",
"840 200 OFFCURVE",
"670 30 OFFCURVE",
"460 30 CURVE SMOOTH"
);
},
{
closed = 1;
nodes = (
"261 770 OFFCURVE",
"100 609 OFFCURVE",
"100 410 CURVE SMOOTH",
"100 211 OFFCURVE",
"261 50 OFFCURVE",
"460 50 CURVE SMOOTH",
"659 50 OFFCURVE",
"820 211 OFFCURVE",
"820 410 CURVE SMOOTH",
"820 609 OFFCURVE",
"659 770 OFFCURVE",
"460 770 CURVE SMOOTH"
);
},
{
closed = 1;
nodes = (
"273 70 OFFCURVE",
"120 223 OFFCURVE",
"120 410 CURVE SMOOTH",
"120 597 OFFCURVE",
"273 750 OFFCURVE",
"460 750 CURVE SMOOTH",
"647 750 OFFCURVE",
"800 597 OFFCURVE",
"800 410 CURVE SMOOTH",
"800 223 OFFCURVE",
"647 70 OFFCURVE",
"460 70 CURVE SMOOTH"
);
},
{
closed = 1;
nodes = (
"284 730 OFFCURVE",
"140 586 OFFCURVE",
"140 410 CURVE SMOOTH",
"140 234 OFFCURVE",
"284 90 OFFCURVE",
"460 90 CURVE SMOOTH",
"636 90 OFFCURVE",
"780 234 OFFCURVE",
"780 410 CURVE SMOOTH",
"780 586 OFFCURVE",
"636 730 OFFCURVE",
"460 730 CURVE SMOOTH"
);
},
{
closed = 1;
nodes = (
"295 110 OFFCURVE",
"160 245 OFFCURVE",
"160 410 CURVE SMOOTH",
"160 575 OFFCURVE",
"295 710 OFFCURVE",
"460 710 CURVE SMOOTH",
"625 710 OFFCURVE",
"760 575 OFFCURVE",
"760 410 CURVE SMOOTH",
"760 245 OFFCURVE",
"625 110 OFFCURVE",
"460 110 CURVE SMOOTH"
);
},
{
closed = 1;
nodes = (
"306 690 OFFCURVE",
"180 564 OFFCURVE",
"180 410 CURVE SMOOTH",
"180 256 OFFCURVE",
"306 130 OFFCURVE",
"460 130 CURVE SMOOTH",
"614 130 OFFCURVE",
"740 256 OFFCURVE",
"740 410 CURVE SMOOTH",
"740 564 OFFCURVE",
"614 690 OFFCURVE",
"460 690 CURVE SMOOTH"
);
}
);
width = 920;
}
);
leftKerningGroup = O;
leftMetricsKey = O;
rightKerningGroup = O;
rightMetricsKey = O;
unicode = 006F;
},
{
glyphname = p;
lastChange = "2015-06-05 10:52:29 +0000";
layers = (
{
layerId = "6FC19134-58B3-4B2A-889D-9A5D8CFAFAD6";
name = Regular;
paths = (
{
closed = 1;
nodes = (
"138 0 OFFCURVE",
"130 18 OFFCURVE",
"130 30 CURVE SMOOTH",
"130 790 LINE",
"130 795 OFFCURVE",
"128 800 OFFCURVE",
"120 800 CURVE SMOOTH",
"112 800 OFFCURVE",
"110 795 OFFCURVE",
"110 790 CURVE SMOOTH",
"110 30 LINE SMOOTH",
"110 18 OFFCURVE",
"102 0 OFFCURVE",
"80 0 CURVE SMOOTH",
"58 0 OFFCURVE",
"50 18 OFFCURVE",
"50 30 CURVE SMOOTH",
"50 810 LINE SMOOTH",
"50 816 OFFCURVE",
"54 820 OFFCURVE",
"60 820 CURVE SMOOTH",
"66 820 OFFCURVE",
"70 816 OFFCURVE",
"70 810 CURVE SMOOTH",
"70 30 LINE SMOOTH",
"70 25 OFFCURVE",
"72 20 OFFCURVE",
"80 20 CURVE SMOOTH",
"88 20 OFFCURVE",
"90 25 OFFCURVE",
"90 30 CURVE SMOOTH",
"90 790 LINE SMOOTH",
"90 802 OFFCURVE",
"98 820 OFFCURVE",
"120 820 CURVE SMOOTH",
"142 820 OFFCURVE",
"150 802 OFFCURVE",
"150 790 CURVE SMOOTH",
"150 30 LINE SMOOTH",
"150 25 OFFCURVE",
"152 20 OFFCURVE",
"160 20 CURVE SMOOTH",
"168 20 OFFCURVE",
"170 25 OFFCURVE",
"170 30 CURVE SMOOTH",
"170 790 LINE SMOOTH",
"170 807 OFFCURVE",
"183 820 OFFCURVE",
"200 820 CURVE SMOOTH",
"275 820 LINE SMOOTH",
"343 820 OFFCURVE",
"410 792 OFFCURVE",
"458 742 CURVE SMOOTH",
"506 694 OFFCURVE",
"531 631 OFFCURVE",
"530 565 CURVE SMOOTH",
"527 430 OFFCURVE",
"415 320 OFFCURVE",
"280 320 CURVE SMOOTH",
"240 320 LINE SMOOTH",
"223 320 OFFCURVE",
"210 333 OFFCURVE",
"210 350 CURVE SMOOTH",
"210 367 OFFCURVE",
"223 380 OFFCURVE",
"240 380 CURVE SMOOTH",
"275 380 LINE SMOOTH",
"379 380 OFFCURVE",
"466 462 OFFCURVE",
"470 563 CURVE SMOOTH",
"472 615 OFFCURVE",
"453 664 OFFCURVE",
"417 702 CURVE SMOOTH",
"381 739 OFFCURVE",
"332 760 OFFCURVE",
"280 760 CURVE SMOOTH",
"240 760 LINE SMOOTH",
"234 760 OFFCURVE",
"230 756 OFFCURVE",
"230 750 CURVE SMOOTH",
"230 744 OFFCURVE",
"234 740 OFFCURVE",
"240 740 CURVE SMOOTH",
"275 740 LINE SMOOTH",
"369 740 OFFCURVE",
"446 669 OFFCURVE",
"450 578 CURVE SMOOTH",
"452 531 OFFCURVE",
"435 487 OFFCURVE",
"403 453 CURVE SMOOTH",
"371 419 OFFCURVE",
"327 400 OFFCURVE",
"280 400 CURVE SMOOTH",
"240 400 LINE SMOOTH",
"223 400 OFFCURVE",
"210 413 OFFCURVE",
"210 430 CURVE SMOOTH",
"210 447 OFFCURVE",
"223 460 OFFCURVE",
"240 460 CURVE SMOOTH",
"276 460 LINE SMOOTH",
"338 460 OFFCURVE",
"389 508 OFFCURVE",
"390 568 CURVE SMOOTH",
"391 598 OFFCURVE",
"379 626 OFFCURVE",
"358 647 CURVE SMOOTH",
"338 668 OFFCURVE",
"310 680 OFFCURVE",
"280 680 CURVE SMOOTH",
"220 680 LINE SMOOTH",
"214 680 OFFCURVE",
"210 684 OFFCURVE",
"210 690 CURVE SMOOTH",
"210 696 OFFCURVE",
"214 700 OFFCURVE",
"220 700 CURVE SMOOTH",
"280 700 LINE SMOOTH",
"315 700 OFFCURVE",
"348 686 OFFCURVE",
"373 661 CURVE SMOOTH",
"397 636 OFFCURVE",
"411 603 OFFCURVE",
"410 568 CURVE SMOOTH",
"409 497 OFFCURVE",
"349 440 OFFCURVE",
"276 440 CURVE SMOOTH",
"240 440 LINE SMOOTH",
"234 440 OFFCURVE",
"230 436 OFFCURVE",
"230 430 CURVE SMOOTH",
"230 424 OFFCURVE",
"234 420 OFFCURVE",
"240 420 CURVE SMOOTH",
"280 420 LINE SMOOTH",
"321 420 OFFCURVE",
"360 437 OFFCURVE",
"389 466 CURVE SMOOTH",
"417 496 OFFCURVE",
"432 536 OFFCURVE",
"430 577 CURVE SMOOTH",
"426 657 OFFCURVE",
"358 720 OFFCURVE",
"275 720 CURVE SMOOTH",
"240 720 LINE SMOOTH",
"223 720 OFFCURVE",
"210 733 OFFCURVE",
"210 750 CURVE SMOOTH",
"210 767 OFFCURVE",
"223 780 OFFCURVE",
"240 780 CURVE SMOOTH",
"280 780 LINE SMOOTH",
"338 780 OFFCURVE",
"391 757 OFFCURVE",
"431 716 CURVE SMOOTH",
"471 674 OFFCURVE",
"492 620 OFFCURVE",
"490 562 CURVE SMOOTH",
"486 451 OFFCURVE",
"390 360 OFFCURVE",
"275 360 CURVE SMOOTH",
"240 360 LINE SMOOTH",
"234 360 OFFCURVE",
"230 356 OFFCURVE",
"230 350 CURVE SMOOTH",
"230 344 OFFCURVE",
"234 340 OFFCURVE",
"240 340 CURVE SMOOTH",
"280 340 LINE SMOOTH",
"404 340 OFFCURVE",
"508 441 OFFCURVE",
"510 566 CURVE SMOOTH",
"511 626 OFFCURVE",
"488 684 OFFCURVE",
"444 728 CURVE SMOOTH",
"400 774 OFFCURVE",
"338 800 OFFCURVE",
"275 800 CURVE SMOOTH",
"200 800 LINE SMOOTH",
"194 800 OFFCURVE",
"190 796 OFFCURVE",
"190 790 CURVE SMOOTH",
"190 30 LINE SMOOTH",
"190 18 OFFCURVE",
"182 0 OFFCURVE",
"160 0 CURVE SMOOTH"
);
}
);
width = 530;
}
);
leftKerningGroup = P;
leftMetricsKey = P;
rightKerningGroup = P;
rightMetricsKey = P;
unicode = 0070;
},
{
glyphname = q;
lastChange = "2015-06-05 10:52:29 +0000";
layers = (
{
layerId = "6FC19134-58B3-4B2A-889D-9A5D8CFAFAD6";
name = Regular;
paths = (
{
closed = 1;
nodes = (
"453 -10 OFFCURVE",
"446 -10 OFFCURVE",
"439 -10 CURVE SMOOTH",
"227 1 OFFCURVE",
"52 176 OFFCURVE",
"41 388 CURVE SMOOTH",
"35 507 OFFCURVE",
"80 623 OFFCURVE",
"163 707 CURVE SMOOTH",
"247 791 OFFCURVE",
"364 835 OFFCURVE",
"482 829 CURVE SMOOTH",
"695 818 OFFCURVE",
"869 644 OFFCURVE",
"880 431 CURVE SMOOTH",
"884 342 OFFCURVE",
"861 255 OFFCURVE",
"813 181 CURVE SMOOTH",
"810 176 OFFCURVE",
"804 175 OFFCURVE",
"799 178 CURVE SMOOTH",
"794 181 OFFCURVE",
"793 187 OFFCURVE",
"796 192 CURVE SMOOTH",
"842 263 OFFCURVE",
"864 345 OFFCURVE",
"860 430 CURVE SMOOTH",
"850 633 OFFCURVE",
"683 799 OFFCURVE",
"481 809 CURVE SMOOTH",
"368 815 OFFCURVE",
"257 772 OFFCURVE",
"178 693 CURVE SMOOTH",
"98 613 OFFCURVE",
"55 502 OFFCURVE",
"61 389 CURVE SMOOTH",
"71 187 OFFCURVE",
"238 20 OFFCURVE",
"440 10 CURVE SMOOTH",
"506 7 OFFCURVE",
"572 20 OFFCURVE",
"632 48 CURVE SMOOTH",
"634 49 OFFCURVE",
"636 52 OFFCURVE",
"637 54 CURVE SMOOTH",
"637 57 OFFCURVE",
"637 60 OFFCURVE",
"635 62 CURVE SMOOTH",
"633 64 LINE SMOOTH",
"631 67 OFFCURVE",
"626 68 OFFCURVE",
"622 66 CURVE SMOOTH",
"565 39 OFFCURVE",
"502 27 OFFCURVE",
"438 30 CURVE SMOOTH",
"242 42 OFFCURVE",
"85 204 OFFCURVE",
"81 401 CURVE SMOOTH",
"78 507 OFFCURVE",
"121 611 OFFCURVE",
"198 684 CURVE SMOOTH",
"275 759 OFFCURVE",
"378 796 OFFCURVE",
"486 789 CURVE SMOOTH",
"675 777 OFFCURVE",
"827 625 OFFCURVE",
"840 436 CURVE SMOOTH",
"844 368 OFFCURVE",
"831 300 OFFCURVE",
"801 240 CURVE SMOOTH",
"796 231 OFFCURVE",
"788 225 OFFCURVE",
"778 224 CURVE SMOOTH",
"768 223 OFFCURVE",
"758 227 OFFCURVE",
"751 234 CURVE SMOOTH",
"743 244 OFFCURVE",
"742 257 OFFCURVE",
"747 268 CURVE SMOOTH",
"771 316 OFFCURVE",
"783 370 OFFCURVE",
"780 425 CURVE SMOOTH",
"773 592 OFFCURVE",
"635 726 OFFCURVE",
"468 730 CURVE SMOOTH",
"378 732 OFFCURVE",
"291 696 OFFCURVE",
"229 631 CURVE SMOOTH",
"167 566 OFFCURVE",
"135 480 OFFCURVE",
"141 389 CURVE SMOOTH",
"151 230 OFFCURVE",
"278 102 OFFCURVE",
"437 91 CURVE SMOOTH",
"485 87 OFFCURVE",
"532 94 OFFCURVE",
"577 111 CURVE SMOOTH",
"580 113 OFFCURVE",
"582 115 OFFCURVE",
"582 118 CURVE SMOOTH",
"583 121 OFFCURVE",
"582 124 OFFCURVE",
"580 127 CURVE SMOOTH",
"577 130 OFFCURVE",
"573 132 OFFCURVE",
"569 130 CURVE SMOOTH",
"526 113 OFFCURVE",
"481 107 OFFCURVE",
"434 111 CURVE SMOOTH",
"290 123 OFFCURVE",
"173 241 OFFCURVE",
"161 385 CURVE SMOOTH",
"155 471 OFFCURVE",
"185 555 OFFCURVE",
"243 617 CURVE SMOOTH",
"302 679 OFFCURVE",
"385 712 OFFCURVE",
"471 710 CURVE SMOOTH",
"622 705 OFFCURVE",
"749 582 OFFCURVE",
"760 431 CURVE SMOOTH",
"763 379 OFFCURVE",
"753 327 OFFCURVE",
"731 280 CURVE SMOOTH",
"729 276 LINE SMOOTH",
"720 258 OFFCURVE",
"723 237 OFFCURVE",
"735 223 CURVE SMOOTH",
"843 93 LINE SMOOTH",
"851 84 OFFCURVE",
"857 65 OFFCURVE",
"840 51 CURVE SMOOTH",
"830 43 OFFCURVE",
"820 42 OFFCURVE",
"809 46 CURVE SMOOTH",
"802 49 OFFCURVE",
"798 54 OFFCURVE",
"797 55 CURVE SMOOTH",
"682 193 LINE SMOOTH",
"680 195 OFFCURVE",
"677 196 OFFCURVE",
"675 196 CURVE SMOOTH",
"672 196 OFFCURVE",
"669 195 OFFCURVE",
"667 194 CURVE SMOOTH",
"663 190 OFFCURVE",
"663 184 OFFCURVE",
"666 180 CURVE SMOOTH",
"782 42 LINE SMOOTH",
"783 41 OFFCURVE",
"787 36 OFFCURVE",
"789 29 CURVE SMOOTH",
"791 18 OFFCURVE",
"788 8 OFFCURVE",
"778 0 CURVE SMOOTH",
"762 -14 OFFCURVE",
"744 -6 OFFCURVE",
"736 3 CURVE SMOOTH",
"607 157 LINE SMOOTH",
"603 162 OFFCURVE",
"604 168 OFFCURVE",
"608 172 CURVE SMOOTH",
"612 175 OFFCURVE",
"619 175 OFFCURVE",
"622 170 CURVE SMOOTH",
"751 16 LINE SMOOTH",
"754 13 OFFCURVE",
"759 10 OFFCURVE",
"766 15 CURVE SMOOTH",
"770 19 OFFCURVE",
"770 22 OFFCURVE",
"769 24 CURVE SMOOTH",
"769 27 OFFCURVE",
"767 29 OFFCURVE",
"767 29 CURVE",
"651 167 LINE SMOOTH",
"641 179 OFFCURVE",
"642 197 OFFCURVE",
"653 208 CURVE SMOOTH",
"659 214 OFFCURVE",
"668 217 OFFCURVE",
"676 216 CURVE SMOOTH",
"684 216 OFFCURVE",
"692 212 OFFCURVE",
"697 206 CURVE SMOOTH",
"813 68 LINE SMOOTH",
"816 64 OFFCURVE",
"821 61 OFFCURVE",
"827 67 CURVE SMOOTH",
"834 72 OFFCURVE",
"830 78 OFFCURVE",
"828 81 CURVE SMOOTH",
"720 209 LINE SMOOTH",
"702 231 OFFCURVE",
"699 260 OFFCURVE",
"711 285 CURVE SMOOTH",
"713 289 LINE SMOOTH",
"734 332 OFFCURVE",
"743 381 OFFCURVE",
"740 430 CURVE SMOOTH",
"730 571 OFFCURVE",
"611 685 OFFCURVE",
"470 690 CURVE SMOOTH",
"390 692 OFFCURVE",
"313 661 OFFCURVE",
"258 603 CURVE SMOOTH",
"203 545 OFFCURVE",
"175 467 OFFCURVE",
"181 387 CURVE SMOOTH",
"192 252 OFFCURVE",
"301 142 OFFCURVE",
"436 131 CURVE SMOOTH",
"480 127 OFFCURVE",
"522 133 OFFCURVE",
"562 149 CURVE SMOOTH",
"574 153 OFFCURVE",
"587 150 OFFCURVE",
"595 140 CURVE SMOOTH",
"602 132 OFFCURVE",
"604 122 OFFCURVE",
"602 113 CURVE SMOOTH",
"599 104 OFFCURVE",
"593 96 OFFCURVE",
"584 93 CURVE SMOOTH",
"537 74 OFFCURVE",
"487 67 OFFCURVE",
"435 71 CURVE SMOOTH",
"267 83 OFFCURVE",
"132 219 OFFCURVE",
"121 387 CURVE SMOOTH",
"115 484 OFFCURVE",
"148 575 OFFCURVE",
"215 645 CURVE SMOOTH",
"281 714 OFFCURVE",
"373 752 OFFCURVE",
"468 750 CURVE SMOOTH",
"646 746 OFFCURVE",
"792 603 OFFCURVE",
"800 426 CURVE SMOOTH",
"803 368 OFFCURVE",
"791 310 OFFCURVE",
"765 259 CURVE SMOOTH",
"763 255 OFFCURVE",
"764 251 OFFCURVE",
"766 248 CURVE SMOOTH",
"769 245 OFFCURVE",
"772 243 OFFCURVE",
"775 244 CURVE SMOOTH",
"777 244 OFFCURVE",
"781 245 OFFCURVE",
"783 249 CURVE SMOOTH",
"811 306 OFFCURVE",
"824 370 OFFCURVE",
"820 434 CURVE SMOOTH",
"808 614 OFFCURVE",
"664 757 OFFCURVE",
"484 769 CURVE SMOOTH",
"382 776 OFFCURVE",
"285 740 OFFCURVE",
"211 670 CURVE SMOOTH",
"139 600 OFFCURVE",
"98 502 OFFCURVE",
"101 401 CURVE SMOOTH",
"105 215 OFFCURVE",
"254 61 OFFCURVE",
"439 50 CURVE SMOOTH",
"500 47 OFFCURVE",
"560 59 OFFCURVE",
"614 84 CURVE SMOOTH",
"626 90 OFFCURVE",
"640 87 OFFCURVE",
"649 77 CURVE SMOOTH",
"650 75 LINE SMOOTH",
"656 68 OFFCURVE",
"658 59 OFFCURVE",
"656 50 CURVE SMOOTH",
"654 41 OFFCURVE",
"648 34 OFFCURVE",
"640 30 CURVE SMOOTH",
"584 4 OFFCURVE",
"522 -10 OFFCURVE",
"460 -10 CURVE SMOOTH"
);
}
);
width = 920;
}
);
leftKerningGroup = Q;
leftMetricsKey = Q;
rightKerningGroup = Q;
rightMetricsKey = Q;
unicode = 0071;
},
{
glyphname = r;
lastChange = "2015-06-05 10:52:29 +0000";
layers = (
{
layerId = "6FC19134-58B3-4B2A-889D-9A5D8CFAFAD6";
name = Regular;
paths = (
{
closed = 1;
nodes = (
"472 -2 OFFCURVE",
"462 8 OFFCURVE",
"459 17 CURVE SMOOTH",
"306 395 LINE SMOOTH",
"304 399 OFFCURVE",
"300 404 OFFCURVE",
"293 401 CURVE SMOOTH",
"286 398 OFFCURVE",
"286 392 OFFCURVE",
"288 388 CURVE SMOOTH",
"428 40 LINE SMOOTH",
"433 28 OFFCURVE",
"432 9 OFFCURVE",
"412 0 CURVE SMOOTH",
"400 -4 OFFCURVE",
"390 -2 OFFCURVE",
"381 5 CURVE SMOOTH",
"376 10 OFFCURVE",
"373 16 OFFCURVE",
"373 17 CURVE SMOOTH",
"224 385 LINE SMOOTH",
"220 395 OFFCURVE",
"211 397 OFFCURVE",
"204 396 CURVE SMOOTH",
"197 395 OFFCURVE",
"190 389 OFFCURVE",
"190 379 CURVE SMOOTH",
"190 30 LINE SMOOTH",
"190 18 OFFCURVE",
"182 0 OFFCURVE",
"160 0 CURVE SMOOTH",
"138 0 OFFCURVE",
"130 18 OFFCURVE",
"130 30 CURVE SMOOTH",
"130 790 LINE",
"130 794 OFFCURVE",
"128 800 OFFCURVE",
"120 800 CURVE SMOOTH",
"112 800 OFFCURVE",
"110 794 OFFCURVE",
"110 790 CURVE SMOOTH",
"110 30 LINE SMOOTH",
"110 18 OFFCURVE",
"102 0 OFFCURVE",
"80 0 CURVE SMOOTH",
"58 0 OFFCURVE",
"50 18 OFFCURVE",
"50 30 CURVE SMOOTH",
"50 810 LINE SMOOTH",
"50 815 OFFCURVE",
"54 820 OFFCURVE",
"60 820 CURVE SMOOTH",
"66 820 OFFCURVE",
"70 815 OFFCURVE",
"70 810 CURVE SMOOTH",
"70 30 LINE SMOOTH",
"70 25 OFFCURVE",
"72 20 OFFCURVE",
"80 20 CURVE SMOOTH",
"88 20 OFFCURVE",
"90 25 OFFCURVE",
"90 30 CURVE SMOOTH",
"90 790 LINE SMOOTH",
"90 802 OFFCURVE",
"98 820 OFFCURVE",
"120 820 CURVE SMOOTH",
"142 820 OFFCURVE",
"150 802 OFFCURVE",
"150 790 CURVE SMOOTH",
"150 30 LINE SMOOTH",
"150 25 OFFCURVE",
"152 20 OFFCURVE",
"160 20 CURVE SMOOTH",
"168 20 OFFCURVE",
"170 25 OFFCURVE",
"170 30 CURVE SMOOTH",
"170 379 LINE SMOOTH",
"170 397 OFFCURVE",
"182 412 OFFCURVE",
"200 416 CURVE SMOOTH",
"218 419 OFFCURVE",
"235 410 OFFCURVE",
"242 393 CURVE SMOOTH",
"391 25 LINE SMOOTH",
"393 20 OFFCURVE",
"397 16 OFFCURVE",
"404 19 CURVE SMOOTH",
"412 22 OFFCURVE",
"411 28 OFFCURVE",
"410 32 CURVE SMOOTH",
"269 380 LINE SMOOTH",
"268 381 OFFCURVE",
"266 387 OFFCURVE",
"267 395 CURVE SMOOTH",
"268 406 OFFCURVE",
"274 415 OFFCURVE",
"286 419 CURVE SMOOTH",
"297 424 OFFCURVE",
"307 422 OFFCURVE",
"316 415 CURVE SMOOTH",
"322 410 OFFCURVE",
"324 404 OFFCURVE",
"325 403 CURVE SMOOTH",
"477 25 LINE SMOOTH",
"479 20 OFFCURVE",
"483 16 OFFCURVE",
"490 19 CURVE SMOOTH",
"496 21 OFFCURVE",
"496 24 OFFCURVE",
"497 26 CURVE SMOOTH",
"497 29 OFFCURVE",
"496 32 OFFCURVE",
"496 32 CURVE",
"376 330 LINE SMOOTH",
"370 344 OFFCURVE",
"376 360 OFFCURVE",
"389 367 CURVE SMOOTH",
"467 409 OFFCURVE",
"513 490 OFFCURVE",
"510 578 CURVE SMOOTH",
"506 700 OFFCURVE",
"400 800 OFFCURVE",
"274 800 CURVE SMOOTH",
"240 800 LINE SMOOTH",
"234 800 OFFCURVE",
"230 795 OFFCURVE",
"230 790 CURVE SMOOTH",
"230 784 OFFCURVE",
"234 780 OFFCURVE",
"240 780 CURVE SMOOTH",
"275 780 LINE SMOOTH",
"389 780 OFFCURVE",
"486 689 OFFCURVE",
"490 578 CURVE SMOOTH",
"493 501 OFFCURVE",
"454 429 OFFCURVE",
"388 390 CURVE SMOOTH",
"381 385 OFFCURVE",
"372 384 OFFCURVE",
"364 387 CURVE SMOOTH",
"355 390 OFFCURVE",
"349 396 OFFCURVE",
"346 404 CURVE SMOOTH",
"340 418 OFFCURVE",
"345 434 OFFCURVE",
"358 441 CURVE SMOOTH",
"406 471 OFFCURVE",
"433 524 OFFCURVE",
"430 580 CURVE SMOOTH",
"424 658 OFFCURVE",
"357 720 OFFCURVE",
"276 720 CURVE SMOOTH",
"240 720 LINE SMOOTH",
"234 720 OFFCURVE",
"230 715 OFFCURVE",
"230 710 CURVE SMOOTH",
"230 704 OFFCURVE",
"234 700 OFFCURVE",
"240 700 CURVE SMOOTH",
"280 700 LINE SMOOTH",
"315 700 OFFCURVE",
"348 686 OFFCURVE",
"373 661 CURVE SMOOTH",
"397 636 OFFCURVE",
"411 602 OFFCURVE",
"410 567 CURVE SMOOTH",
"409 497 OFFCURVE",
"349 440 OFFCURVE",
"276 440 CURVE SMOOTH",
"220 440 LINE SMOOTH",
"192 440 OFFCURVE",
"170 462 OFFCURVE",
"170 490 CURVE SMOOTH",
"170 810 LINE SMOOTH",
"170 815 OFFCURVE",
"174 820 OFFCURVE",
"180 820 CURVE SMOOTH",
"186 820 OFFCURVE",
"190 815 OFFCURVE",
"190 810 CURVE SMOOTH",
"190 490 LINE SMOOTH",
"190 473 OFFCURVE",
"203 460 OFFCURVE",
"220 460 CURVE SMOOTH",
"276 460 LINE SMOOTH",
"338 460 OFFCURVE",
"389 508 OFFCURVE",
"390 568 CURVE SMOOTH",
"391 597 OFFCURVE",
"379 626 OFFCURVE",
"358 647 CURVE SMOOTH",
"338 668 OFFCURVE",
"310 680 OFFCURVE",
"280 680 CURVE SMOOTH",
"240 680 LINE SMOOTH",
"223 680 OFFCURVE",
"210 693 OFFCURVE",
"210 710 CURVE SMOOTH",
"210 726 OFFCURVE",
"223 740 OFFCURVE",
"240 740 CURVE SMOOTH",
"276 740 LINE SMOOTH",
"367 740 OFFCURVE",
"444 670 OFFCURVE",
"450 581 CURVE SMOOTH",
"454 518 OFFCURVE",
"423 457 OFFCURVE",
"368 424 CURVE SMOOTH",
"364 422 OFFCURVE",
"362 417 OFFCURVE",
"364 412 CURVE SMOOTH",
"365 409 OFFCURVE",
"367 407 OFFCURVE",
"370 406 CURVE SMOOTH",
"372 405 OFFCURVE",
"375 405 OFFCURVE",
"378 407 CURVE SMOOTH",
"437 442 OFFCURVE",
"473 508 OFFCURVE",
"470 577 CURVE SMOOTH",
"466 678 OFFCURVE",
"379 760 OFFCURVE",
"275 760 CURVE SMOOTH",
"240 760 LINE SMOOTH",
"223 760 OFFCURVE",
"210 773 OFFCURVE",
"210 790 CURVE SMOOTH",
"210 806 OFFCURVE",
"223 820 OFFCURVE",
"240 820 CURVE SMOOTH",
"274 820 LINE SMOOTH",
"410 820 OFFCURVE",
"525 712 OFFCURVE",
"530 579 CURVE SMOOTH",
"533 483 OFFCURVE",
"483 395 OFFCURVE",
"399 350 CURVE SMOOTH",
"394 347 OFFCURVE",
"392 342 OFFCURVE",
"394 337 CURVE SMOOTH",
"514 40 LINE SMOOTH",
"515 38 OFFCURVE",
"517 32 OFFCURVE",
"517 25 CURVE SMOOTH",
"516 14 OFFCURVE",
"509 5 OFFCURVE",
"498 0 CURVE SMOOTH",
"493 -1 OFFCURVE",
"489 -2 OFFCURVE",
"486 -2 CURVE SMOOTH"
);
}
);
width = 575;
}
);
leftKerningGroup = R;
leftMetricsKey = R;
rightKerningGroup = R;
rightMetricsKey = R;
unicode = 0072;
},
{
glyphname = s;
lastChange = "2015-06-05 10:52:29 +0000";
layers = (
{
layerId = "6FC19134-58B3-4B2A-889D-9A5D8CFAFAD6";
name = Regular;
paths = (
{
closed = 1;
nodes = (
"198 -10 OFFCURVE",
"119 34 OFFCURVE",
"72 109 CURVE SMOOTH",
"68 116 OFFCURVE",
"67 124 OFFCURVE",
"69 132 CURVE SMOOTH",
"71 140 OFFCURVE",
"77 147 OFFCURVE",
"85 151 CURVE SMOOTH",
"99 158 OFFCURVE",
"115 153 OFFCURVE",
"124 140 CURVE SMOOTH",
"163 77 OFFCURVE",
"233 43 OFFCURVE",
"308 51 CURVE SMOOTH",
"396 61 OFFCURVE",
"466 133 OFFCURVE",
"474 222 CURVE SMOOTH",
"479 276 OFFCURVE",
"462 327 OFFCURVE",
"427 367 CURVE SMOOTH",
"392 406 OFFCURVE",
"341 429 OFFCURVE",
"289 430 CURVE SMOOTH",
"199 432 OFFCURVE",
"127 501 OFFCURVE",
"125 587 CURVE SMOOTH",
"124 630 OFFCURVE",
"141 671 OFFCURVE",
"171 702 CURVE SMOOTH",
"201 733 OFFCURVE",
"242 750 OFFCURVE",
"285 750 CURVE SMOOTH",
"341 750 OFFCURVE",
"394 720 OFFCURVE",
"423 672 CURVE SMOOTH",
"426 667 OFFCURVE",
"431 665 OFFCURVE",
"435 667 CURVE SMOOTH",
"438 668 OFFCURVE",
"440 670 OFFCURVE",
"441 673 CURVE SMOOTH",
"442 676 OFFCURVE",
"442 679 OFFCURVE",
"440 682 CURVE SMOOTH",
"404 743 OFFCURVE",
"338 776 OFFCURVE",
"267 769 CURVE SMOOTH",
"183 761 OFFCURVE",
"115 694 OFFCURVE",
"106 611 CURVE SMOOTH",
"101 559 OFFCURVE",
"116 509 OFFCURVE",
"151 470 CURVE SMOOTH",
"185 432 OFFCURVE",
"234 410 OFFCURVE",
"285 410 CURVE SMOOTH",
"333 410 OFFCURVE",
"380 389 OFFCURVE",
"412 353 CURVE SMOOTH",
"445 317 OFFCURVE",
"460 270 OFFCURVE",
"454 221 CURVE SMOOTH",
"445 143 OFFCURVE",
"383 80 OFFCURVE",
"305 71 CURVE SMOOTH",
"242 64 OFFCURVE",
"181 92 OFFCURVE",
"145 143 CURVE SMOOTH",
"140 150 OFFCURVE",
"139 159 OFFCURVE",
"141 168 CURVE SMOOTH",
"143 176 OFFCURVE",
"149 183 OFFCURVE",
"156 187 CURVE SMOOTH",
"170 194 OFFCURVE",
"186 190 OFFCURVE",
"195 177 CURVE SMOOTH",
"218 144 OFFCURVE",
"257 127 OFFCURVE",
"296 131 CURVE SMOOTH",
"348 136 OFFCURVE",
"389 176 OFFCURVE",
"394 227 CURVE SMOOTH",
"398 259 OFFCURVE",
"388 290 OFFCURVE",
"367 313 CURVE SMOOTH",
"346 337 OFFCURVE",
"316 350 OFFCURVE",
"285 350 CURVE SMOOTH",
"217 350 OFFCURVE",
"152 379 OFFCURVE",
"106 430 CURVE SMOOTH",
"60 481 OFFCURVE",
"39 548 OFFCURVE",
"47 617 CURVE SMOOTH",
"59 727 OFFCURVE",
"147 816 OFFCURVE",
"257 828 CURVE SMOOTH",
"363 840 OFFCURVE",
"462 783 OFFCURVE",
"505 687 CURVE SMOOTH",
"507 682 OFFCURVE",
"505 676 OFFCURVE",
"500 674 CURVE SMOOTH",
"495 671 OFFCURVE",
"489 674 OFFCURVE",
"487 679 CURVE SMOOTH",
"448 767 OFFCURVE",
"356 819 OFFCURVE",
"260 809 CURVE SMOOTH",
"159 797 OFFCURVE",
"78 716 OFFCURVE",
"67 615 CURVE SMOOTH",
"60 552 OFFCURVE",
"79 491 OFFCURVE",
"121 443 CURVE SMOOTH",
"163 397 OFFCURVE",
"223 370 OFFCURVE",
"285 370 CURVE SMOOTH",
"322 370 OFFCURVE",
"357 354 OFFCURVE",
"382 327 CURVE SMOOTH",
"407 299 OFFCURVE",
"418 262 OFFCURVE",
"414 225 CURVE SMOOTH",
"408 165 OFFCURVE",
"359 117 OFFCURVE",
"298 111 CURVE SMOOTH",
"251 106 OFFCURVE",
"205 127 OFFCURVE",
"179 166 CURVE SMOOTH",
"176 170 OFFCURVE",
"170 171 OFFCURVE",
"166 169 CURVE SMOOTH",
"163 168 OFFCURVE",
"161 165 OFFCURVE",
"160 163 CURVE SMOOTH",
"160 160 OFFCURVE",
"160 157 OFFCURVE",
"162 155 CURVE SMOOTH",
"193 109 OFFCURVE",
"247 85 OFFCURVE",
"303 91 CURVE SMOOTH",
"371 99 OFFCURVE",
"427 154 OFFCURVE",
"434 223 CURVE SMOOTH",
"439 266 OFFCURVE",
"426 308 OFFCURVE",
"397 340 CURVE SMOOTH",
"368 372 OFFCURVE",
"328 390 OFFCURVE",
"285 390 CURVE SMOOTH",
"228 390 OFFCURVE",
"174 414 OFFCURVE",
"136 457 CURVE SMOOTH",
"98 500 OFFCURVE",
"80 555 OFFCURVE",
"86 613 CURVE SMOOTH",
"97 706 OFFCURVE",
"172 780 OFFCURVE",
"265 789 CURVE SMOOTH",
"343 797 OFFCURVE",
"417 760 OFFCURVE",
"457 692 CURVE SMOOTH",
"462 684 OFFCURVE",
"463 675 OFFCURVE",
"460 667 CURVE SMOOTH",
"458 659 OFFCURVE",
"452 652 OFFCURVE",
"444 649 CURVE SMOOTH",
"430 643 OFFCURVE",
"413 648 OFFCURVE",
"406 661 CURVE SMOOTH",
"381 704 OFFCURVE",
"334 730 OFFCURVE",
"285 730 CURVE SMOOTH",
"247 730 OFFCURVE",
"212 715 OFFCURVE",
"185 688 CURVE SMOOTH",
"159 661 OFFCURVE",
"144 625 OFFCURVE",
"145 587 CURVE SMOOTH",
"147 512 OFFCURVE",
"210 451 OFFCURVE",
"289 450 CURVE SMOOTH",
"347 449 OFFCURVE",
"403 423 OFFCURVE",
"442 380 CURVE SMOOTH",
"481 336 OFFCURVE",
"500 279 OFFCURVE",
"494 220 CURVE SMOOTH",
"485 122 OFFCURVE",
"408 43 OFFCURVE",
"310 31 CURVE SMOOTH",
"228 22 OFFCURVE",
"150 60 OFFCURVE",
"107 129 CURVE SMOOTH",
"104 134 OFFCURVE",
"98 135 OFFCURVE",
"94 133 CURVE SMOOTH",
"91 132 OFFCURVE",
"89 129 OFFCURVE",
"88 127 CURVE SMOOTH",
"88 124 OFFCURVE",
"88 122 OFFCURVE",
"89 119 CURVE SMOOTH",
"137 42 OFFCURVE",
"224 0 OFFCURVE",
"315 12 CURVE SMOOTH",
"419 25 OFFCURVE",
"502 110 OFFCURVE",
"514 214 CURVE SMOOTH",
"521 280 OFFCURVE",
"501 344 OFFCURVE",
"457 393 CURVE SMOOTH",
"413 442 OFFCURVE",
"350 470 OFFCURVE",
"285 470 CURVE SMOOTH",
"251 470 OFFCURVE",
"218 485 OFFCURVE",
"196 510 CURVE SMOOTH",
"173 536 OFFCURVE",
"162 570 OFFCURVE",
"166 604 CURVE SMOOTH",
"172 658 OFFCURVE",
"214 701 OFFCURVE",
"267 709 CURVE SMOOTH",
"320 717 OFFCURVE",
"373 688 OFFCURVE",
"395 638 CURVE SMOOTH",
"397 633 OFFCURVE",
"395 627 OFFCURVE",
"390 625 CURVE SMOOTH",
"385 623 OFFCURVE",
"379 625 OFFCURVE",
"377 630 CURVE SMOOTH",
"358 672 OFFCURVE",
"315 696 OFFCURVE",
"270 689 CURVE SMOOTH",
"226 682 OFFCURVE",
"191 646 OFFCURVE",
"186 602 CURVE SMOOTH",
"182 573 OFFCURVE",
"191 545 OFFCURVE",
"210 524 CURVE SMOOTH",
"229 502 OFFCURVE",
"257 490 OFFCURVE",
"285 490 CURVE SMOOTH",
"356 490 OFFCURVE",
"424 460 OFFCURVE",
"471 407 CURVE SMOOTH",
"519 353 OFFCURVE",
"542 284 OFFCURVE",
"534 212 CURVE SMOOTH",
"521 99 OFFCURVE",
"430 6 OFFCURVE",
"318 -8 CURVE SMOOTH",
"307 -9 OFFCURVE",
"296 -10 OFFCURVE",
"285 -10 CURVE SMOOTH"
);
}
);
width = 581;
}
);
leftKerningGroup = S;
leftMetricsKey = S;
rightKerningGroup = S;
rightMetricsKey = S;
unicode = 0073;
},
{
glyphname = t;
lastChange = "2015-06-05 10:52:29 +0000";
layers = (
{
layerId = "6FC19134-58B3-4B2A-889D-9A5D8CFAFAD6";
name = Regular;
paths = (
{
closed = 1;
nodes = (
"30 820 LINE SMOOTH",
"24 820 OFFCURVE",
"20 816 OFFCURVE",
"20 810 CURVE SMOOTH",
"20 804 OFFCURVE",
"24 800 OFFCURVE",
"30 800 CURVE SMOOTH",
"510 800 LINE SMOOTH",
"515 800 OFFCURVE",
"520 798 OFFCURVE",
"520 790 CURVE SMOOTH",
"520 782 OFFCURVE",
"515 780 OFFCURVE",
"510 780 CURVE SMOOTH",
"50 780 LINE SMOOTH",
"38 780 OFFCURVE",
"20 772 OFFCURVE",
"20 750 CURVE SMOOTH",
"20 728 OFFCURVE",
"38 720 OFFCURVE",
"50 720 CURVE SMOOTH",
"510 720 LINE SMOOTH",
"515 720 OFFCURVE",
"520 718 OFFCURVE",
"520 710 CURVE SMOOTH",
"520 702 OFFCURVE",
"515 700 OFFCURVE",
"510 700 CURVE SMOOTH",
"360 700 LINE SMOOTH",
"343 700 OFFCURVE",
"330 687 OFFCURVE",
"330 670 CURVE SMOOTH",
"330 30 LINE SMOOTH",
"330 25 OFFCURVE",
"328 20 OFFCURVE",
"320 20 CURVE SMOOTH",
"312 20 OFFCURVE",
"310 25 OFFCURVE",
"310 30 CURVE",
"310 670 LINE SMOOTH",
"310 682 OFFCURVE",
"302 700 OFFCURVE",
"280 700 CURVE SMOOTH",
"258 700 OFFCURVE",
"250 682 OFFCURVE",
"250 670 CURVE SMOOTH",
"250 30 LINE SMOOTH",
"250 25 OFFCURVE",
"248 20 OFFCURVE",
"240 20 CURVE SMOOTH",
"232 20 OFFCURVE",
"230 25 OFFCURVE",
"230 30 CURVE",
"230 670 LINE SMOOTH",
"230 687 OFFCURVE",
"217 700 OFFCURVE",
"200 700 CURVE SMOOTH",
"30 700 LINE SMOOTH",
"24 700 OFFCURVE",
"20 696 OFFCURVE",
"20 690 CURVE SMOOTH",
"20 684 OFFCURVE",
"24 680 OFFCURVE",
"30 680 CURVE SMOOTH",
"200 680 LINE SMOOTH",
"206 680 OFFCURVE",
"210 676 OFFCURVE",
"210 670 CURVE SMOOTH",
"210 30 LINE SMOOTH",
"210 18 OFFCURVE",
"218 0 OFFCURVE",
"240 0 CURVE SMOOTH",
"262 0 OFFCURVE",
"270 18 OFFCURVE",
"270 30 CURVE SMOOTH",
"270 670 LINE SMOOTH",
"270 674 OFFCURVE",
"272 680 OFFCURVE",
"280 680 CURVE SMOOTH",
"288 680 OFFCURVE",
"290 674 OFFCURVE",
"290 670 CURVE SMOOTH",
"290 30 LINE SMOOTH",
"290 18 OFFCURVE",
"298 0 OFFCURVE",
"320 0 CURVE SMOOTH",
"342 0 OFFCURVE",
"350 18 OFFCURVE",
"350 30 CURVE SMOOTH",
"350 670 LINE SMOOTH",
"350 676 OFFCURVE",
"354 680 OFFCURVE",
"360 680 CURVE SMOOTH",
"510 680 LINE SMOOTH",
"522 680 OFFCURVE",
"540 688 OFFCURVE",
"540 710 CURVE SMOOTH",
"540 732 OFFCURVE",
"522 740 OFFCURVE",
"510 740 CURVE SMOOTH",
"50 740 LINE SMOOTH",
"45 740 OFFCURVE",
"40 742 OFFCURVE",
"40 750 CURVE SMOOTH",
"40 758 OFFCURVE",
"45 760 OFFCURVE",
"50 760 CURVE SMOOTH",
"510 760 LINE SMOOTH",
"522 760 OFFCURVE",
"540 768 OFFCURVE",
"540 790 CURVE SMOOTH",
"540 812 OFFCURVE",
"522 820 OFFCURVE",
"510 820 CURVE SMOOTH"
);
}
);
width = 560;
}
);
leftKerningGroup = T;
leftMetricsKey = T;
rightKerningGroup = T;
rightMetricsKey = T;
unicode = 0074;
},
